<svg viewBox="0 0 171 256" fill="none" xmlns="http://www.w3.org/2000/svg">
<path id="Vector" d="M69.8321 1.27606C69.8321 1.97327 69.6707 2.04796 68.3915 1.97327C67.3731 1.89856 67.1993 1.93591 66.2306 2.28452C64.6037 2.88211 64.6782 2.88211 64.318 2.30942C64.1566 2.03551 63.7964 1.64957 63.5356 1.42546C62.9892 0.977264 62.2937 0.915009 61.2133 1.22626C59.9714 1.58731 59.2138 2.77007 58.8412 4.9239C58.7419 5.44679 58.4438 5.77049 58.0712 5.77049C57.9098 5.77049 57.6862 5.8203 57.562 5.88255C56.9535 6.2187 55.3763 6.642 55.0037 6.57974C54.7802 6.52995 50.6695 6.48015 45.8508 6.45525C35.1332 6.39299 35.6548 6.39299 34.7482 6.45525C33.9285 6.5175 33.2703 6.24359 33.1089 5.79539C33.0095 5.53395 32.0532 4.23915 31.5316 3.66646C30.7989 2.86966 29.0727 1.73671 28.4269 1.61221C28.2654 1.58731 28.017 1.50017 27.8804 1.42546C27.5575 1.25116 26.7751 1.25116 26.6758 1.42546C26.6261 1.50017 26.5143 1.52507 26.415 1.48772C26.328 1.45036 26.1417 1.59976 25.9803 1.86121C25.6326 2.44637 25.6947 3.31786 26.1417 3.91545C26.7254 4.68735 27.3837 6.13155 27.247 6.35565C26.9738 6.86609 25.26 6.59219 23.3971 5.75804C22.503 5.35965 22.3167 5.2227 22.118 4.8243C21.7951 4.13956 21.8323 3.81586 22.267 3.59175C22.7638 3.33031 22.7762 2.83231 22.2918 2.37166C21.1244 1.25116 17.6347 1.05197 14.2939 1.91101C13.7723 2.04796 12.9278 2.19736 12.4311 2.23471C11.9343 2.27206 11.4748 2.34676 11.4003 2.38411C11.3382 2.42146 11.2016 2.47125 11.0898 2.47125C10.8166 2.49615 9.62436 2.78252 8.99098 2.9817C8.18374 3.23071 7.8981 3.19336 7.45102 2.78252C7.22747 2.57086 6.74313 2.28452 6.37056 2.14757C5.41429 1.78651 3.82464 1.87366 2.94289 2.35921C1.83759 2.9568 1.08002 4.23915 1.0676 5.58376C1.04277 6.57974 1.20421 7.02794 1.77549 7.67534C2.08597 8.03639 2.25984 8.13599 2.60757 8.13599C2.98014 8.13599 3.16643 8.02394 3.83706 7.32674C4.50769 6.642 4.68156 6.52995 4.99204 6.56729C5.51364 6.62955 5.93589 6.92834 6.32088 7.51349C6.64378 7.99904 6.6562 8.03639 6.56926 9.41833C6.51959 10.1778 6.45749 10.9621 6.43265 11.1489C6.40781 11.3481 6.43265 11.5224 6.49475 11.5597C6.54442 11.5971 6.56926 11.734 6.532 11.8834C6.49475 12.0204 6.532 12.2818 6.61894 12.4686C6.70587 12.6553 6.86732 12.9915 6.97909 13.228C7.36408 14.0248 8.43213 14.9461 9.81064 15.6184C11.214 16.3156 11.1767 16.2534 10.7918 17.2867C10.4068 18.3201 10.444 18.3948 12.0212 19.8389C12.7291 20.4739 12.9403 20.8848 13.0769 21.8434C13.2135 22.7896 13.1514 24.5201 12.9403 25.3418C12.8285 25.7527 12.7664 25.8149 12.4559 25.8149C11.7604 25.8149 10.9408 24.6695 10.8042 23.4868C10.7048 22.6651 10.2081 21.5695 9.77339 21.2209C9.54984 21.0466 9.2642 20.9594 8.91647 20.9594C7.97262 20.9594 7.61247 21.557 7.61247 23.1382C7.61247 24.4703 7.47586 24.7567 6.63136 25.1675C5.78686 25.5659 4.59463 26.7487 4.3835 27.3712C4.08544 28.28 4.45802 30.4339 5.10381 31.4672C5.26526 31.7411 5.57573 32.1146 5.79928 32.3138C6.14701 32.6375 6.25878 32.6749 6.92942 32.6499C7.98504 32.6251 8.00988 32.6375 7.93536 32.8865C7.83601 33.1978 8.17132 34.4552 8.56874 35.252C8.75502 35.613 9.20211 36.1733 9.5871 36.5343C11.0029 37.8167 11.3755 38.2151 11.5493 38.6135C11.6859 38.9372 11.6859 39.0741 11.5742 39.2111C11.4996 39.3107 11.4624 39.4974 11.4996 39.6344C11.5369 39.7962 11.4996 39.8834 11.3879 39.8834C11.2885 39.8834 11.214 39.7589 11.214 39.6219C11.214 39.3605 11.1767 39.348 10.146 39.4227C8.85437 39.5099 8.15891 39.8211 7.55037 40.5557C7.02877 41.1906 6.86732 41.6015 6.99151 41.9501C7.14054 42.336 7.42618 42.4232 8.66809 42.4232C9.62436 42.4356 9.8479 42.473 10.1832 42.722C10.7793 43.1453 11.214 44.1911 11.2885 45.3365C11.4251 47.3409 11.4748 57.2137 11.363 59.2431C11.3009 60.4009 11.3009 61.8576 11.3506 62.4801C11.4624 63.7126 11.363 64.2355 10.8911 64.8455C10.146 65.8415 8.84196 68.9042 8.68051 70.0745C8.63083 70.4231 8.5439 70.8962 8.4818 71.1328C8.41971 71.3693 8.25826 72.3778 8.10923 73.3738C7.9602 74.3698 7.67456 75.9883 7.47586 76.9843C7.27715 77.9802 7.09086 79.0136 7.05361 79.2875C6.95425 80.159 6.97909 81.6281 7.1157 82.3377C7.19022 82.7112 7.27715 83.1719 7.30199 83.3586C7.38892 83.8691 8.70535 88.0523 8.96615 88.625C9.67403 90.1936 10.3571 92.8704 10.531 94.7254C10.5682 95.1985 10.6676 95.958 10.7421 96.4062C10.8166 96.8544 10.8911 97.3773 10.9159 97.5889C10.9284 97.7881 10.9532 97.9624 10.9656 97.9624C11.1395 97.9624 11.2264 102.195 11.0774 103.204C11.0153 103.602 10.8787 104.399 10.7669 104.972C10.6676 105.544 10.5558 106.242 10.5185 106.528C10.4813 106.802 10.4316 107.076 10.4068 107.113C10.3819 107.163 10.2702 107.636 10.1584 108.184C10.0466 108.719 9.77339 109.815 9.54984 110.599C9.3263 111.383 9.01582 112.504 8.85437 113.089C8.70535 113.674 8.4818 114.459 8.35761 114.832C8.24584 115.206 8.07197 115.828 7.98504 116.202C7.8981 116.575 7.79875 116.974 7.76149 117.073C7.72424 117.173 7.67456 117.347 7.66214 117.447C7.64972 117.546 7.48827 118.194 7.30199 118.878C6.94183 120.173 6.6562 121.381 6.55684 121.941C6.532 122.115 6.44507 122.414 6.38298 122.588C6.30846 122.775 6.28362 122.925 6.32088 122.925C6.37056 122.925 6.34572 122.999 6.28362 123.074C6.22153 123.161 6.15943 123.373 6.14701 123.547C6.13459 123.858 5.71234 125.676 5.50122 126.361C5.42671 126.572 5.37703 126.834 5.37703 126.946C5.37703 127.07 5.32735 127.257 5.26526 127.382C5.20316 127.494 5.05413 127.905 4.94236 128.278C4.81817 128.652 4.61946 129.15 4.50769 129.361C4.25931 129.834 4.27173 130.071 4.59463 131.079C4.84301 131.826 5.15349 133.146 5.62541 135.437C5.77444 136.122 5.96073 137.043 6.06008 137.491C6.14701 137.939 6.29604 138.636 6.37056 139.047C6.44507 139.458 6.56926 140.018 6.63136 140.292C6.69345 140.566 6.76797 140.877 6.79281 140.977C6.81764 141.077 6.87974 141.5 6.92942 141.898C6.97909 142.309 7.06603 142.77 7.1157 142.919C7.1778 143.069 7.28957 143.89 7.36408 144.737C7.58763 147.028 7.58763 147.015 7.60005 147.015C7.61247 147.015 7.6373 147.6 7.64972 148.323C7.68698 149.779 7.83601 151.547 7.93536 151.696C7.9602 151.759 8.0223 152.145 8.05955 152.58C8.09681 153.016 8.25826 154.012 8.41971 154.796C8.58115 155.581 8.7426 156.502 8.79228 156.838C8.82954 157.174 8.89163 157.498 8.92889 157.56C8.96615 157.61 9.01582 157.859 9.04066 158.096C9.07792 158.345 9.18969 158.917 9.28904 159.378C9.8479 161.868 10.1832 165.254 9.88516 165.254C9.82306 165.254 9.59952 165.142 9.37598 165.005C8.79228 164.644 8.05955 164.557 7.67456 164.806C7.51311 164.918 7.16538 165.441 6.90458 165.977C6.64378 166.499 6.22153 167.246 5.96073 167.62C5.51364 168.255 5.4888 168.342 5.52606 169.101C5.56332 169.898 5.57573 169.923 6.09734 170.322C6.39539 170.546 6.71829 170.77 6.81764 170.832C7.1778 171.031 6.87974 171.355 6.30846 171.355C5.40187 171.355 5.12865 170.919 4.63188 168.703C4.54495 168.305 4.34624 167.832 4.20963 167.632C3.96125 167.309 3.88674 167.284 3.11675 167.296C2.1729 167.309 1.86243 167.52 1.3905 168.417C0.608098 169.911 0.794385 171.94 1.9121 173.969C2.32193 174.704 3.71287 176.21 3.97367 176.21C4.06061 176.21 4.13512 176.26 4.13512 176.335C4.13512 176.397 4.54495 176.646 5.04171 176.883C6.79281 177.729 8.14649 177.692 9.56226 176.771C10.0342 176.459 10.2329 176.385 10.3198 176.497C10.4564 176.684 10.8166 177.592 10.8911 177.978C10.9284 178.14 11.0401 178.638 11.1395 179.111C11.5617 181.041 11.5617 181.377 11.3755 205.094C11.2885 215.266 11.214 228.538 11.214 234.601C11.214 240.714 11.1519 246.229 11.0898 246.988C11.0029 247.935 10.8538 248.706 10.593 249.478C9.95967 251.358 9.83548 252.13 10.0466 253.014C10.1335 253.437 10.3571 253.998 10.531 254.272C10.7048 254.546 10.8414 254.807 10.8414 254.869C10.8414 254.919 11.0277 255.143 11.2513 255.367C11.6114 255.716 11.748 255.766 12.3441 255.766C13.139 255.766 13.2011 255.691 13.5612 254.409C13.9338 253.039 14.058 252.877 14.8155 252.554C15.4117 252.317 15.6228 252.292 16.43 252.354C16.9392 252.404 17.4732 252.441 17.6098 252.454C17.9824 252.466 18.7151 253.276 18.9511 253.96C19.0753 254.309 19.2616 254.782 19.3858 255.019L19.5969 255.454H20.6153C21.4101 255.454 21.6833 255.405 21.8447 255.243C21.9565 255.131 22.1925 254.521 22.3539 253.873C22.6644 252.678 22.8879 252.28 23.2729 252.28C23.3971 252.28 23.5337 252.217 23.571 252.155C23.6703 251.993 25.1234 251.993 25.794 252.168C26.5143 252.342 27.3588 253.089 27.4706 253.637C27.5327 253.96 27.6445 254.11 27.9301 254.222C28.5014 254.458 29.0478 254.135 29.4701 253.338C29.8178 252.678 29.9792 251.383 29.7184 251.221C29.6439 251.184 29.6191 251.097 29.6439 251.047C29.793 250.811 28.5883 249.317 27.6941 248.632C27.0608 248.159 26.0797 247.735 25.1855 247.574C24.6266 247.462 19.7708 247.337 19.4106 247.424C19.2492 247.462 18.1687 247.536 18.1563 247.511C18.1563 247.499 18.119 247.038 18.0942 246.49C18.0445 245.519 17.9327 243.278 17.6595 238.087C17.5726 236.493 17.5105 227.392 17.4856 213.809C17.4732 201.857 17.4111 186.681 17.3739 180.07C17.3242 173.459 17.3242 167.097 17.3863 165.914C17.436 164.732 17.4484 160.648 17.3987 156.826C17.349 153.004 17.2621 144.837 17.1876 138.674C17.0386 125.913 16.9019 119.812 16.7778 119.613C16.6163 119.364 16.5294 113.463 16.666 112.155C16.8895 109.914 17.0137 109.665 17.4608 110.549C18.0693 111.769 19.1622 112.803 20.3917 113.363C20.8512 113.575 20.9754 113.587 21.2238 113.45C21.6336 113.239 21.6336 112.666 21.2238 112.392L20.9133 112.193L21.2983 111.184C21.5094 110.624 21.7826 109.74 21.9193 109.23C22.2049 108.134 22.3042 107.997 22.6396 108.209C23.2357 108.582 24.7508 107.723 24.7508 107.026C24.7508 106.478 24.3907 105.918 23.2108 104.623C22.5651 103.926 21.9814 103.229 21.8944 103.067C21.5964 102.507 21.9068 102.021 22.7017 101.834C23.3723 101.66 24.0057 101.075 24.5521 100.129C24.726 99.8175 25.0116 99.444 25.1731 99.2821L25.4711 98.9958L25.943 99.307C26.2163 99.4813 26.564 99.7677 26.7379 99.9544C27.2595 100.527 28.1785 101.137 28.5138 101.137C28.8367 101.137 28.9609 100.95 29.0354 100.39C29.2714 98.6721 29.3335 97.9873 29.2962 97.3648C29.2714 96.9789 29.3086 96.6552 29.3583 96.6552C29.4576 96.6552 29.8054 97.1532 30.7244 98.6472C31.5068 99.9171 32.1277 100.428 32.3885 100.017C32.5997 99.6681 31.5813 97.4146 30.4884 95.8086C29.1472 93.8539 27.3712 92.4346 25.2227 91.6254C24.8874 91.5009 24.6266 91.364 24.6266 91.3266C24.6142 91.2768 24.6018 90.7041 24.5769 90.0567C24.5273 88.8366 24.2292 87.1559 23.9436 86.5085C23.3475 85.139 23.0867 84.6534 22.5775 83.9936C22.267 83.5703 22.0186 83.1719 22.0186 83.0972C22.0186 83.0349 22.1801 82.7735 22.3912 82.5494C22.5899 82.3128 22.7638 82.0887 22.7638 82.0514C22.7638 82.014 22.9625 81.6405 23.1984 81.2297L23.6331 80.4827L24.2913 80.6819C25.7816 81.1301 27.3961 80.6196 29.4825 79.0385C31.6186 77.4324 32.5376 75.8513 32.4879 73.8718C32.4631 72.8882 32.3885 72.44 32.1526 71.8673C31.8049 71.0207 31.5068 71.1203 30.1655 72.4898C29.2465 73.4236 28.7994 73.7473 28.638 73.573C28.6007 73.5356 28.5262 73.0501 28.4641 72.4898C28.3523 71.3569 28.2033 71.1079 27.4458 70.7593C27.0732 70.585 26.6882 70.5476 25.6326 70.5725C24.0926 70.6099 23.0991 70.8464 22.2049 71.4191C21.4225 71.9171 21.1865 72.191 21.0127 72.8135C20.6028 74.2453 20.6773 74.1581 19.1871 75.0172C18.9387 75.1665 18.5909 75.3533 18.4171 75.4405C17.3615 75.9883 16.815 77.2955 17.3987 77.8931C17.5974 78.0798 18.3922 78.2915 19.9446 78.5405C20.5283 78.6276 20.6401 78.8766 20.2799 79.2501C20.1309 79.412 19.8329 79.773 19.6341 80.0594C19.423 80.3582 19.1498 80.6196 19.038 80.657C18.9138 80.6943 18.4916 80.5574 18.0942 80.3582C17.3366 79.9722 16.4797 79.8228 15.9084 79.9847C15.6228 80.0594 15.4986 79.9971 14.9646 79.4618C14.3685 78.8642 14.356 78.8393 14.1573 77.6068C13.9462 76.3493 13.9462 76.3369 14.2318 75.8638C14.7286 74.9798 19.4106 68.0576 19.6466 67.846C19.8577 67.6592 19.8825 67.6717 20.1682 68.0327C20.5035 68.4809 21.3728 68.9291 21.7951 68.8669C21.9565 68.8544 22.7886 68.4809 23.6579 68.0452C24.8874 67.4351 25.3469 67.1363 25.7568 66.6757C26.4522 65.8913 26.6137 65.4556 26.6137 64.4222C26.6137 63.9491 26.6633 63.5258 26.7254 63.4885C26.9366 63.3515 27.247 63.8993 27.5575 64.9825C27.8928 66.1279 28.4517 66.9869 28.8739 67.0118C28.9857 67.0243 29.1223 67.0865 29.172 67.1612C29.2962 67.3729 30.2525 67.2235 30.625 66.9496C30.7989 66.8126 31.1218 66.4391 31.3453 66.103C31.9166 65.2688 32.2271 65.0572 33.0468 64.9576C34.3011 64.8082 34.2514 64.8331 35.0338 64.111C35.692 63.5009 35.6051 63.1399 34.5743 62.1688C33.0219 60.7122 30.7368 59.5792 28.9609 59.38C28.5883 59.3427 28.0667 59.2555 27.7935 59.1808C27.5078 59.1061 26.7627 59.0937 26.0672 59.1435L24.8502 59.2182L24.9371 58.8322C25.0116 58.4463 25.7443 56.9523 26.6137 55.3836C27.8928 53.0679 30.1034 48.2995 31.1094 45.6851C31.3205 45.1497 31.5565 44.5646 31.6558 44.3778C31.7552 44.2035 31.8297 43.9545 31.8297 43.8425C31.8297 43.7304 31.8794 43.6059 31.9415 43.5686C31.9911 43.5312 32.0781 43.3196 32.1277 43.1079C32.165 42.8963 32.2768 42.5477 32.3761 42.336C32.4755 42.1119 32.6121 41.7135 32.699 41.4396C32.7735 41.1657 32.8853 40.8296 32.9474 40.6926C32.9971 40.5557 33.1958 40.0203 33.3821 39.5099C34.0651 37.5801 34.7482 36.2106 35.3195 35.5882C35.9032 34.9532 36.0398 34.9657 37.083 35.6877C37.6915 36.111 37.8281 36.2853 37.8157 36.6464C37.8157 36.9327 37.6418 38.0657 37.6046 38.1528C37.5673 38.2026 37.5301 38.6384 37.5176 39.1115C37.4928 40.4063 37.9896 41.2404 39.4426 42.3485C40.2126 42.9336 40.5603 43.5935 40.5976 44.5397C40.6472 45.6602 40.8832 46.4321 41.2806 46.8678L41.6284 47.2413L42.982 46.5441C44.2736 45.8718 44.3606 45.8469 44.8201 45.9714C45.0809 46.0461 45.4534 46.1084 45.6273 46.1084C46.1116 46.1084 46.9313 45.4485 47.4405 44.6393C48.2229 43.3818 48.2229 43.3818 49.3406 43.4565C50.1851 43.5188 50.359 43.4939 50.8185 43.2449C51.6133 42.7842 51.9735 42.1368 52.1349 40.8296C52.1722 40.5432 52.4454 39.9456 52.7683 39.4227C53.4265 38.3769 53.8115 37.356 53.8115 36.6962C53.8115 36.0363 52.7683 33.9946 52.0728 33.2973C51.2035 32.4134 50.2845 32.015 49.1171 31.9901C48.2229 31.9777 48.0863 32.015 47.0431 32.5255C45.4783 33.2724 45.0809 33.4094 44.4723 33.3347C43.8514 33.26 43.7023 33.1853 43.0193 32.6002C42.7212 32.3636 42.4232 32.1644 42.3362 32.1644C42.0754 32.1644 41.5663 32.8118 41.3427 33.4218C41.0943 34.1066 40.7963 34.4054 39.9269 34.8411C39.3557 35.1275 39.2191 35.1524 38.8465 35.0279C38.3249 34.8536 36.7477 33.8203 36.698 33.6086C36.6483 33.3845 39.5171 30.7576 42.3114 28.5041C42.5722 28.2925 42.8703 28.031 42.9945 27.9314C43.1062 27.8194 43.4788 27.5206 43.8141 27.2467C44.1618 26.9728 44.4972 26.6989 44.5593 26.6117C44.6338 26.537 45.0809 26.176 45.5528 25.8025C46.7202 24.9061 47.8255 23.9723 49.0177 22.9016C52.2094 20.0381 53.3023 18.9052 54.8298 16.8759C55.426 16.0915 56.0718 15.3445 56.258 15.2076C56.6306 14.971 57.1025 14.9088 57.2267 15.108C57.264 15.1702 57.3758 15.1951 57.4751 15.1578C57.5745 15.1204 57.8104 15.1951 57.9967 15.3196C59.0027 16.0168 60.791 16.3779 61.8218 16.0915C62.0578 16.0293 62.5173 15.7554 62.8402 15.5064C64.0821 14.5353 64.3429 14.4232 65.4233 14.4232C66.094 14.4357 66.6901 14.5228 67.2489 14.6971C68.6275 15.1453 68.851 15.3943 68.2797 15.8176C68.1183 15.9421 67.8947 16.2409 67.7954 16.4775C67.4601 17.3116 67.9444 17.8096 69.236 17.9715C70.8132 18.1707 71.1361 18.5442 70.0556 18.9052C68.5281 19.3907 67.8326 19.8389 66.4044 21.2209C65.6345 21.9679 64.939 22.5779 64.8521 22.5779C64.7775 22.5779 64.2808 22.7771 63.7592 23.0261C61.2381 24.2089 61.3002 24.1591 61.2629 25.0057C61.2257 25.8523 61.2505 25.927 61.7349 26.2258C63.3742 27.2716 64.8769 27.0101 67.0378 25.292C68.7765 23.9225 69.2112 23.8105 68.7765 24.8563C68.3915 25.79 68.6523 26.4374 69.4223 26.4374C69.8073 26.4374 70.9374 26.0888 71.695 25.7278C72.3283 25.429 73.3964 24.3707 73.8559 23.5739C74.4893 22.4783 74.7004 21.8558 74.8494 20.5237C74.9612 19.5526 75.0357 19.2787 75.1847 19.2413C75.4952 19.1791 76.4763 20.1626 77.3208 21.3828C77.7431 21.9928 78.1529 22.5157 78.2274 22.5406C78.4137 22.6028 78.8359 21.557 79.0843 20.4739C79.1961 19.9635 79.3327 19.4655 79.3824 19.3783C79.5066 19.1418 79.6556 19.3161 80.2641 20.5112C81.3694 22.6402 82.9591 24.6695 83.3938 24.5077C83.6794 24.3956 83.7291 24.1964 83.6173 23.5864C83.5179 23.051 83.7539 20.4988 83.9402 20.0257C84.1637 19.4655 84.5487 19.0795 85.0331 18.955C86.5979 18.5691 87.5914 17.7847 87.5914 16.963C87.5914 15.4317 86.3619 14.0622 84.2755 13.2903C83.9526 13.1658 83.6546 13.0537 83.6297 13.0413C83.6173 13.0164 83.7291 12.8172 83.9029 12.5931C84.0644 12.369 84.3624 11.8585 84.5487 11.4601C84.7599 11.0119 84.9586 10.7505 85.1076 10.7505C85.5795 10.7505 86.7469 11.0493 86.7842 11.1738C87.2561 13.1035 87.8274 13.5766 89.8268 13.6762C91.1805 13.7509 91.1433 13.726 92.3852 15.3072C93.329 16.5148 93.6147 16.7389 94.0369 16.5771C94.4964 16.4152 94.633 16.5148 95.0429 17.3988C95.5396 18.457 96.2351 19.2289 96.8436 19.3907C97.1169 19.4779 97.328 19.6149 97.3528 19.7269C97.3776 19.951 97.0548 21.1586 96.7319 22.0799C96.4711 22.7896 96.5456 22.9514 97.1044 22.9514C97.6509 22.9514 98.1849 22.802 99.1908 22.3414C99.9981 21.9803 100.954 21.0466 101.302 20.2498C101.898 18.9176 101.973 18.8554 103.351 18.4445C103.798 18.3201 103.923 18.208 104.009 17.9092C104.221 17.1747 103.935 15.9795 103.326 15.0706C103.202 14.8839 103.14 14.722 103.202 14.722C103.252 14.7096 105.537 14.7096 108.269 14.722C111.001 14.7345 113.448 14.6847 113.709 14.6224C113.957 14.5602 114.193 14.5477 114.218 14.5975C114.255 14.6473 114.876 14.6598 115.596 14.6349C117.298 14.5726 118.018 14.7469 118.515 15.3196C118.95 15.8176 119.521 16.9132 119.769 17.7723C119.856 18.096 120.042 18.457 120.167 18.5691C120.378 18.7558 120.415 18.7558 120.726 18.5691C121.272 18.2454 121.831 17.3614 122.179 16.2907C122.576 15.1204 122.539 14.4606 122.054 13.4023C121.881 13.0288 121.744 12.6678 121.744 12.6055C121.744 12.5433 122.067 12.3565 122.464 12.1698C124.638 11.1738 125.991 10.3894 128.016 8.94524C130.052 7.47614 129.605 7.57574 134.536 7.57574C138.212 7.57574 138.969 7.6131 139.863 7.79984C141.329 8.12354 144.744 8.13599 146.768 7.83719C147.998 7.65044 148.706 7.62555 150.867 7.68779C154.232 7.78738 154.717 7.86209 154.841 8.26048C154.915 8.48459 154.816 9.06973 154.667 9.31874C154.493 9.61754 154.183 10.6882 154.22 10.875C154.245 10.987 154.344 11.2858 154.456 11.5348L154.642 11.9955L156.17 11.983C157.946 11.9706 158.368 11.8336 158.902 11.0617C159.361 10.3894 159.746 9.35608 159.746 8.77094C159.746 8.50949 159.784 8.12354 159.821 7.9119L159.895 7.53839L161.1 7.60065C163.137 7.68779 164.354 8.17334 165.571 9.36853C167.086 10.8501 167.446 10.9746 168.787 10.4766C169.706 10.128 170.551 9.25648 170.551 8.65889C170.551 8.52194 170.638 8.34764 170.737 8.26048C171.06 7.98659 170.948 7.67534 170.34 7.16489C169.073 6.11909 166.9 5.35965 164.354 5.08575C164.13 5.06085 163.919 5.01105 163.882 4.97369C163.845 4.93636 163.807 4.47571 163.795 3.94035C163.77 2.75761 163.46 2.04796 162.652 1.28851L162.106 0.76561L160.442 0.815414C159.125 0.840317 158.728 0.890121 158.554 1.05197C158.417 1.16402 157.821 1.52507 157.2 1.84875C156.592 2.18491 155.946 2.52106 155.772 2.62067C155.598 2.70781 155.424 2.78252 155.362 2.78252C155.313 2.78252 155.002 2.90701 154.679 3.04396C154.356 3.19336 153.934 3.38011 153.723 3.46725C152.208 4.12711 150.221 4.0773 148.631 3.34276C147.712 2.91946 147.439 2.57086 147.489 1.89856C147.514 1.59976 147.476 1.22626 147.414 1.06441C147.29 0.802963 147.215 0.790512 145.974 0.790512H144.657L144.098 1.30096C143.105 2.19736 141.726 3.5793 141.478 3.9279C141.242 4.2516 141.242 4.26405 141.453 4.38855C141.627 4.47571 141.863 4.41345 142.409 4.15201C142.807 3.9528 143.229 3.70381 143.341 3.6042C143.465 3.49216 143.602 3.40501 143.639 3.40501C143.726 3.40501 143.837 3.31786 145.34 1.98572L146.272 1.16402L146.309 1.66202C146.359 2.34676 146.21 2.55841 145.253 3.1311C144.21 3.7536 143.44 4.5255 143.552 4.81186C143.664 5.12311 143.862 5.0733 144.819 4.5255C145.899 3.89055 146.607 3.7785 147.278 4.12711C147.787 4.38855 149.041 4.78696 149.525 4.8492C149.674 4.86165 149.861 4.91145 149.935 4.96126C150.01 5.01105 150.643 5.03595 151.339 5.03595C153.09 5.01105 154.555 4.6002 157.138 3.36766C157.585 3.15601 158.144 2.86966 158.38 2.72026C159.771 1.86121 160.169 1.71181 160.727 1.81142C161.423 1.93591 162.168 2.42146 162.416 2.90701C162.528 3.11865 162.652 3.55441 162.69 3.8781C162.739 4.36365 162.714 4.50061 162.491 4.6998C161.969 5.1729 160.641 5.14799 158.467 4.63756C157.797 4.47571 157.225 4.63756 157.002 5.03595C156.84 5.3472 157.051 5.74561 157.424 5.8203C158.43 6.00705 160.243 6.1938 161.324 6.2187C165.509 6.2934 166.751 6.52995 168.725 7.60065C169.706 8.12354 169.16 9.25648 167.918 9.25648C167.645 9.25648 167.347 9.09464 166.887 8.70869C166.068 7.99904 164.851 7.33919 163.907 7.07774C163.497 6.9657 163.062 6.82875 162.938 6.75404C162.814 6.69179 162.503 6.62955 162.255 6.62955C160.442 6.60464 159.436 6.52995 159.163 6.38054C158.877 6.23114 158.827 6.24359 158.604 6.5175C158.43 6.72914 158.38 6.91589 158.442 7.14C158.492 7.3143 158.554 7.88699 158.591 8.43478C158.666 9.71713 158.442 10.2649 157.635 10.6384C157.126 10.875 157.027 10.8874 156.418 10.738C156.058 10.6509 155.735 10.5388 155.698 10.4766C155.66 10.4268 155.71 10.2027 155.809 9.97858C156.53 8.34764 156.555 7.9368 155.971 7.2894L155.549 6.82875L153.698 6.8163C152.692 6.80385 151.724 6.76649 151.55 6.71669C151.103 6.60464 148.979 6.45525 148.383 6.4926C146.744 6.59219 140.459 6.60464 139.317 6.5175C138.572 6.45525 137.392 6.3681 136.709 6.33075C136.026 6.2934 135.045 6.24359 134.536 6.20625C133.418 6.144 133.617 6.144 132.126 6.20625C130.785 6.26849 129.841 6.4926 128.885 6.9657C127.854 7.48859 127.693 7.5882 126.153 8.68379C125.333 9.26894 124.464 9.84163 124.228 9.96614C123.992 10.0906 123.781 10.2276 123.756 10.2774C123.731 10.3396 123.644 10.377 123.57 10.377C123.483 10.377 123.259 10.4641 123.048 10.5762C122.266 10.9995 120.378 11.3232 120.378 11.0368C120.378 10.987 121.036 10.5139 121.831 10.0035C122.626 9.49304 123.731 8.77094 124.29 8.39745C125.544 7.56329 127.034 6.642 127.159 6.642C127.208 6.642 127.544 6.50505 127.904 6.33075C128.276 6.15645 129.171 5.8203 129.903 5.5713C130.648 5.33475 131.344 5.08575 131.456 5.0235C131.58 4.94881 131.766 4.899 131.865 4.899C131.965 4.899 132.151 4.8492 132.275 4.78696C132.573 4.63756 133.008 4.46326 133.728 4.21425C134.076 4.08975 134.523 3.9279 134.722 3.84076C134.933 3.7536 135.405 3.56685 135.777 3.4299C136.374 3.20581 137.727 2.62067 138.758 2.13512C138.932 2.04796 139.466 1.72426 139.938 1.41301L140.807 0.852768L139.739 0.815414C138.746 0.778061 138.609 0.802963 138.063 1.13911C137.727 1.33832 136.783 1.76161 135.964 2.08531C135.144 2.42146 134.312 2.75761 134.101 2.85721C133.902 2.94435 132.834 3.31786 131.741 3.69136C130.648 4.06485 129.667 4.401 129.568 4.43835C128.5 4.8243 126.401 5.45924 124.724 5.895C124.414 5.98215 124.104 6.09419 124.017 6.1689C123.805 6.3432 123.607 6.18135 123.607 5.8203C123.607 5.646 123.47 5.3223 123.296 5.09821C123.122 4.8741 122.986 4.63756 122.986 4.5753C122.986 4.401 122.253 3.7287 121.806 3.49216C120.639 2.86966 119.434 2.39656 118.664 2.25961C117.869 2.12267 117.757 2.13512 117.546 2.32185C117.335 2.50861 116.963 3.23071 115.87 5.4966C115.733 5.79539 115.51 6.08174 115.398 6.15645C114.938 6.39299 112.603 6.52995 108.306 6.55484L103.798 6.57974L103.115 6.25604C102.544 5.98215 102.072 5.78294 101.749 5.70825C101.128 5.5464 100.917 5.47169 100.793 5.3721C100.545 5.1729 98.632 4.9239 97.8123 4.97369C96.9181 5.0235 95.8998 5.38455 94.3847 6.1938C93.7885 6.50505 93.18 6.76649 93.0434 6.76649C92.7205 6.76649 92.3107 6.06929 92.3107 5.48415C92.3107 5.11066 92.41 4.9239 92.8074 4.5255C93.0682 4.26405 93.5774 3.89055 93.9251 3.71626C94.2605 3.54196 94.5461 3.35521 94.5461 3.29295C94.5461 3.18091 94.1114 2.85721 93.6022 2.58331C92.944 2.22226 90.5347 1.99817 89.3301 2.17245C88.8209 2.24716 88.3117 2.34676 88.2124 2.38411C88.113 2.42146 87.9391 2.45882 87.8274 2.4837C87.5293 2.54596 86.5606 2.99416 86.3371 3.18091C86.2377 3.26805 86.1135 3.44235 86.0639 3.55441C85.9397 3.89055 84.7226 4.7247 84.052 4.93636C83.3689 5.16045 80.4132 5.44679 79.904 5.3472C79.7301 5.30984 79.134 5.2476 78.5876 5.1978C78.0411 5.16045 77.5444 5.09821 77.4823 5.06085C77.4202 5.01105 77.2215 4.97369 77.0352 4.96126C76.4639 4.91145 75.3338 4.53795 75.0357 4.28896L74.7376 4.03995L75.0357 3.46725C75.2717 3.03151 75.3586 2.6331 75.3959 1.83632L75.458 0.790512H74.7252H73.9925L74.0173 1.62466C74.0422 2.58331 73.8311 3.16846 73.2349 3.79095C72.8872 4.16446 71.695 4.86165 71.695 4.6998C71.695 4.65001 71.608 4.68735 71.5087 4.77451C71.3224 4.93636 69.7079 5.12311 69.7079 4.98615C69.7079 4.93636 69.919 4.61266 70.1923 4.26405C70.7511 3.51706 70.9498 2.94435 71.0368 1.69936L71.1113 0.790512H70.4655H69.8321V1.27606ZM62.9892 2.77007C63.3742 3.3054 63.3121 3.69136 62.629 4.94881C61.9087 6.25604 61.8218 6.3681 61.325 6.72914C60.9649 6.97815 60.9276 6.97815 60.6792 6.7914C60.3315 6.5175 60.257 6.1938 60.2446 5.11066C60.2446 3.59175 60.7165 2.62067 61.5113 2.50861C62.5794 2.37166 62.7284 2.39656 62.9892 2.77007ZM20.0191 2.77007C20.5532 2.91946 20.4414 3.14355 19.6714 3.49216C19.1001 3.7536 18.889 3.9279 18.7896 4.2018C18.7027 4.45081 18.7027 4.61266 18.8021 4.7247C18.9759 4.93636 18.8517 5.45924 18.5288 5.91989C18.2929 6.24359 18.2308 6.25604 17.3242 6.25604C16.1692 6.25604 14.2194 6.70424 12.8036 7.3143C12.1206 7.60065 12.0088 7.56329 11.7232 6.97815C11.3755 6.26849 10.8042 5.73315 9.83548 5.2227C9.40081 4.9986 9.02824 4.7247 9.0034 4.61266C8.96615 4.401 9.41323 4.2267 10.3447 4.08975C10.6551 4.03995 11.3506 3.903 11.8971 3.76605C12.4435 3.64156 13.0272 3.51706 13.2011 3.47971C14.6665 3.19336 15.126 3.09377 15.9954 2.90701C17.0013 2.67046 19.4106 2.59576 20.0191 2.77007ZM28.7994 3.24316C30.1655 3.86566 32.0532 6.65445 32.7114 9.00749C32.935 9.80429 32.9722 10.2774 32.9722 12.1449C32.9722 13.6389 33.0219 14.3859 33.1089 14.4481C33.1834 14.4979 33.4938 14.5228 33.7919 14.4979C34.7482 14.4357 34.7109 14.6722 33.3945 16.7265C32.9722 17.3739 32.5376 18.1582 32.4258 18.457C32.2271 18.9426 32.2271 19.0421 32.401 19.453C32.6121 19.9386 34.0651 25.2173 34.1024 25.6282C34.1148 25.7651 34.1645 25.927 34.2017 26.0017C34.2514 26.0639 34.3135 26.288 34.3632 26.4997C34.5246 27.1969 35.2325 28.4543 35.6424 28.7656C36.2385 29.2262 36.4869 29.1142 36.4869 28.3796C36.4993 27.8194 36.5365 27.7447 37.2444 27.0848C38.1386 26.2382 38.5608 25.8772 39.2315 25.3543C39.7903 24.9061 44.7083 21.7064 44.8201 21.7064C44.8573 21.7064 45.4783 21.308 46.1862 20.8349C46.894 20.3494 47.5274 19.9635 47.5895 19.9635C47.6516 19.9635 47.7261 19.8763 47.7758 19.7767C47.8131 19.6771 47.9124 19.59 48.0118 19.59C48.2353 19.59 49.9367 17.9217 50.5328 17.1C50.8185 16.7265 51.3401 15.8923 51.7002 15.2574C52.1473 14.4481 52.4454 14.0622 52.6689 13.975C52.8428 13.9128 53.4513 13.3774 54.0102 12.7923L55.041 11.7465L55.8855 11.7589C56.5561 11.7714 56.9163 11.7091 57.5993 11.4228C58.3569 11.124 58.6301 10.9123 59.7726 9.74203C60.8531 8.63399 61.176 8.38499 61.6355 8.26048C61.9336 8.17334 62.2937 8.03639 62.4303 7.9368C62.5669 7.83719 62.8774 7.7625 63.101 7.7625H63.5232L63.1134 8.28539C62.8898 8.5593 62.3682 9.00749 61.946 9.26894C60.9028 9.92879 60.3315 10.377 60.0086 10.8003C59.6609 11.2734 59.8596 11.3979 60.6171 11.1738C60.9276 11.0742 61.3002 10.9995 61.4368 10.9995C61.8591 10.9995 62.6415 10.5513 63.2872 9.92879C63.9579 9.29384 65.473 8.13599 66.0443 7.81229C67.9444 6.75404 68.8137 6.45525 70.2295 6.33075C70.6145 6.30585 71.1982 6.2187 71.5335 6.13155C73.4212 5.70825 75.1847 5.63354 76.4018 5.95724C76.8365 6.06929 77.3457 6.18135 77.5195 6.20625C78.2274 6.3183 80.4877 6.62955 81.1335 6.69179C81.5061 6.72914 82.8225 6.87854 84.052 7.01549C85.2815 7.15245 86.5109 7.2894 86.7842 7.3143C88.0137 7.4388 88.3366 7.55084 88.8954 8.04884C89.4418 8.52194 89.4543 8.54684 89.2556 8.77094C89.1314 8.90788 88.6594 9.11954 88.1999 9.25648C87.4672 9.48059 87.1567 9.50548 85.7658 9.43079C84.2755 9.35608 84.0892 9.31874 82.6238 8.77094C80.7112 8.04884 80.4629 7.97414 78.5255 7.5882C74.3775 6.76649 72.0924 6.97815 68.9007 8.44724C68.081 8.83319 67.2862 9.01994 65.7338 9.20668C64.9514 9.29384 64.1193 9.64244 63.4984 10.128C62.8029 10.6758 61.5486 11.2983 59.8472 11.9208C57.2267 12.9043 55.5253 14.0248 54.2958 15.5935C51.9735 18.5815 49.6262 20.947 46.2358 23.7233C45.59 24.2587 44.9194 24.7816 44.758 24.9061C44.5965 25.0306 44.2612 25.3045 44.0128 25.5161C43.7644 25.7278 43.1435 26.2258 42.6343 26.6366C40.2498 28.5166 36.9464 31.4423 35.7044 32.7745C33.9161 34.6669 32.9474 36.3227 32.1402 38.8874C31.9539 39.4725 31.7552 40.0452 31.6931 40.1573C31.631 40.2818 31.5813 40.4436 31.5813 40.5308C31.5813 40.7175 30.3891 44.1413 30.0786 44.8136C29.9544 45.0875 29.7433 45.6228 29.5943 45.9963C29.4576 46.3698 29.2589 46.8305 29.1596 47.0421C29.0602 47.2413 28.7249 48.0007 28.4269 48.7229C27.0235 52.0968 24.8626 56.3671 23.5462 58.384C22.8507 59.4547 22.5154 59.7909 21.497 60.3387C20.6153 60.8242 19.1871 61.8451 17.9824 62.8411C15.4241 64.9576 12.8906 68.0327 13.052 68.8295C13.1514 69.3649 13.4991 69.1781 14.6044 67.9829C16.7281 65.6921 17.4856 64.9078 17.585 64.9078C17.6471 64.9078 17.3987 65.2439 17.0261 65.6672C16.666 66.0781 16.281 66.5512 16.1816 66.7006C16.0823 66.8624 15.4613 67.6219 14.8155 68.3938C11.9219 71.8424 9.92242 75.3284 9.22695 78.1048C8.90405 79.4369 8.43213 80.8437 8.32035 80.8437C8.24584 80.8437 8.23342 80.52 8.29552 79.9349C8.41971 78.7521 8.44454 78.6152 8.73018 77.2332C8.86679 76.5858 9.0034 75.8762 9.04066 75.677C9.07792 75.4654 9.18969 74.8802 9.28904 74.3698C9.3884 73.8593 9.61194 72.5645 9.79823 71.5063C9.97209 70.448 10.1708 69.4769 10.2329 69.3649C10.295 69.2528 10.3447 69.0536 10.3447 68.9416C10.3447 68.6428 11.3879 66.5014 11.9467 65.6548C12.1951 65.2813 13.0769 64.0488 13.9214 62.9407C14.7534 61.8202 15.6725 60.5005 15.9581 60.015C16.5915 58.9069 17.0758 58.4338 17.5602 58.4338C18.8766 58.4338 22.7017 55.4583 24.5148 53.0181C24.8129 52.6072 25.3097 51.9598 25.6077 51.5863C27.6817 49.0217 29.6067 45.1373 29.9047 42.9336C29.9172 42.7967 30.0041 42.4232 30.0662 42.1119C30.1407 41.8007 30.2525 41.1284 30.3021 40.6179C30.4139 39.4601 30.4263 34.4054 30.3146 33.6584C30.2773 33.3472 30.1655 32.5628 30.091 31.9154C29.8923 30.3467 29.3583 28.3796 28.7249 27.0101C28.5883 26.6989 28.4765 26.4001 28.4641 26.3503C28.4517 26.0764 27.5948 25.1053 27.1974 24.8812L26.7503 24.6322L26.4398 24.931C26.2659 25.1053 26.1169 25.3169 26.1169 25.4165C26.1169 25.5161 26.3901 25.9643 26.7254 26.425C27.5327 27.5081 28.1661 28.7407 28.4269 29.6993C28.5386 30.1351 28.6877 30.5335 28.7373 30.6082C28.787 30.6704 28.8491 30.9817 28.8864 31.2929C28.9857 32.2267 29.1099 33.0857 29.1844 33.2849C29.321 33.7082 29.2217 38.5512 29.0354 39.7215C28.6131 42.5726 27.9798 44.8758 27.1477 46.6064C26.1666 48.6357 23.7573 51.9349 21.7081 54.0265C20.8388 54.9229 18.8145 56.5663 18.5909 56.5663C18.268 56.5663 18.3053 56.3049 18.7151 55.7322C19.2492 54.9727 20.3296 52.8811 20.5904 52.0843C20.8512 51.2875 20.8015 50.5281 20.4786 50.5281C20.342 50.5281 20.1557 50.7024 20.0067 50.9638C19.8701 51.2004 19.6217 51.6735 19.4354 52.0096C18.9387 52.9185 18.653 53.4289 18.1687 54.2382C17.5229 55.3213 17.5353 55.2964 16.666 56.6286C16.2189 57.3133 15.7221 58.0977 15.5483 58.3716C14.592 59.9776 13.1141 61.6459 12.8161 61.4716C12.5553 61.3222 12.4683 45.4112 12.7167 43.5561C12.8533 42.5352 12.8657 42.3236 13.0769 39.9456C13.139 39.1862 13.2507 38.0906 13.3252 37.5054C13.3873 36.9078 13.4494 35.6753 13.4494 34.7664C13.4494 33.8452 13.5364 32.5379 13.6357 31.8532C13.7475 31.1684 13.8593 30.1351 13.8965 29.5499C13.9338 28.9648 14.0083 28.1555 14.0704 27.7447C14.1325 27.3338 14.2194 25.8772 14.2691 24.4952C14.3933 20.9221 14.1449 19.8887 12.8285 18.4819C12.4807 18.1208 12.2075 17.7225 12.2324 17.6229C12.2572 17.5108 12.4559 17.3739 12.6795 17.2992C13.0024 17.212 13.1886 17.2369 13.6109 17.461C13.8965 17.6104 14.2194 17.8594 14.3188 18.0213C14.4181 18.1831 14.6541 18.5442 14.8528 18.8305C15.0391 19.1044 15.275 19.6398 15.362 20.0008C15.5483 20.7229 15.6725 24.5326 15.5234 24.7816C15.4738 24.8687 15.511 25.1302 15.6104 25.3667C15.7718 25.7402 15.7594 25.8523 15.5855 26.3503C15.3992 26.8607 15.3992 26.923 15.5979 27.2342C15.7221 27.4085 15.9084 27.5579 16.0202 27.5579C16.1816 27.5579 16.2065 27.67 16.1444 28.2551C16.1071 28.6286 16.0202 29.0146 15.9581 29.0893C15.896 29.1764 15.7718 29.5126 15.6973 29.8612C15.6104 30.1973 15.4862 30.7327 15.4117 31.019C15.3247 31.4174 15.3247 31.6042 15.4241 31.7038C15.5979 31.8781 15.6973 31.7785 16.1941 30.8572C16.8647 29.6122 18.1066 27.7696 18.6406 27.2716C19.6341 26.3005 21.4349 26.3378 22.3539 27.3338C22.7513 27.7696 23.0494 28.9523 22.9625 29.7865C22.7886 31.517 22.7265 31.9154 22.6396 31.9154C22.5278 31.9154 22.3912 31.4672 22.3912 31.0688C22.3912 30.5957 21.9441 30.0853 21.1989 29.7242C19.9074 29.0893 18.7648 29.4628 17.3615 30.9443C16.9392 31.3801 16.5045 31.9528 16.3803 32.2142C15.9457 33.1479 15.4489 35.2645 15.2378 37.1444C15.2129 37.4556 15.1633 37.9038 15.1384 38.1404C14.977 39.597 14.828 41.6388 14.8776 41.7758C14.9025 41.8629 14.9646 42.6846 14.9894 43.5935C15.0142 44.5148 15.0763 45.2867 15.1136 45.3365C15.1509 45.3738 15.1881 45.9092 15.2005 46.5317C15.2005 48.6232 15.8587 51.7233 16.281 51.7108C16.5045 51.6984 18.3053 50.2542 19.2367 49.3454C20.4786 48.1252 21.497 46.7931 22.0062 45.7722C22.2173 45.3489 22.4409 44.9754 22.503 44.9381C22.5651 44.9007 22.5899 44.6891 22.5651 44.465C22.5526 44.2409 22.5278 44.0168 22.5278 43.967C22.503 43.8051 22.031 43.7304 21.7951 43.8549C21.6585 43.9296 21.3728 44.2782 21.1369 44.6393C20.5656 45.5606 19.4106 46.9923 18.2308 48.2124C17.6843 48.7851 17.1627 49.3329 17.0634 49.4325C16.9019 49.5943 16.8647 49.5943 16.7157 49.3951C16.6287 49.2706 16.5418 49.059 16.5418 48.922C16.5294 48.7726 16.4921 48.3743 16.4549 48.0381C16.4052 47.6895 16.3803 45.2618 16.3679 42.6224C16.3679 38.5014 16.4052 37.6424 16.6039 36.4596C16.7281 35.7002 16.8398 35.0279 16.8523 34.9657C16.8647 34.8909 16.9144 34.7664 16.964 34.6793C17.0261 34.6046 17.0386 34.4801 16.9889 34.4178C16.9516 34.3556 16.9765 34.2684 17.0386 34.2311C17.0882 34.1938 17.1752 33.9821 17.2248 33.758C17.4484 32.6002 18.2556 31.5419 19.274 31.0564C19.9322 30.7451 20.4041 30.7202 20.9133 30.9941C21.4225 31.2431 21.3356 31.517 20.6525 31.8781C19.8949 32.264 19.0008 33.2476 18.8145 33.8949C18.653 34.4054 18.6282 35.9741 18.7772 36.2106C18.8145 36.2729 18.8517 36.3849 18.8766 36.4596C19.3733 38.6882 20.2675 39.8958 21.5218 40.0452C22.4284 40.1573 22.9128 40.4934 23.2605 41.2778C23.422 41.6388 23.7573 42.3236 24.0305 42.7842C24.2913 43.2573 24.5024 43.7802 24.5024 43.9421C24.5024 44.1537 24.5769 44.2409 24.7384 44.2409C25.0116 44.2409 25.0985 44.1413 25.5829 43.2449C26.2535 42.0123 26.415 41.34 26.4274 39.6842V38.1777L27.1974 36.8829C28.0543 35.4263 28.2157 34.7914 27.9798 33.758C27.7686 32.8118 27.5203 32.2889 26.9987 31.7536C26.6013 31.3303 25.4463 30.6704 25.111 30.6704C25.0364 30.6704 24.8129 30.5584 24.6266 30.4214C24.3161 30.1973 24.2665 30.0853 24.192 29.1515C24.0926 28.0061 23.7945 27.0226 23.3723 26.425C22.9625 25.8398 21.6957 25.3045 20.4662 25.1924L19.4727 25.1053L20.6401 23.9723C21.4349 23.2129 22.0807 22.7024 22.6271 22.4285C23.3599 22.055 23.5586 22.0177 24.5024 22.0177C25.4463 22.0177 25.6326 22.055 26.2411 22.3912C27.2346 22.9265 29.0106 24.8314 29.3086 25.6531C29.4328 26.0266 30.2152 26.9354 30.4015 26.9354C30.6996 26.9354 30.712 26.7362 30.5133 25.8647C30.3021 24.9559 29.9172 24.0346 29.6315 23.8105C29.5446 23.7358 29.4701 23.5988 29.4701 23.5241C29.4701 23.1631 27.8928 21.7189 26.8372 21.1213C26.3653 20.8474 25.1606 20.5486 24.7881 20.6108C24.6639 20.6233 24.5148 20.6108 24.4403 20.5611C24.2416 20.449 22.9625 20.6606 22.4409 20.9097C20.814 21.6566 18.5288 23.9225 17.7713 25.5286C17.2248 26.6989 16.9516 26.3752 17.1007 24.7069C17.1627 23.935 17.2745 23.549 17.7216 22.6402C18.8021 20.3992 19.7459 19.3534 20.9382 19.0421C21.8199 18.8056 22.3663 18.7309 24.1299 18.5939C24.9123 18.5193 25.7816 18.457 26.0548 18.4321C26.9117 18.345 27.8804 17.8096 28.5883 17.0128C29.2465 16.2907 30.3518 14.5477 30.5257 13.975C30.5754 13.8132 30.6747 13.614 30.7368 13.5268C30.8734 13.3525 30.9107 11.5597 30.7989 10.8003C30.6871 10.1031 30.6002 9.87898 29.4825 7.57574C28.9485 6.48015 28.4144 5.33475 28.2778 5.0235C28.1536 4.71225 27.8928 4.2018 27.6941 3.86566C27.2346 3.11865 27.3091 2.86966 27.9425 2.9817C28.2033 3.01906 28.5883 3.14355 28.7994 3.24316ZM68.7392 3.33031C68.9504 3.49216 68.9255 4.02751 68.702 4.02751C68.6399 4.02751 68.5902 4.1022 68.5902 4.2018C68.5902 4.38855 67.5967 5.0733 67.0999 5.21025C66.777 5.29739 66.6528 5.3472 65.1501 5.9946C64.3429 6.3432 63.7468 6.40544 63.7468 6.144C63.7468 5.91989 65.1004 4.31386 65.5724 3.99016C66.479 3.34276 68.2797 2.96925 68.7392 3.33031ZM5.96073 3.59175C6.22153 3.69136 6.68103 4.06485 6.97909 4.41345C7.46344 4.98615 7.52553 5.11066 7.50069 5.60864C7.50069 5.91989 7.45102 6.2187 7.41376 6.28094C7.28957 6.4926 6.96667 6.39299 6.64378 6.0444C6.15943 5.5464 5.62541 5.18535 5.1659 5.09821C4.85543 5.0235 4.60705 5.09821 3.924 5.44679C3.46449 5.6958 2.93047 6.0195 2.74418 6.15645C1.86243 6.87854 1.99904 5.33475 2.93047 4.2267C3.16643 3.94035 3.55142 3.64156 3.78739 3.56685C4.39592 3.36766 5.43912 3.38011 5.96073 3.59175ZM91.8139 3.59175C91.8139 3.70381 91.7394 3.81586 91.64 3.85321C91.4413 3.9279 90.7831 4.86165 90.7459 5.13554C90.7086 5.3223 91.6276 7.27695 92.0747 7.98659C92.2237 8.21069 92.2982 8.47214 92.261 8.57173C92.112 8.97014 91.6897 8.72115 90.6217 7.63799C90.0131 7.01549 89.4791 6.5175 89.4294 6.5175C89.3798 6.5175 89.1935 6.45525 88.9948 6.3681C88.8085 6.2934 88.5104 6.20625 88.3366 6.18135C88.1627 6.15645 87.6659 6.08174 87.2188 6.0195C86.7717 5.95724 86.2874 5.93234 86.1384 5.9697C85.9769 6.0195 85.7534 6.00705 85.6416 5.95724C85.5174 5.895 85.3808 5.8701 85.3311 5.8701C85.269 5.88255 85.2318 5.83275 85.2318 5.77049C85.2318 5.6958 85.3063 5.646 85.3932 5.646C85.654 5.646 86.4861 5.16045 87.4051 4.46326C88.5974 3.56685 89.0196 3.4299 90.5471 3.41745C91.6028 3.40501 91.8139 3.4299 91.8139 3.59175ZM118.503 4.79941C118.453 6.74159 118.13 7.60065 117.248 8.13599C116.913 8.34764 116.627 8.50949 116.602 8.50949C116.578 8.50949 115.981 8.89543 115.274 9.36853C113.895 10.2774 112.678 11.4726 112.678 11.9208C112.678 11.9955 113.212 12.0951 114.23 12.1947C115.646 12.3316 116.056 12.3316 116.9 12.2196C119.186 11.8959 120.08 12.2196 120.862 13.614C121.036 13.9377 121.173 15.7056 121.048 16.0417C120.912 16.4028 120.651 16.2285 120.378 15.5686C120.229 15.22 119.968 14.7594 119.794 14.5602C119.459 14.1493 118.701 13.614 118.478 13.614C118.391 13.614 118.267 13.5642 118.192 13.4895C118.13 13.4272 114.851 13.365 109.822 13.3276L101.563 13.2903L100.631 12.9666C100.122 12.7923 99.3399 12.4935 98.8928 12.2818C97.4025 11.6095 97.328 11.5846 96.409 11.6718C95.788 11.734 95.5396 11.7216 95.5396 11.622C95.5396 11.2983 94.9932 10.738 94.4592 10.489C94.1487 10.3521 93.8755 10.2649 93.8258 10.3023C93.7885 10.3396 93.6892 10.3147 93.6022 10.24C93.4781 10.1404 93.3911 10.1529 93.2421 10.2898C92.9813 10.5637 93.0061 10.6509 93.5029 11.1364C94.2605 11.871 94.335 12.12 94.2605 13.6638C94.2108 14.4232 94.1859 15.0706 94.1735 15.0955C94.1735 15.22 93.5526 14.5602 93.5526 14.4357C93.5526 14.361 93.0558 13.8007 92.4473 13.1907L91.342 12.0951L90.8328 12.1822C90.5596 12.232 90.2988 12.3192 90.2491 12.3814C90.2118 12.4437 89.9138 12.4935 89.566 12.4935C88.2248 12.4935 87.7653 11.6718 88.6594 10.875C89.2059 10.3894 89.4418 10.3023 90.3857 10.2027C92.025 10.0159 92.5839 9.86653 93.0682 9.48059C93.3414 9.26894 93.5526 8.98259 93.5526 8.85809C93.5526 8.59663 94.633 7.45125 95.0677 7.2645C95.2291 7.18979 95.5769 7.00305 95.8501 6.85364C96.558 6.45525 98.098 6.24359 99.2654 6.38054C101.066 6.59219 101.699 7.02794 100.88 7.48859C100.669 7.60065 100.333 7.82474 100.16 7.97414C99.9732 8.13599 99.787 8.26048 99.7373 8.26048C99.7 8.26048 99.4889 8.49704 99.2778 8.78339C98.8928 9.31874 98.8804 9.31874 98.0483 9.33119C96.7567 9.35608 96.707 9.36853 96.409 9.60509C96.1854 9.77939 96.1357 9.91634 96.2103 10.1653C96.2848 10.5015 96.2972 10.5015 97.3776 10.5015C98.247 10.5015 98.6941 10.5762 99.5758 10.8625C100.197 11.0617 100.942 11.2485 101.252 11.2858C103.761 11.5971 104.469 11.6344 106.22 11.5722C108.977 11.4601 110.43 11.236 111.684 10.738C112.703 10.3396 114.181 9.50548 114.566 9.13199C114.665 9.03239 114.976 8.74603 115.236 8.49704C116.056 7.7625 116.838 6.642 117.261 5.58376C117.857 4.08975 118.118 3.66646 118.428 3.65401C118.49 3.65401 118.515 4.17691 118.503 4.79941ZM120.949 4.38855C121.707 4.73715 122.104 5.3223 122.141 6.15645C122.154 6.54239 122.092 6.9906 121.98 7.20224C121.806 7.57574 121.794 7.57574 120.812 7.57574C119.881 7.57574 119.819 7.56329 119.682 7.2645C119.471 6.7914 119.658 4.71225 119.943 4.401C120.216 4.1022 120.303 4.1022 120.949 4.38855ZM20.5283 5.94479C20.7519 6.23114 21.0251 7.38899 21.0375 8.13599C21.0499 9.31874 20.5283 10.3272 19.1746 11.7216C17.9824 12.9292 16.1941 14.0622 15.9954 13.726C15.9581 13.6638 16.0823 13.3774 16.281 13.0911C16.6039 12.6055 16.815 12.2071 17.734 10.1902C18.889 7.67534 19.9943 5.77049 20.2799 5.77049C20.3296 5.77049 20.4414 5.8452 20.5283 5.94479ZM9.73613 6.8412C9.99693 7.01549 10.295 7.36409 10.4192 7.6131C10.9656 8.82074 11.7232 9.03239 13.4743 8.49704C14.4554 8.19824 14.5672 8.19824 14.5672 8.52194C14.5672 8.89543 14.0828 9.89143 13.7723 10.1404C13.3998 10.4517 12.6422 10.4268 11.8971 10.0782C10.8538 9.59264 9.10276 7.47614 9.10276 6.71669C9.10276 6.44279 9.20211 6.4677 9.73613 6.8412ZM59.3504 7.45125C59.3628 7.72514 59.3256 7.99904 59.2883 8.07375C59.251 8.13599 59.2138 8.2356 59.2138 8.28539C59.2138 8.59663 58.0588 9.79184 57.5 10.0906C56.7921 10.4517 55.7116 10.5388 55.3887 10.2774C55.2273 10.1404 55.2273 10.0657 55.4135 9.58018C55.8606 8.38499 56.1339 8.13599 57.7856 7.42635C58.0216 7.3143 58.3941 7.16489 58.5928 7.06529C59.1641 6.80385 59.338 6.89099 59.3504 7.45125ZM24.2789 7.56329C25.5208 7.9119 25.6201 7.96169 25.6201 8.21069C25.6201 8.62154 24.7508 9.20668 23.8194 9.43079C22.9997 9.62999 22.8879 9.69223 22.5278 10.1902C22.3167 10.489 22.1428 10.7629 22.1428 10.7878C22.1428 10.8252 22.0807 11.0119 22.0062 11.2111C21.9193 11.3979 21.8447 11.6469 21.8323 11.7465C21.8075 11.8461 21.6957 12.3192 21.5839 12.8047C21.3231 13.9128 21.1865 16.4152 21.3728 16.6393C21.6212 16.9381 21.2735 17.3739 20.6525 17.5233C19.957 17.71 19.7956 17.7971 19.1995 18.3574C18.4916 19.0297 18.1439 19.453 17.6719 20.2374C17.436 20.6357 17.1752 20.9594 17.1007 20.9594C17.0261 20.9594 16.8895 20.698 16.815 20.3618C16.4797 19.0546 16.3928 18.7558 16.1568 18.2578C16.0202 17.9715 15.5731 17.3739 15.1633 16.9257C14.7286 16.4401 14.443 16.0168 14.4678 15.8923C14.4926 15.7429 14.8652 15.5686 15.6849 15.2947C17.051 14.859 17.6098 14.61 18.504 14.0373C19.8701 13.1658 21.5839 11.0617 22.0807 9.65489C22.1925 9.33119 22.3291 8.98259 22.3912 8.88298C22.4409 8.77094 22.5278 8.43478 22.5651 8.13599C22.7141 7.23959 22.7638 7.1151 22.9873 7.18979C23.1115 7.22714 23.6828 7.38899 24.2789 7.56329ZM8.66809 8.64644C9.3884 9.90388 9.98451 10.5637 10.9035 11.1115C11.4872 11.4601 11.748 11.5473 12.5304 11.5971C13.052 11.6344 13.7723 11.5846 14.207 11.4975C14.8155 11.3605 15.0018 11.3605 15.2502 11.4975C15.4241 11.5846 15.5607 11.7091 15.5607 11.7714C15.5607 11.8336 15.0888 12.3939 14.5175 13.0288C13.9462 13.6638 13.437 14.3236 13.3873 14.4855C13.2756 14.8465 12.9899 15.1453 12.8533 15.0582C12.7912 15.0208 12.5056 14.9835 12.1951 14.971C11.4996 14.9337 10.2577 14.473 9.42565 13.9377C8.30793 13.228 7.62488 11.8959 7.79875 10.7754C7.84843 10.4641 7.87327 9.64244 7.87327 8.93279C7.86085 8.22314 7.91052 7.63799 7.97262 7.63799C8.03471 7.63799 8.34519 8.09863 8.66809 8.64644ZM113.274 7.9368C113.473 8.13599 113.46 8.17334 113.113 8.45969C112.914 8.63399 112.417 8.93279 112.032 9.13199C111.225 9.55528 108.915 10.24 108.232 10.2649C107.984 10.2774 107.276 10.3396 106.655 10.4019C104.966 10.5886 101.153 10.2276 100.594 9.81674C100.284 9.59264 100.395 9.15689 100.855 8.88298C101.079 8.74603 101.252 8.65889 101.252 8.69624C101.252 8.73358 101.513 8.5593 101.824 8.32274C102.134 8.0862 102.507 7.86209 102.656 7.82474C102.805 7.79984 103.041 7.75005 103.177 7.71269C103.314 7.67534 105.599 7.66289 108.244 7.68779C112.603 7.72514 113.088 7.75005 113.274 7.9368ZM17.2994 7.83719C17.2994 8.0862 16.6908 9.28139 16.3431 9.71713C15.6228 10.6135 15.2999 10.4019 15.6849 9.29384C15.8215 8.90788 15.9333 8.44724 15.9333 8.29784C15.9333 8.11108 16.0326 7.96169 16.2189 7.88699C16.5294 7.7625 17.2994 7.72514 17.2994 7.83719ZM28.3648 8.09863C28.5511 8.32274 29.0851 9.39343 29.3335 10.0782C29.5943 10.7629 29.6936 12.2569 29.5073 12.7176C29.2962 13.2405 29.1472 13.1409 29.0354 12.4063C28.9857 12.0702 28.8739 11.622 28.7746 11.3854C28.6752 11.1613 28.6007 10.8501 28.6007 10.6882C28.6007 10.5388 28.5635 10.377 28.5138 10.3272C28.4641 10.2898 28.4144 10.1529 28.402 10.0533C28.3896 9.94124 28.2282 9.55528 28.0543 9.19423C27.7935 8.62154 27.7686 8.48459 27.8928 8.21069C28.0667 7.82474 28.1288 7.81229 28.3648 8.09863ZM54.2462 8.02394C54.4076 8.19824 54.3579 9.14444 54.1841 9.25648C54.0723 9.33119 49.9864 9.38098 44.1743 9.38098H34.3383L34.1148 9.03239C33.8167 8.59663 33.7795 8.03639 34.0527 7.96169C34.3632 7.87454 54.1468 7.9368 54.2462 8.02394ZM77.9045 8.84564C78.7614 9.01994 79.5438 9.20668 79.6556 9.26894C79.7674 9.31874 79.8916 9.34364 79.9288 9.29384C79.9785 9.25648 80.0779 9.28139 80.1648 9.34364C80.2517 9.41833 80.7112 9.56773 81.1707 9.69223C81.6302 9.81674 81.9904 9.97858 81.9656 10.0408C81.9283 10.1778 80.587 10.7007 80.2517 10.7131C80.1648 10.7256 79.6556 10.8127 79.1464 10.9123C78.6372 11.0244 78.1777 11.0742 78.1281 11.0493C78.0784 11.0119 77.9294 11.0368 77.8176 11.0991C77.5692 11.236 75.6442 11.4103 74.8618 11.373C73.6323 11.3232 72.8251 11.2485 72.1296 11.124C71.7198 11.0493 71.2727 10.9746 71.1361 10.9497C70.3413 10.8127 69.1615 10.4392 68.9379 10.2525C68.6771 10.0533 68.702 10.0284 69.8445 9.59264C71.1237 9.09464 72.999 8.5593 73.682 8.47214C74.5638 8.37254 76.4018 8.53439 77.9045 8.84564ZM120.167 9.00749C120.353 9.00749 120.241 9.34364 119.98 9.58018C119.558 9.94124 119.186 10.1155 118.093 10.5264C116.106 11.2734 114.913 11.485 114.913 11.0866C114.926 10.9248 116.751 9.77939 117.819 9.26894C118.627 8.88298 119.099 8.78339 119.633 8.90788C119.869 8.95769 120.105 9.00749 120.167 9.00749ZM26.5516 9.58018C26.8745 9.70468 27.4954 11.0991 27.6817 12.12C27.7686 12.6304 27.8432 13.5766 27.8556 14.1991C27.8556 15.2698 27.8307 15.3943 27.483 15.9421C27.2843 16.2783 26.9117 16.6767 26.6509 16.851C26.3901 17.0253 26.1417 17.212 26.0921 17.2867C25.8934 17.5606 25.6326 16.9257 25.7071 16.3156C25.794 15.6184 25.645 15.2574 25.0116 14.5726C24.2789 13.8007 23.6455 13.9875 23.3102 15.0955C23.1115 15.7803 23.1736 16.0168 23.6703 16.5771C24.0429 16.9755 23.7945 17.1871 23.2729 16.9132C22.6892 16.6144 22.6023 16.2534 22.6892 14.4855C22.8134 11.8585 23.3723 10.626 24.4403 10.626C24.9868 10.626 25.8561 10.1778 26.0176 9.81674C26.1666 9.48059 26.2287 9.45569 26.5516 9.58018ZM53.3892 10.7629C53.4886 10.8376 53.5631 11.0119 53.5631 11.1489C53.5631 11.4352 52.9173 12.0951 52.5323 12.1822C50.9799 12.5308 49.3158 12.6055 42.7337 12.6055C37.1326 12.6055 35.543 12.6429 34.5371 12.8047C34.1893 12.8545 34.1893 12.8545 34.1893 12.2071C34.1893 11.373 34.4004 10.9746 34.9345 10.7878C35.543 10.5886 53.1409 10.5637 53.3892 10.7629ZM68.317 11.4477C69.8321 11.9581 69.7949 11.9457 71.1982 12.1822C72.5643 12.4063 76.2652 12.5059 77.7803 12.3565C79.7798 12.1573 81.6054 11.7589 82.5989 11.2983C83.3813 10.9372 83.3689 10.9372 83.3689 11.2236C83.3689 11.6095 82.6734 12.5682 82.1767 12.8794C81.6675 13.1907 81.6054 13.2031 80.823 13.3027C80.5498 13.3401 79.8543 13.477 79.2706 13.614C77.6686 13.975 77.5444 13.9999 76.4142 14.0622C74.9736 14.1618 74.837 14.1493 74.4893 13.9128C74.2409 13.7509 74.1415 13.7385 74.0049 13.863C73.6448 14.1493 74.1788 14.8714 74.986 15.1827C75.6567 15.4317 77.2215 15.357 78.5255 15.0084C79.0347 14.859 79.6059 14.722 79.8046 14.6847C79.9909 14.6598 80.2393 14.5975 80.3635 14.5602C80.4753 14.5228 80.7733 14.4606 81.0093 14.4357C81.2453 14.3983 81.7048 14.3361 82.0152 14.2987C83.0088 14.1493 84.6108 14.6349 85.3808 15.3196C85.7037 15.606 86.2253 16.5397 86.2253 16.8385C86.2253 17.1996 85.2939 17.7723 84.3873 17.9839C84.2879 18.0088 84.1637 18.0462 83.7167 18.208C83.3068 18.3574 83.0336 18.9052 82.6859 20.3245C82.512 20.9968 82.3505 21.3952 82.2512 21.3952C82.0277 21.3952 81.6302 20.5735 81.0714 18.9675C80.6367 17.6976 80.1027 16.602 79.9164 16.602C79.8667 16.602 79.6929 16.6891 79.5438 16.8012C79.283 16.9755 79.2085 16.9755 78.6372 16.7763C78.0287 16.5522 78.0039 16.5522 77.8424 16.7638C77.681 16.9879 77.7431 17.4859 77.979 17.8719C78.0784 18.0337 78.0535 19.8514 77.9542 19.951C77.8797 20.0381 77.296 19.3161 77.2836 19.1293C77.2836 18.8803 74.7749 16.602 73.7317 15.8923C72.912 15.3445 72.4277 15.1329 71.1237 14.7345C69.8445 14.3485 67.5097 13.5393 66.2306 13.0288C66.1312 12.9915 65.5724 12.9417 64.9887 12.9292C64.405 12.9168 63.9082 12.8919 63.8709 12.8794C63.8337 12.867 63.6474 12.8296 63.4487 12.8047C62.9768 12.7425 62.6415 12.4312 62.8402 12.232C62.9271 12.1449 63.4735 11.8461 64.0821 11.5473C65.5724 10.8252 66.4169 10.8003 68.317 11.4477ZM98.8307 13.365C101.054 14.2489 101.476 14.5353 102.084 15.5686C102.42 16.1538 102.718 17.1622 102.643 17.4984C102.556 17.9465 101.762 17.6229 101.737 17.1249C101.737 17.0128 101.55 16.5771 101.339 16.1662C100.631 14.8465 99.1908 14.2738 98.4209 15.0208C98.0855 15.3445 97.9241 15.8425 97.5888 17.5606C97.477 18.1084 97.3404 18.1582 96.9057 17.847C96.4711 17.5357 95.6141 15.8301 95.4651 14.9835C95.3161 14.0995 95.3906 13.8381 95.9246 13.3152C96.409 12.8545 96.4462 12.8421 97.1293 12.9043C97.5143 12.9417 98.2842 13.1409 98.8307 13.365ZM61.412 13.3774C61.6728 13.4397 62.0329 13.6389 62.2192 13.8007C62.5545 14.0871 62.5545 14.0995 62.331 14.3361C62.0702 14.6473 61.1263 14.9835 60.5923 14.9835C60.0955 14.971 58.5928 14.224 58.5928 13.9875C58.5928 13.7385 59.8223 13.2529 60.4557 13.2405C60.7289 13.2405 61.1636 13.3027 61.412 13.3774ZM48.1235 13.9252C50.2348 14.0124 50.4459 14.0373 50.4956 14.2489C50.5328 14.3859 50.508 14.5228 50.4459 14.5602C50.3838 14.5975 50.3341 14.7096 50.3341 14.8216C50.3341 15.1204 49.0674 16.963 48.3347 17.7349C47.6144 18.4944 47.1052 18.8927 46.2358 19.3658C45.441 19.8016 44.2736 20.449 43.6899 20.7727C43.4167 20.9221 42.9199 21.2085 42.5722 21.3952C41.2434 22.1297 38.4863 24.2462 37.2196 25.5037C36.8718 25.8398 36.4372 26.2631 36.2633 26.4125L35.9528 26.7113L35.8038 26.4374C35.7293 26.3005 35.6051 25.8274 35.543 25.4041C35.4312 24.7069 35.2201 23.8976 34.239 20.4614C33.8416 19.0546 33.8292 18.2952 34.1893 17.6602C34.8103 16.5646 36.4248 14.3361 36.7849 14.0871C37.0581 13.8879 44.4475 13.7883 48.1235 13.9252ZM71.8192 16.1911C72.5271 16.4401 73.3343 16.9879 73.7193 17.4859C73.9801 17.8221 74.0049 17.9341 73.918 18.5691C73.8683 18.955 73.7938 19.6149 73.7565 20.0257C73.6448 21.1711 73.5827 21.4574 73.1853 22.304C72.7009 23.3498 71.2727 24.8189 70.7511 24.8189H70.391L70.7263 24.5948C71.074 24.3583 71.8192 23.4868 71.8192 23.3125C71.8192 23.2502 71.9558 22.9141 72.1296 22.553C72.3656 22.055 72.4277 21.7438 72.4029 21.1835C72.378 20.4988 72.4029 20.4366 72.7878 20.1377C73.5827 19.5028 73.1853 19.4156 71.8813 19.9261C71.1734 20.2124 70.8381 20.449 70.0184 21.2582C69.472 21.806 68.6896 22.4908 68.2797 22.802C67.8699 23.1008 67.5097 23.3872 67.4725 23.437C67.2986 23.6984 65.3488 25.0679 64.8272 25.3045C63.8958 25.7278 63.5729 25.7527 63.0761 25.4414C62.8277 25.292 62.629 25.1053 62.629 25.0181C62.629 24.8563 63.1382 24.5575 63.5356 24.4828C63.784 24.4454 64.7775 24.0221 65.1998 23.7856C65.5351 23.5988 66.2678 23.0261 66.9136 22.441C68.1059 21.3578 70.1302 20.1626 71.3224 19.8389C71.9185 19.6771 72.4401 19.0795 72.4401 18.5691C72.4401 18.0835 71.8067 17.4735 70.6766 16.9008C69.7079 16.4152 69.621 16.3156 69.9936 16.1289C70.6021 15.8301 70.8132 15.8425 71.8192 16.1911ZM99.6628 16.0666C100.073 16.5397 100.52 17.6602 100.545 18.2827C100.557 18.9675 100.16 20.0008 99.5758 20.7602C99.2281 21.2209 98.5202 21.6317 98.3588 21.4699C98.2967 21.4076 98.3463 21.0092 98.4581 20.5735C98.5947 20.0755 98.6444 19.5152 98.6071 19.0919C98.5699 18.7185 98.5947 18.096 98.6568 17.7225C98.7189 17.349 98.8058 16.8634 98.8431 16.6393C98.9052 16.2534 99.1784 15.855 99.3771 15.855C99.4268 15.855 99.5634 15.9546 99.6628 16.0666ZM70.6145 23.051C70.2668 23.6113 69.9687 23.798 69.8694 23.4992C69.8445 23.4245 70.0556 23.0635 70.3537 22.69C70.7635 22.1671 70.8877 22.0675 70.925 22.2418C70.9498 22.3663 70.8132 22.7398 70.6145 23.051ZM9.23937 22.6153C9.35114 22.7024 9.51259 23.1382 9.62436 23.5864L9.79823 24.4081L9.43807 24.5699C9.23937 24.6571 9.04066 24.682 8.97857 24.6197C8.92889 24.5575 8.84196 24.047 8.79228 23.4743C8.70535 22.4036 8.77986 22.2542 9.23937 22.6153ZM10.0466 26.0639C10.4192 26.2133 10.7048 26.5246 10.7172 26.786C10.7172 26.8856 10.531 27.1595 10.295 27.4085C9.20211 28.5664 8.70535 29.3507 8.18374 30.6953C8.00988 31.1311 7.98504 31.1435 7.30199 31.1933C6.3333 31.2431 6.13459 31.0439 5.76202 29.6495C5.43912 28.4543 5.46396 27.9937 5.89863 27.3712C6.10976 27.0475 7.02877 26.3752 7.14054 26.4499C7.16538 26.4748 7.31441 26.4001 7.48827 26.3129C8.14649 25.9519 9.42565 25.8274 10.0466 26.0639ZM12.3069 27.7073C12.7043 28.1057 12.4187 28.778 11.4624 29.774C11.0277 30.2098 10.68 30.7078 10.5806 30.9941C10.3819 31.6664 10.2826 34.5548 10.4564 35.0403C10.6303 35.5383 10.5185 35.7251 10.2081 35.4512C9.92242 35.1897 9.62436 34.6295 9.42565 33.9697C9.28904 33.4966 9.25179 31.8158 9.37598 31.4174C9.40081 31.3178 9.51259 30.9817 9.59952 30.6704C9.81064 30.0106 10.2205 29.413 11.1892 28.3298C11.9219 27.533 12.0585 27.4583 12.3069 27.7073ZM12.282 32.5628C12.2324 33.2724 12.1703 34.0941 12.1454 34.4054C12.1206 34.7166 12.0958 35.2395 12.0958 35.5882L12.0833 36.1982L11.8101 35.9243C11.5369 35.6628 11.5245 35.5383 11.5245 33.9946C11.5245 32.5379 11.5617 32.2765 11.8225 31.6913C12.2448 30.7451 12.3814 31.0066 12.282 32.5628ZM25.0489 31.8532C25.943 32.4632 26.7379 33.5464 26.7379 34.1564C26.7379 34.5548 26.2535 35.6006 25.6574 36.5468C25.0613 37.4681 25.0737 37.4307 25.1855 39.5099C25.2724 41.228 25.1731 41.5268 24.6639 40.9292C24.0678 40.2195 23.0991 38.3769 22.9625 37.7046C22.7638 36.7584 22.7638 35.8496 22.9376 34.4926C23.1115 33.1106 23.1487 32.9861 23.6455 32.2889C23.9312 31.8656 24.254 31.5419 24.3782 31.5419C24.49 31.5419 24.8005 31.6789 25.0489 31.8532ZM21.5467 33.2476C21.7206 33.4343 21.7454 33.8825 21.733 36.0488C21.7206 38.5637 21.7081 38.6384 21.4598 38.6384C20.8264 38.6384 20.1433 36.8207 20.1185 35.0901C20.0937 34.0568 20.1185 33.9323 20.4041 33.5713C20.578 33.3596 20.8264 33.1604 20.963 33.123C21.0996 33.0982 21.2486 33.0608 21.2859 33.0484C21.3231 33.0484 21.4473 33.1355 21.5467 33.2476ZM50.5204 33.6086C51.1911 33.9572 51.2904 34.1689 51.0048 34.5672C50.6943 34.9905 50.2845 35.0901 47.6889 35.4014C45.5155 35.6628 44.8076 35.6753 43.5533 35.4138C42.6964 35.2395 42.2121 35.3765 42.1624 35.8122C42.0754 36.5094 43.5533 36.9203 46.0371 36.8954C48.0987 36.8705 47.9373 36.858 48.0987 37.1568C48.285 37.493 48.3719 38.6384 48.2229 38.6384C48.1484 38.6384 48.0987 38.7006 48.0987 38.7878C48.0987 38.8625 47.7634 39.3356 47.3536 39.846C46.9437 40.344 46.6084 40.8047 46.6084 40.8794C46.6084 40.9416 46.5463 41.0039 46.4718 41.0039C46.3849 41.0039 46.3724 41.091 46.4221 41.2155C46.4718 41.34 46.5215 41.9003 46.5587 42.473C46.596 43.2573 46.5587 43.6059 46.4097 43.9047C45.8881 44.9256 45.5031 44.9879 45.0188 44.1537C44.5344 43.3071 43.6278 42.3734 42.8454 41.9003C42.2369 41.5392 42.0258 41.477 41.0695 41.4147C39.8152 41.3525 39.4674 41.1657 38.9458 40.2569C38.4863 39.485 38.4491 38.3645 38.8589 37.5179C39.1321 36.9452 39.7903 36.4223 41.0571 35.7749C41.3924 35.613 42.1003 34.8785 42.5225 34.2684C42.7088 34.007 42.7461 33.9946 42.9448 34.1564C43.0938 34.2809 43.5533 34.3556 44.373 34.3805C45.4907 34.4303 45.677 34.4054 46.6829 34.0319C47.2915 33.8203 47.9 33.5961 48.0366 33.5339C48.7445 33.2227 49.8374 33.26 50.5204 33.6086ZM52.2839 36.0488C52.433 36.2106 52.4826 36.4845 52.4578 37.0572C52.4454 37.7544 52.3833 37.9163 51.8493 38.6882C51.2531 39.5721 50.8557 40.5432 50.8433 41.1533C50.8309 41.3276 50.6819 41.6637 50.4956 41.8878L50.1603 42.2862L49.1171 42.1991C48.5334 42.1617 48.0242 42.087 47.9621 42.0497C47.7137 41.9003 47.8752 41.3649 48.285 40.9292C48.5334 40.6802 48.7693 40.5059 48.8066 40.5557C48.8438 40.593 48.7569 40.73 48.6203 40.8669C48.2353 41.1906 48.285 41.4272 48.7569 41.6015C49.4524 41.8505 49.5642 41.8007 49.8995 41.0661C50.0733 40.6802 50.2099 40.3316 50.2099 40.2818C50.2099 40.232 50.4335 39.7464 50.7067 39.1986C50.9799 38.6508 51.2407 37.9661 51.278 37.6797C51.3525 37.1817 51.3401 37.1444 50.9054 36.8829C50.2596 36.5094 50.3466 36.1484 51.1662 35.8994C51.6754 35.75 52.0604 35.7998 52.2839 36.0488ZM50.0237 37.7669C50.123 38.0906 49.9616 38.6384 49.6759 38.9247L49.4275 39.1737L49.5021 38.7629C49.5517 38.5388 49.589 38.1404 49.589 37.8789C49.589 37.5054 49.6262 37.4183 49.7753 37.4681C49.8746 37.5054 49.9864 37.6424 50.0237 37.7669ZM10.5806 41.1035C11.1395 41.5143 11.0401 41.6139 10.1087 41.5517C9.63678 41.5268 9.11518 41.4521 8.96615 41.4023C8.70535 41.3027 8.70535 41.2902 9.11518 41.0288C9.59952 40.73 10.1087 40.7549 10.5806 41.1035ZM42.2369 42.9212C42.6591 43.1453 42.9945 43.5312 43.367 44.216C43.6899 44.8136 43.6402 44.9256 42.8578 45.2867C42.5101 45.461 42.3487 45.4734 42.15 45.3614C42.0009 45.2867 41.8892 45.1871 41.8767 45.1373C41.8643 45.0875 41.8519 44.8758 41.8271 44.6517C41.8146 44.4276 41.7525 44.1537 41.7029 44.0292C41.6532 43.9047 41.5787 43.5686 41.5538 43.2698C41.4917 42.6846 41.6408 42.6099 42.2369 42.9212ZM29.0975 60.5877C30.476 60.9487 31.8545 61.5836 32.8853 62.3555C34.0651 63.2395 34.1024 63.6379 32.9847 63.4885C32.0036 63.3515 31.3205 63.3889 31.0845 63.6005C30.9728 63.7001 30.7741 64.1359 30.6499 64.5467C30.24 65.9038 29.7557 66.2275 29.172 65.5178C28.8491 65.1319 28.7746 64.9451 28.6752 64.1608C28.5759 63.3266 28.1164 62.5174 27.5699 62.2061C27.2843 62.0443 26.1542 61.9945 25.8064 62.119C25.3221 62.3058 25.0737 63.4387 25.3593 64.1982C25.6947 65.0696 24.9619 66.0656 23.5213 66.7379C22.0807 67.3978 21.9814 67.4351 21.6212 67.4849C21.3728 67.5098 21.2238 67.4351 21.0872 67.2359C20.9257 66.9869 20.9257 66.8126 21.0996 65.717C21.1989 65.0323 21.3231 64.2728 21.3604 64.0114C21.4101 63.6379 21.3852 63.5383 21.1617 63.4263C20.9382 63.3017 20.8636 63.3391 20.5283 63.8122C20.3172 64.0985 20.044 64.5716 19.9198 64.858C19.7956 65.1443 19.4851 65.6921 19.2367 66.0781C18.9884 66.464 18.7896 66.8126 18.7896 66.85C18.7896 66.8749 18.5785 67.1986 18.3177 67.5596C17.5353 68.6054 15.1136 72.191 14.058 73.8344C11.9467 77.1337 11.1643 79.1381 10.9035 81.902C10.8538 82.3751 10.7918 82.9727 10.7545 83.2092C10.6551 83.9064 10.6924 85.7117 10.829 86.3217C11.1271 87.629 11.1519 89.4342 10.8663 89.4342C10.68 89.4342 10.2577 88.5876 10.0093 87.6912C9.59952 86.2346 9.46291 84.6161 9.66162 83.5454C9.74855 83.0474 9.8479 82.1759 9.88516 81.5907C9.98451 80.0345 10.295 78.6276 10.8663 77.1087C11.2885 75.9883 12.0585 74.3822 12.4559 73.8095C12.667 73.5107 12.8285 73.2368 12.8285 73.1995C12.8285 73.0252 14.7038 70.3733 15.9208 68.8544C17.4484 66.9371 17.7713 66.4391 18.504 64.9078C18.7772 64.3226 19.1374 63.7251 19.2988 63.5757C20.5532 62.4303 21.0499 62.0567 22.0186 61.5214C23.4468 60.7371 24.8377 60.4009 26.8621 60.3262C27.6693 60.3013 28.2033 60.3636 29.0975 60.5877ZM26.9117 71.7926C27.1725 71.9794 27.334 73.2368 27.3712 75.2413C27.4085 77.1337 27.6196 77.3826 28.3399 76.3867C28.7994 75.7642 31.1839 73.5481 31.2833 73.6601C31.5192 73.8967 31.1342 75.7144 30.8237 75.8389C30.7616 75.8638 30.712 75.9633 30.712 76.0505C30.712 76.5485 28.1909 78.5529 26.8 79.163C25.8189 79.5987 24.9868 79.7606 24.5645 79.5987L24.2168 79.4618L24.5148 79.2501C25.3593 78.665 25.8437 77.8557 26.0424 76.673C26.179 75.9509 26.1169 73.7971 25.9679 73.1248C25.8313 72.5521 25.7568 72.4276 25.5084 72.4027C25.3469 72.3778 25.1606 72.4276 25.111 72.5272C25.0489 72.6143 24.9992 73.5979 24.9992 74.7059C24.9992 75.9883 24.9495 76.8473 24.8502 77.0714C24.6887 77.4449 24.2665 77.9802 24.1299 77.9802C24.0802 77.9802 24.0305 77.6565 24.0181 77.2581C23.9684 75.5152 23.7573 75.0172 22.652 73.934C22.3663 73.6726 22.1428 73.3862 22.1428 73.3115C22.1428 72.9629 23.1239 72.2906 24.254 71.8673C24.9495 71.6059 26.5888 71.5561 26.9117 71.7926ZM22.1676 75.2039C22.3042 75.3284 22.3912 75.5774 22.3912 75.8638C22.3912 76.2497 22.3042 76.4115 21.8944 76.785C21.2859 77.3329 20.9878 77.4075 19.808 77.3204C18.8766 77.2457 18.3426 76.9967 18.6034 76.7477C18.7896 76.5734 21.733 74.9923 21.882 74.9923C21.9193 74.9923 22.0434 75.0794 22.1676 75.2039ZM13.3377 79.1754C13.586 79.5863 13.8593 80.1341 13.9462 80.3955C14.1325 80.9682 14.5175 81.4538 14.9149 81.6032C15.1384 81.6903 15.2999 81.653 15.5483 81.4787C16.2437 80.9807 17.5229 81.1799 17.7837 81.8273C17.9079 82.1012 17.8831 82.263 17.6968 82.7112C17.5602 83.0225 17.3615 83.5329 17.2497 83.8566C17.1379 84.1679 16.964 84.4916 16.8771 84.5663C16.7032 84.7157 15.7221 84.3795 14.8528 83.8815C14.3188 83.5578 14.0704 83.5703 14.0704 83.9189C14.0704 84.3671 14.6044 84.89 16.5542 86.3217C16.8895 86.5583 17.5229 87.1932 17.9824 87.7161C19.0132 88.9238 19.2243 88.9736 19.125 87.9651C19.0256 87.0812 18.6034 85.8113 18.3301 85.6121C18.1439 85.4627 18.1563 85.4004 18.4419 84.8028C18.6282 84.4418 18.8145 84.006 18.8517 83.8317C18.9014 83.6574 19.2864 82.9851 19.7211 82.3377C20.1433 81.6903 20.727 80.7566 21.0127 80.2586C21.6088 79.2501 21.6957 79.1505 22.1801 79.0385C22.503 78.9513 22.5154 78.9638 22.5154 79.412C22.5154 80.022 22.267 80.5325 21.2486 82.0514C20.7891 82.7486 20.4041 83.4333 20.4041 83.5703C20.4041 83.7321 20.6028 83.9687 20.9257 84.2052C21.6088 84.7032 22.1552 85.3755 22.4781 86.135C22.9252 87.1434 23.2729 88.6001 23.335 89.7579C23.422 91.1149 23.2481 91.5507 22.2049 92.6712C21.7951 93.1194 21.2735 93.7045 21.0499 93.9784C20.4786 94.6881 20.3793 94.4764 20.6028 92.9824C20.7022 92.2977 20.7767 91.5383 20.7767 91.3017C20.7643 91.0652 20.7643 90.841 20.7643 90.8037C20.7891 90.729 20.8761 88.9985 20.9009 88.0025C20.9382 86.4462 20.9009 85.9731 20.7022 85.7739C20.429 85.4876 20.3048 85.5249 20.0316 85.9731C19.8204 86.3217 19.7832 86.5956 19.7956 87.7784C19.808 88.5378 19.7832 89.2101 19.7459 89.2724C19.7087 89.3222 19.6466 89.733 19.6093 90.1812C19.5845 90.6294 19.4851 91.2643 19.423 91.588C19.3485 91.9117 19.2492 92.584 19.2119 93.0696C19.1746 93.5676 19.1001 94.2025 19.038 94.4764C18.9759 94.7503 18.9014 95.4724 18.8517 96.0949C18.8145 96.705 18.7151 97.6761 18.6406 98.2488C18.3922 100.054 18.9759 99.9046 19.7087 97.9624C19.9074 97.4395 20.1185 96.9913 20.1682 96.954C20.2303 96.9166 20.2799 96.7921 20.2799 96.6676C20.2799 96.4435 21.0748 95.6218 21.4225 95.4973C21.5343 95.46 21.8075 95.1612 22.0186 94.825C22.2422 94.5013 22.7141 93.9286 23.0618 93.5676C23.5958 93.0198 23.7573 92.9202 24.1547 92.9202C24.4031 92.9202 24.639 92.97 24.6887 93.0322C24.726 93.1069 24.8502 93.1443 24.9744 93.1318C25.3718 93.1069 26.8 93.8913 27.4706 94.4889L28.1288 95.0865L28.0791 97.1034C28.0667 98.2114 28.0046 99.1701 27.9549 99.2199C27.8059 99.3568 27.3961 98.9211 26.9862 98.2239C26.7875 97.8753 26.4025 97.3524 26.1293 97.0536C25.8561 96.7548 25.5332 96.3688 25.409 96.1945C24.9868 95.6218 23.3475 94.2897 23.0618 94.2897C22.7389 94.2897 22.3291 94.9246 22.4409 95.2483C22.6147 95.6841 21.5094 97.1905 19.2864 99.5809C18.1811 100.789 17.6719 101.386 17.6719 101.523C17.6719 101.585 17.585 101.673 17.4856 101.71C17.3863 101.76 17.2994 101.872 17.2994 101.959C17.2994 102.058 17.2248 102.171 17.1255 102.208C17.0386 102.245 16.7778 102.556 16.5418 102.918C16.3182 103.279 16.1071 103.59 16.0574 103.627C15.9581 103.714 15.3123 104.735 15.3123 104.797C15.3123 104.835 15.1757 105.071 15.0018 105.333C14.741 105.706 13.1017 108.943 12.1454 110.973C11.7108 111.869 10.7172 114.471 10.7172 114.683C10.7172 114.807 10.6551 114.969 10.5682 115.056C10.4813 115.143 10.4689 115.206 10.5185 115.206C10.5806 115.206 10.5682 115.28 10.4937 115.367C10.4192 115.455 10.3198 115.716 10.2826 115.953C10.2453 116.189 10.1335 116.637 10.0342 116.949C9.93484 117.26 9.62436 118.38 9.35114 119.439C9.07792 120.497 8.71776 121.866 8.55632 122.476C8.38245 123.074 8.221 123.759 8.18374 123.983C8.14649 124.207 8.05955 124.518 7.99746 124.692C7.73666 125.377 7.50069 127.88 7.41376 130.706C7.31441 134.042 7.31441 133.943 7.4386 134.403C7.52553 134.764 7.36408 134.877 7.15296 134.59C6.84248 134.204 6.2712 132.187 6.17185 131.142C6.09734 130.307 6.30846 128.552 6.70587 126.846C6.81764 126.361 6.90458 125.925 6.89216 125.863C6.86732 125.813 6.917 125.688 7.00393 125.589C7.07844 125.489 7.10328 125.327 7.06603 125.215C7.01635 125.103 7.04119 124.941 7.10328 124.867C7.1778 124.78 7.25231 124.518 7.27715 124.282C7.30199 124.033 7.36408 123.784 7.40134 123.709C7.4386 123.647 7.50069 123.447 7.53795 123.273C7.56279 123.099 7.79875 122.115 8.04713 121.107C8.29552 120.086 8.53148 119.152 8.55632 119.015C8.65567 118.455 9.14001 116.6 9.28904 116.202C9.50017 115.592 9.88516 114.309 9.91 114.085C9.92242 113.986 10.0093 113.649 10.0963 113.338C10.1956 113.027 10.2577 112.716 10.2329 112.628C10.2205 112.554 10.2702 112.454 10.3447 112.404C10.4068 112.367 10.4689 112.205 10.4689 112.068C10.4689 111.919 10.5806 111.483 10.7048 111.11C10.9532 110.387 11.1146 109.802 11.1519 109.479C11.1643 109.379 11.2388 109.093 11.3134 108.856C11.3879 108.62 11.4748 108.283 11.5121 108.109C11.5493 107.935 11.6363 107.487 11.7108 107.113C11.7853 106.74 11.8722 106.304 11.8971 106.142C11.9343 105.993 11.9964 105.719 12.0337 105.52C12.0833 105.333 12.133 102.32 12.133 98.8339C12.1454 95.3355 12.1951 92.4097 12.2448 92.3226C12.3069 92.2354 12.3441 91.0278 12.3317 89.6459C12.2945 86.1972 12.3069 85.6992 12.4683 85.6992C12.6546 85.6992 14.4802 87.5916 14.9273 88.2639C15.2875 88.7993 15.3371 88.9985 15.4738 90.5547C15.4738 90.5921 15.4489 90.7041 15.4117 90.8037C15.2502 91.2146 15.0391 95.6716 15.126 96.6925C15.2129 97.8628 15.4365 98.3235 15.7594 97.9998C15.9333 97.8255 16.281 95.4849 16.3679 93.9162C16.4424 92.584 16.5542 91.5632 16.6908 91.0403C16.7902 90.6543 16.8647 90.5672 17.2373 90.5049C17.4732 90.4551 17.6719 90.368 17.6719 90.3057C17.6719 90.1563 16.2065 88.2141 15.511 87.4298C15.2254 87.1061 14.8404 86.6205 14.6417 86.3342C14.4305 86.0603 14.2318 85.8237 14.1697 85.8237C14.1201 85.8237 14.0704 85.7615 14.0704 85.6992C14.0704 85.6245 13.9586 85.4502 13.822 85.3008C13.4743 84.9149 12.903 83.7695 12.667 82.9602C12.1827 81.3044 12.2324 78.2168 12.7415 78.3911C12.8161 78.416 13.0893 78.7646 13.3377 79.1754ZM23.956 96.7299C24.2789 97.2154 24.192 98.2737 23.7697 99.195C23.4716 99.8299 23.0494 100.428 22.9997 100.253C22.9873 100.228 22.9749 99.8548 22.95 99.4315C22.9252 98.8962 22.8507 98.56 22.652 98.2986C22.5154 98.0869 22.3912 97.8504 22.3912 97.7632C22.3912 97.5889 23.4965 96.4062 23.6579 96.4062C23.7076 96.4062 23.8442 96.5556 23.956 96.7299ZM21.6212 99.1701C21.8323 99.3817 21.8075 99.9544 21.5839 100.39C21.4101 100.739 21.3356 100.764 20.727 100.764C20.3669 100.764 20.044 100.726 19.9943 100.689C19.9198 100.614 21.261 99.0207 21.4101 99.0207C21.4473 99.0207 21.5343 99.0829 21.6212 99.1701ZM20.2303 102.146C20.3172 102.22 20.4786 102.631 20.5904 103.067C20.7891 103.789 20.9382 104.001 22.1552 105.358C22.9004 106.179 23.4592 106.877 23.3971 106.926C23.335 106.964 22.8879 106.939 22.4036 106.864C21.0375 106.677 20.7891 106.926 20.6525 108.657C20.5656 109.728 20.5283 109.939 20.2799 110.537C20.2303 110.674 20.1185 110.973 20.0316 111.184C19.9446 111.408 19.8453 111.595 19.7956 111.595C19.4975 111.595 18.2059 109.802 17.9824 109.093C17.9327 108.931 17.821 108.719 17.7464 108.62C17.6595 108.508 17.6098 107.848 17.5974 106.877C17.5974 105.096 17.4732 104.685 16.9765 104.785C16.8026 104.81 16.6908 104.797 16.7032 104.76C16.7778 104.598 17.9824 102.98 18.5785 102.245L19.1622 101.523L19.6341 101.772C19.8825 101.922 20.1557 102.083 20.2303 102.146ZM16.4797 105.632C16.3928 105.98 16.281 106.727 16.2437 107.287C16.1444 108.831 15.7346 112.155 15.6104 112.355C15.4986 112.541 15.3744 114.645 15.3744 116.264C15.3868 118.754 15.5607 128.664 15.6228 129.772C15.66 130.283 15.7346 131.142 15.7966 131.664C15.8712 132.225 15.9333 136.196 15.9333 141.064C15.9333 145.708 15.9705 149.953 16.0202 150.501C16.0574 151.049 16.1071 160.374 16.1195 171.23C16.132 186.668 16.1692 191.225 16.3058 192.146C16.43 193.093 16.4424 196.056 16.3803 206.837C16.3431 214.27 16.2934 223.582 16.2934 227.529C16.2934 232.086 16.2437 234.75 16.1692 234.8C16.0947 234.85 16.0947 234.937 16.1941 235.049C16.3058 235.186 16.3058 235.261 16.1941 235.397C16.0947 235.51 16.0947 235.597 16.1692 235.646C16.2313 235.696 16.2934 236.269 16.3058 236.941C16.3058 237.601 16.3555 238.535 16.4176 239.02C16.4797 239.494 16.5045 241.896 16.4673 244.337C16.43 246.789 16.4424 248.931 16.4797 249.105C16.5542 249.379 16.6287 249.416 17.1131 249.416C17.4235 249.416 17.6719 249.366 17.6719 249.317C17.6719 249.043 21.0002 248.532 22.7638 248.52C24.7384 248.52 26.5019 249.18 27.632 250.337C28.2033 250.935 28.402 251.333 28.2902 251.757L28.2157 252.068L27.8804 251.744C27.4706 251.346 26.4398 250.823 25.8685 250.723C25.0861 250.574 23.7821 250.636 23.1115 250.848C22.0186 251.209 21.7578 251.558 21.348 253.213C21.1493 254.023 20.8761 254.521 20.6401 254.521C20.5904 254.521 20.3048 254.035 20.0191 253.45C19.51 252.379 18.8642 251.607 18.2432 251.309C18.0693 251.234 17.7713 251.084 17.5974 251.01C16.9019 250.674 14.5051 250.947 13.6357 251.47C13.0769 251.794 12.4932 252.74 12.4062 253.462C12.3441 254.035 12.1951 254.396 12.0337 254.396C11.7977 254.384 11.2885 253.126 11.2388 252.404C11.2016 251.831 11.2513 251.595 11.5617 250.972C11.7729 250.562 12.0337 249.79 12.1454 249.254C12.3814 248.196 12.3566 250.4 12.5056 219.474C12.5428 212.826 12.6298 204.534 12.7043 201.048C12.7788 197.55 12.8906 191.648 12.9527 187.913C13.0148 184.104 13.1265 180.667 13.2011 180.07C13.4122 178.551 13.2259 164.47 12.9527 161.333C12.8906 160.573 12.7415 158.955 12.6422 157.722C12.5304 156.49 12.3938 155.12 12.3193 154.672C12.1206 153.352 12.2199 129.473 12.4559 122.676C12.518 120.659 12.5801 117.857 12.5677 116.451C12.5677 115.044 12.6174 113.6 12.6919 113.226C12.7664 112.853 13.0769 112.043 13.3749 111.421C13.8717 110.387 14.6789 108.669 15.7097 106.491C16.0574 105.756 16.517 104.997 16.6039 104.997C16.6287 104.997 16.5666 105.283 16.4797 105.632ZM11.2761 121.319C11.3382 122.613 11.3258 123.298 11.2388 123.348C11.1519 123.398 11.1519 123.56 11.214 123.784C11.2637 123.983 11.3009 124.17 11.2761 124.194C11.2388 124.232 11.1022 126.348 10.8787 130.083C10.8414 130.83 10.8166 131.901 10.8166 132.449C10.829 132.997 10.8663 135.947 10.9159 139.01C10.9656 142.944 10.9408 144.774 10.8538 145.235C10.6427 146.169 10.3447 149.443 10.3447 150.688C10.3447 151.273 10.4068 151.995 10.4813 152.306C10.6055 152.829 10.9532 154.684 11.0277 155.232C11.0526 155.369 11.0774 155.481 11.0898 155.481C11.1146 155.481 11.1395 155.593 11.1643 155.73C11.1892 155.867 11.2264 156.116 11.2513 156.29C11.5866 158.233 11.7853 159.801 11.9095 161.457C11.9467 162.005 11.9964 162.652 12.0212 162.889C12.1082 163.723 12.0958 167.944 12.0088 168.591C11.8971 169.5 11.7356 169.251 11.6983 168.081C11.6735 167.558 11.6238 167.122 11.5866 167.122C11.5369 167.122 11.4872 166.649 11.4748 166.064C11.4624 165.479 11.4003 164.557 11.3258 164.034C11.2513 163.511 11.1643 162.74 11.1271 162.329C11.0898 161.918 11.0153 161.519 10.9532 161.445C10.8911 161.37 10.8663 161.283 10.9035 161.258C10.9284 161.221 10.8787 160.698 10.7793 160.088C10.68 159.465 10.5682 158.718 10.5434 158.407C10.5061 158.096 10.3447 157.199 10.1708 156.415C10.0093 155.631 9.83548 154.585 9.78581 154.112C9.74855 153.626 9.66162 152.879 9.5871 152.431C9.51259 151.995 9.50017 151.485 9.54984 151.31C9.59952 151.136 9.66162 150.8 9.66162 150.563C9.67403 150.327 9.76097 149.032 9.8479 147.7C10.0218 145.023 9.89758 141.039 9.62436 140.355C9.54984 140.168 9.53742 140.081 9.43807 139.483C9.40081 139.309 9.31388 138.923 9.23937 138.612C8.97857 137.603 8.95373 137.441 8.92889 136.308C8.90405 135.686 8.82954 134.74 8.7426 134.192C8.45696 132.374 8.64325 128.415 9.11518 126.099C9.28904 125.278 9.83548 123.198 9.99693 122.763C10.0714 122.576 10.146 122.315 10.1584 122.202C10.1708 122.09 10.2081 121.904 10.2453 121.804C10.2826 121.704 10.444 121.219 10.593 120.746C10.8538 119.874 11.1022 119.289 11.1643 119.351C11.1892 119.364 11.2388 120.26 11.2761 121.319ZM7.50069 137.391C7.50069 137.479 7.52553 137.64 7.55037 137.74C8.45696 141.226 8.58115 141.786 8.51906 142.172C8.43213 142.683 8.2831 142.72 8.19616 142.247C8.17132 142.06 8.00988 141.375 7.86085 140.728C7.71182 140.081 7.57521 139.421 7.55037 139.271C7.52553 139.122 7.47586 138.848 7.4386 138.649C7.28957 137.977 7.25231 137.242 7.3765 137.242C7.4386 137.242 7.48827 137.317 7.50069 137.391ZM9.01582 166.4C9.16485 166.487 9.52501 166.798 9.82306 167.085L10.3447 167.595L10.3322 169.761C10.3198 170.944 10.2702 172.002 10.2081 172.102C10.1584 172.214 10.1087 172.575 10.0839 172.911C10.0714 173.26 10.0093 173.583 9.95967 173.658C9.91 173.72 9.87274 173.808 9.87274 173.845C9.86032 174.019 9.56226 174.667 9.33872 174.978C9.20211 175.177 8.84196 175.513 8.53148 175.725C7.42618 176.484 6.17185 176.31 4.66914 175.202C4.01093 174.716 3.00498 173.422 2.83112 172.849C2.78144 172.675 2.68209 172.463 2.61999 172.376C2.54548 172.301 2.40887 171.878 2.32193 171.442C2.03629 170.135 2.32193 168.803 2.94289 168.516C3.31546 168.342 3.51417 168.541 3.57626 169.139C3.81222 171.206 3.97367 171.728 4.52011 172.127C4.95478 172.463 6.49475 172.675 7.10328 172.5C7.72424 172.314 8.33277 171.728 8.43213 171.255C8.5439 170.732 8.03471 169.985 7.36408 169.662C6.532 169.251 6.61894 168.579 7.6373 167.595C7.91052 167.346 7.97262 167.184 7.92294 166.96C7.77391 166.387 8.40729 166.064 9.01582 166.4ZM11.9591 169.799C11.9591 169.898 11.9095 169.985 11.835 169.985C11.7729 169.985 11.7108 169.898 11.7108 169.799C11.7108 169.699 11.7729 169.612 11.835 169.612C11.9095 169.612 11.9591 169.699 11.9591 169.799ZM11.9591 170.919C11.9591 171.293 12.0212 171.629 12.0833 171.666C12.1579 171.716 12.2075 172.662 12.2075 174.106C12.2075 176.571 12.1454 176.796 11.7356 175.849C11.6363 175.6 11.5245 175.314 11.4872 175.214C11.3879 174.878 11.2513 173.036 11.3009 172.936C11.3382 172.874 11.3755 172.488 11.4003 172.065C11.4375 171.293 11.5742 170.384 11.6735 170.197C11.8101 169.948 11.9591 170.309 11.9591 170.919Z" fill="#504C4C"/>
</svg>
