<svg viewBox="0 0 125 187" fill="none" xmlns="http://www.w3.org/2000/svg">
<path d="M74.6444 1.13795C74.6444 1.6465 74.7622 1.70098 75.6952 1.6465C76.438 1.59201 76.5649 1.61925 77.2714 1.87352C78.4581 2.30942 78.4038 2.30942 78.6665 1.89169C78.7842 1.6919 79.0469 1.41039 79.2372 1.24693C79.6357 0.920004 80.143 0.874599 80.9311 1.10163C81.837 1.36498 82.3896 2.22769 82.6613 3.79873C82.7338 4.18014 82.9512 4.41625 83.223 4.41625C83.3407 4.41625 83.5038 4.45257 83.5944 4.49798C84.0382 4.74317 85.1887 5.05193 85.4604 5.00652C85.6235 4.9702 88.6219 4.93387 92.1366 4.91571C99.9542 4.8703 99.5738 4.8703 100.235 4.91571C100.833 4.96111 101.313 4.76133 101.431 4.43441C101.503 4.2437 102.201 3.29926 102.581 2.88153C103.116 2.30034 104.375 1.47395 104.846 1.38314C104.964 1.36498 105.145 1.30141 105.244 1.24693C105.48 1.11979 106.051 1.11979 106.123 1.24693C106.159 1.30141 106.241 1.31957 106.313 1.29233C106.377 1.26509 106.513 1.37406 106.63 1.56477C106.884 1.99158 106.839 2.62726 106.513 3.06315C106.087 3.62619 105.607 4.6796 105.706 4.84306C105.906 5.21539 107.156 5.0156 108.515 4.40716C109.167 4.11657 109.303 4.01667 109.448 3.72608C109.683 3.22662 109.656 2.99051 109.339 2.82704C108.977 2.63634 108.968 2.2731 109.321 1.93709C110.172 1.11979 112.718 0.974491 115.155 1.60109C115.535 1.70098 116.151 1.80996 116.513 1.8372C116.876 1.86444 117.211 1.91893 117.265 1.94617C117.311 1.97342 117.41 2.00974 117.492 2.00974C117.691 2.0279 118.561 2.23677 119.023 2.38207C119.611 2.56369 119.82 2.53645 120.146 2.23677C120.309 2.08239 120.662 1.87352 120.934 1.77363C121.632 1.51028 122.791 1.57385 123.434 1.92801C124.24 2.36391 124.793 3.29926 124.802 4.28003C124.82 5.00652 124.702 5.33344 124.286 5.80566C124.059 6.06901 123.932 6.14166 123.679 6.14166C123.407 6.14166 123.271 6.05993 122.782 5.55139C122.293 5.05193 122.166 4.97019 121.94 4.99744C121.559 5.04284 121.251 5.26079 120.97 5.68761C120.735 6.04177 120.726 6.06901 120.789 7.07702C120.825 7.63097 120.871 8.20308 120.889 8.3393C120.907 8.4846 120.889 8.61173 120.843 8.63898C120.807 8.66622 120.789 8.76611 120.816 8.87509C120.843 8.97498 120.816 9.16568 120.753 9.3019C120.689 9.43812 120.572 9.68331 120.49 9.85585C120.209 10.437 119.43 11.109 118.425 11.5994C117.401 12.108 117.428 12.0626 117.709 12.8163C117.99 13.57 117.963 13.6245 116.812 14.6779C116.296 15.1411 116.142 15.4408 116.042 16.14C115.943 16.8302 115.988 18.0924 116.142 18.6918C116.224 18.9915 116.269 19.0369 116.495 19.0369C117.003 19.0369 117.6 18.2014 117.7 17.3387C117.773 16.7394 118.135 15.9402 118.452 15.6859C118.615 15.5588 118.823 15.4952 119.077 15.4952C119.765 15.4952 120.028 15.9311 120.028 17.0844C120.028 18.0561 120.128 18.265 120.744 18.5647C121.36 18.8553 122.229 19.718 122.383 20.172C122.601 20.835 122.329 22.406 121.858 23.1597C121.74 23.3595 121.514 23.6319 121.351 23.7772C121.097 24.0134 121.016 24.0406 120.526 24.0224C119.756 24.0043 119.738 24.0134 119.793 24.195C119.865 24.422 119.621 25.3392 119.331 25.9204C119.195 26.1838 118.869 26.5924 118.588 26.8558C117.555 27.7911 117.283 28.0817 117.157 28.3723C117.057 28.6084 117.057 28.7083 117.138 28.8082C117.193 28.8808 117.22 29.0171 117.193 29.117C117.166 29.235 117.193 29.2986 117.274 29.2986C117.347 29.2986 117.401 29.2078 117.401 29.1079C117.401 28.9172 117.428 28.9081 118.18 28.9626C119.122 29.0261 119.63 29.2532 120.073 29.789C120.454 30.2521 120.572 30.5518 120.481 30.8061C120.372 31.0876 120.164 31.1511 119.258 31.1511C118.561 31.1602 118.398 31.1875 118.153 31.3691C117.718 31.6778 117.401 32.4407 117.347 33.2761C117.247 34.7382 117.211 41.9395 117.292 43.4198C117.338 44.2643 117.338 45.3268 117.302 45.7809C117.22 46.6799 117.292 47.0613 117.637 47.5063C118.18 48.2328 119.131 50.4667 119.249 51.3204C119.285 51.5746 119.349 51.9197 119.394 52.0923C119.439 52.2648 119.557 53.0004 119.666 53.7269C119.775 54.4534 119.983 55.6339 120.128 56.3604C120.273 57.0869 120.409 57.8406 120.436 58.0404C120.508 58.6761 120.49 59.7477 120.391 60.2653C120.336 60.5377 120.273 60.8737 120.255 61.0099C120.191 61.3823 119.231 64.4335 119.041 64.8513C118.524 65.9955 118.026 67.9479 117.899 69.301C117.872 69.6461 117.8 70.2001 117.745 70.527C117.691 70.8539 117.637 71.2353 117.619 71.3897C117.61 71.535 117.591 71.6621 117.582 71.6621C117.456 71.6621 117.392 74.7497 117.501 75.4853C117.546 75.7759 117.646 76.3571 117.727 76.7748C117.8 77.1925 117.881 77.7011 117.908 77.91C117.936 78.1097 117.972 78.3095 117.99 78.3368C118.008 78.3731 118.09 78.7182 118.171 79.1177C118.253 79.5082 118.452 80.3074 118.615 80.8795C118.778 81.4516 119.005 82.2689 119.122 82.6957C119.231 83.1225 119.394 83.6946 119.485 83.9671C119.566 84.2395 119.693 84.6936 119.756 84.966C119.82 85.2384 119.892 85.529 119.919 85.6017C119.947 85.6743 119.983 85.8015 119.992 85.8741C120.001 85.9468 120.119 86.419 120.255 86.9184C120.517 87.8629 120.726 88.7438 120.798 89.1524C120.816 89.2795 120.88 89.4975 120.925 89.6246C120.979 89.7608 120.997 89.8698 120.97 89.8698C120.934 89.8698 120.952 89.9243 120.997 89.9788C121.043 90.0424 121.088 90.1967 121.097 90.3239C121.106 90.5509 121.414 91.8767 121.568 92.3762C121.622 92.5306 121.659 92.7213 121.659 92.803C121.659 92.8938 121.695 93.0301 121.74 93.1209C121.786 93.2026 121.894 93.5023 121.976 93.7747C122.066 94.0471 122.211 94.4104 122.293 94.5648C122.474 94.9099 122.465 95.0824 122.229 95.818C122.048 96.3628 121.822 97.3254 121.478 98.9964C121.369 99.4958 121.233 100.168 121.16 100.495C121.097 100.822 120.988 101.33 120.934 101.63C120.88 101.93 120.789 102.338 120.744 102.538C120.699 102.738 120.644 102.965 120.626 103.037C120.608 103.11 120.563 103.419 120.526 103.709C120.49 104.009 120.427 104.345 120.391 104.454C120.345 104.563 120.264 105.162 120.209 105.78C120.046 107.451 120.046 107.442 120.037 107.442C120.028 107.442 120.01 107.869 120.001 108.395C119.974 109.458 119.865 110.747 119.793 110.856C119.775 110.902 119.729 111.183 119.702 111.501C119.675 111.819 119.557 112.545 119.439 113.118C119.322 113.69 119.204 114.362 119.168 114.607C119.14 114.852 119.095 115.088 119.068 115.134C119.041 115.17 119.005 115.352 118.986 115.524C118.959 115.706 118.878 116.123 118.805 116.459C118.398 118.276 118.153 120.746 118.37 120.746C118.416 120.746 118.579 120.664 118.742 120.564C119.168 120.301 119.702 120.237 119.983 120.419C120.101 120.501 120.354 120.882 120.545 121.272C120.735 121.654 121.043 122.199 121.233 122.471C121.559 122.934 121.577 122.998 121.55 123.552C121.523 124.133 121.514 124.151 121.133 124.442C120.916 124.605 120.68 124.769 120.608 124.814C120.345 124.959 120.563 125.195 120.979 125.195C121.641 125.195 121.84 124.878 122.202 123.261C122.266 122.971 122.411 122.626 122.51 122.48C122.691 122.244 122.746 122.226 123.307 122.235C123.996 122.244 124.222 122.398 124.567 123.052C125.137 124.142 125.001 125.622 124.186 127.103C123.887 127.638 122.873 128.737 122.682 128.737C122.619 128.737 122.565 128.773 122.565 128.828C122.565 128.873 122.266 129.055 121.903 129.227C120.626 129.845 119.639 129.818 118.606 129.146C118.262 128.919 118.117 128.864 118.053 128.946C117.954 129.082 117.691 129.745 117.637 130.027C117.61 130.145 117.528 130.508 117.456 130.853C117.148 132.261 117.148 132.506 117.283 149.805C117.347 157.225 117.401 166.905 117.401 171.328C117.401 175.787 117.446 179.809 117.492 180.363C117.555 181.054 117.664 181.617 117.854 182.18C118.316 183.551 118.407 184.114 118.253 184.759C118.189 185.067 118.026 185.476 117.899 185.676C117.773 185.876 117.673 186.066 117.673 186.112C117.673 186.148 117.537 186.312 117.374 186.475C117.111 186.729 117.012 186.766 116.577 186.766C115.997 186.766 115.952 186.711 115.689 185.776C115.417 184.777 115.327 184.659 114.774 184.423C114.339 184.25 114.185 184.232 113.597 184.277C113.225 184.314 112.836 184.341 112.736 184.35C112.464 184.359 111.93 184.949 111.758 185.449C111.667 185.703 111.531 186.048 111.441 186.221L111.287 186.539H110.544C109.964 186.539 109.765 186.502 109.647 186.384C109.565 186.303 109.393 185.858 109.276 185.385C109.049 184.514 108.886 184.223 108.605 184.223C108.515 184.223 108.415 184.178 108.388 184.132C108.315 184.014 107.256 184.014 106.766 184.141C106.241 184.268 105.625 184.813 105.543 185.213C105.498 185.449 105.417 185.558 105.208 185.64C104.792 185.812 104.393 185.576 104.085 184.995C103.831 184.514 103.714 183.569 103.904 183.451C103.958 183.424 103.976 183.36 103.958 183.324C103.849 183.151 104.728 182.062 105.38 181.562C105.842 181.217 106.558 180.908 107.21 180.79C107.618 180.709 111.16 180.618 111.422 180.681C111.54 180.708 112.328 180.763 112.337 180.745C112.337 180.736 112.365 180.4 112.383 180C112.419 179.292 112.5 177.657 112.7 173.87C112.763 172.708 112.808 166.07 112.827 156.162C112.836 147.444 112.881 136.374 112.908 131.552C112.944 126.73 112.944 122.09 112.899 121.227C112.863 120.364 112.854 117.386 112.89 114.598C112.926 111.81 112.99 105.853 113.044 101.357C113.153 92.0493 113.252 87.5995 113.343 87.4542C113.461 87.2726 113.524 82.9681 113.424 82.0146C113.261 80.38 113.171 80.1984 112.845 80.8432C112.401 81.7331 111.604 82.4868 110.707 82.8955C110.372 83.0499 110.281 83.059 110.1 82.9591C109.801 82.8047 109.801 82.387 110.1 82.1872L110.326 82.0419L110.046 81.3063C109.892 80.8976 109.692 80.2529 109.593 79.8806C109.384 79.0814 109.312 78.9815 109.067 79.1359C108.632 79.4083 107.527 78.7817 107.527 78.2732C107.527 77.8736 107.79 77.465 108.651 76.5205C109.122 76.012 109.547 75.5034 109.611 75.3854C109.828 74.9767 109.602 74.6226 109.022 74.4864C108.533 74.3592 108.071 73.9324 107.672 73.2422C107.545 73.0152 107.337 72.7428 107.219 72.6247L107.002 72.4159L106.658 72.6429C106.458 72.77 106.205 72.9789 106.078 73.1151C105.697 73.5328 105.027 73.9778 104.782 73.9778C104.547 73.9778 104.456 73.8416 104.402 73.4329C104.23 72.1797 104.185 71.6803 104.212 71.2262C104.23 70.9447 104.203 70.7086 104.167 70.7086C104.094 70.7086 103.84 71.0718 103.17 72.1616C102.599 73.0879 102.146 73.4602 101.956 73.1605C101.802 72.9062 102.545 71.2626 103.342 70.0911C104.321 68.6653 105.616 67.6301 107.183 67.0398C107.428 66.949 107.618 66.8491 107.618 66.8219C107.627 66.7855 107.636 66.3678 107.654 65.8956C107.69 65.0056 107.908 63.7797 108.116 63.3075C108.551 62.3085 108.741 61.9544 109.113 61.4731C109.339 61.1643 109.52 60.8737 109.52 60.8192C109.52 60.7738 109.402 60.5831 109.248 60.4197C109.103 60.2471 108.977 60.0837 108.977 60.0564C108.977 60.0292 108.832 59.7567 108.66 59.4571L108.343 58.9122L107.862 59.0575C106.775 59.3844 105.598 59.0121 104.076 57.8588C102.518 56.6873 101.847 55.534 101.884 54.0901C101.902 53.3727 101.956 53.0458 102.128 52.628C102.382 52.0105 102.599 52.0832 103.578 53.0821C104.248 53.7632 104.574 53.9993 104.692 53.8722C104.719 53.8449 104.773 53.4908 104.819 53.0821C104.9 52.2557 105.009 52.0741 105.562 51.8198C105.833 51.6927 106.114 51.6654 106.884 51.6836C108.007 51.7108 108.732 51.8834 109.384 52.3011C109.955 52.6644 110.127 52.8642 110.254 53.3182C110.553 54.3625 110.498 54.299 111.586 54.9256C111.767 55.0345 112.02 55.1708 112.147 55.2343C112.917 55.6339 113.316 56.5874 112.89 57.0233C112.745 57.1595 112.165 57.3139 111.033 57.4955C110.607 57.5591 110.526 57.7407 110.788 58.0132C110.897 58.1312 111.114 58.3946 111.259 58.6034C111.413 58.8214 111.613 59.0121 111.694 59.0393C111.785 59.0666 112.093 58.9667 112.383 58.8214C112.935 58.5399 113.56 58.4309 113.977 58.549C114.185 58.6034 114.276 58.558 114.665 58.1675C115.1 57.7316 115.109 57.7135 115.254 56.8144C115.408 55.8973 115.408 55.8882 115.2 55.5431C114.838 54.8983 111.422 49.8492 111.25 49.6948C111.096 49.5586 111.078 49.5677 110.87 49.8311C110.625 50.158 109.991 50.4849 109.683 50.4395C109.565 50.4304 108.959 50.158 108.324 49.8401C107.428 49.3952 107.092 49.1772 106.794 48.8412C106.286 48.2691 106.168 47.9513 106.168 47.1975C106.168 46.8524 106.132 46.5437 106.087 46.5164C105.933 46.4165 105.706 46.8161 105.48 47.6062C105.235 48.4416 104.828 49.0682 104.52 49.0864C104.438 49.0955 104.339 49.1409 104.302 49.1954C104.212 49.3498 103.514 49.2408 103.243 49.041C103.116 48.9411 102.88 48.6687 102.717 48.4235C102.3 47.815 102.074 47.6607 101.476 47.588C100.561 47.479 100.597 47.4972 100.027 46.9705C99.5466 46.5255 99.61 46.2622 100.362 45.5538C101.494 44.4913 103.161 43.665 104.456 43.5197C104.728 43.4924 105.109 43.4288 105.308 43.3744C105.516 43.3199 106.06 43.3108 106.567 43.3471L107.455 43.4016L107.391 43.1201C107.337 42.8386 106.803 41.7488 106.168 40.6046C105.235 38.9155 103.623 35.4374 102.889 33.5304C102.735 33.1399 102.563 32.7131 102.491 32.5769C102.418 32.4497 102.364 32.2681 102.364 32.1864C102.364 32.1047 102.328 32.0138 102.282 31.9866C102.246 31.9594 102.183 31.805 102.146 31.6506C102.119 31.4962 102.038 31.2419 101.965 31.0876C101.893 30.9241 101.793 30.6335 101.73 30.4337C101.675 30.2339 101.594 29.9887 101.549 29.8889C101.512 29.789 101.367 29.3985 101.232 29.0261C100.733 27.6186 100.235 26.6196 99.8184 26.1656C99.3926 25.7024 99.293 25.7115 98.532 26.2382C98.0882 26.547 97.9885 26.6741 97.9976 26.9375C97.9976 27.1464 98.1244 27.9727 98.1516 28.0363C98.1787 28.0726 98.2059 28.3905 98.215 28.7356C98.2331 29.68 97.8708 30.2884 96.8109 31.0966C96.2493 31.5235 95.9956 32.0048 95.9684 32.6949C95.9322 33.5122 95.7601 34.0753 95.4702 34.3931L95.2166 34.6655L94.2292 34.157C93.2871 33.6666 93.2237 33.6484 92.8885 33.7393C92.6983 33.7937 92.4265 33.8392 92.2997 33.8392C91.9464 33.8392 91.3485 33.3579 90.9771 32.7676C90.4064 31.8504 90.4064 31.8504 89.5912 31.9049C88.9752 31.9503 88.8484 31.9321 88.5132 31.7505C87.9334 31.4145 87.6707 30.9423 87.553 29.9887C87.5258 29.7799 87.3265 29.344 87.091 28.9626C86.6109 28.1998 86.3301 27.4551 86.3301 26.9738C86.3301 26.4925 87.091 25.0032 87.5983 24.4947C88.2324 23.8499 88.9027 23.5593 89.7542 23.5411C90.4064 23.5321 90.5061 23.5593 91.267 23.9316C92.4084 24.4765 92.6983 24.5764 93.1422 24.5219C93.5951 24.4674 93.7038 24.4129 94.202 23.9861C94.4194 23.8136 94.6368 23.6683 94.7002 23.6683C94.8905 23.6683 95.2619 24.1405 95.4249 24.5855C95.6061 25.0849 95.8235 25.3029 96.4576 25.6207C96.8743 25.8296 96.974 25.8477 97.2457 25.7569C97.6262 25.6298 98.7766 24.8761 98.8129 24.7217C98.8491 24.5582 96.7565 22.6421 94.7184 20.9984C94.5281 20.844 94.3107 20.6533 94.2201 20.5807C94.1386 20.499 93.8668 20.281 93.6223 20.0812C93.3686 19.8814 93.124 19.6817 93.0787 19.6181C93.0244 19.5636 92.6983 19.3002 92.354 19.0278C91.5025 18.374 90.6963 17.6929 89.8267 16.9119C87.4986 14.8232 86.7015 13.9969 85.5872 12.5166C85.1524 11.9445 84.6814 11.3996 84.5455 11.2998C84.2738 11.1272 83.9295 11.0818 83.8389 11.2271C83.8118 11.2725 83.7302 11.2907 83.6578 11.2634C83.5853 11.2362 83.4132 11.2907 83.2773 11.3815C82.5436 11.89 81.2391 12.1534 80.4872 11.9445C80.3151 11.8991 79.98 11.6993 79.7444 11.5177C78.8386 10.8094 78.6483 10.7276 77.8602 10.7276C77.3711 10.7367 76.9363 10.8003 76.5286 10.9274C75.5231 11.2543 75.3601 11.436 75.7768 11.7447C75.8945 11.8355 76.0576 12.0535 76.13 12.226C76.3746 12.8345 76.0213 13.1977 75.0792 13.3158C73.9288 13.4611 73.6933 13.7335 74.4814 13.9969C75.5956 14.351 76.1029 14.6779 77.1446 15.6859C77.7062 16.2308 78.2135 16.6758 78.2769 16.6758C78.3313 16.6758 78.6936 16.8211 79.0741 17.0027C80.913 17.8654 80.8677 17.8291 80.8949 18.4466C80.9221 19.0641 80.9039 19.1186 80.5507 19.3366C79.3549 20.0994 78.2588 19.9087 76.6826 18.6555C75.4144 17.6566 75.0974 17.5748 75.4144 18.3376C75.6952 19.0187 75.505 19.4909 74.9434 19.4909C74.6625 19.4909 73.8382 19.2367 73.2856 18.9733C72.8236 18.7554 72.0446 17.9835 71.7094 17.4023C71.2474 16.6031 71.0934 16.1491 70.9847 15.1774C70.9032 14.4691 70.8489 14.2693 70.7402 14.242C70.5137 14.1966 69.7981 14.914 69.1821 15.804C68.8741 16.249 68.5751 16.6304 68.5208 16.6485C68.3849 16.694 68.0769 15.9311 67.8957 15.1411C67.8142 14.7688 67.7146 14.4055 67.6783 14.3419C67.5878 14.1694 67.479 14.2965 67.0352 15.1683C66.229 16.7212 65.0695 18.2014 64.7524 18.0834C64.5441 18.0016 64.5078 17.8563 64.5893 17.4114C64.6618 17.0209 64.4897 15.1592 64.3538 14.8142C64.1908 14.4055 63.91 14.124 63.5567 14.0332C62.4153 13.7517 61.6906 13.1796 61.6906 12.5802C61.6906 11.4632 62.5874 10.4643 64.1092 9.90126C64.3448 9.81044 64.5622 9.72871 64.5803 9.71963C64.5893 9.70147 64.5078 9.55617 64.381 9.39271C64.2632 9.22925 64.0458 8.85693 63.91 8.56633C63.756 8.23941 63.611 8.0487 63.5023 8.0487C63.1581 8.0487 62.3066 8.26665 62.2794 8.35746C61.9352 9.76504 61.5185 10.1101 60.06 10.1828C59.0726 10.2373 59.0998 10.2191 58.194 11.3724C57.5055 12.2533 57.2971 12.4167 56.9892 12.2987C56.654 12.1806 56.5543 12.2533 56.2554 12.898C55.8931 13.6699 55.3858 14.233 54.9419 14.351C54.7426 14.4146 54.5886 14.5145 54.5705 14.5962C54.5524 14.7597 54.7879 15.6405 55.0234 16.3125C55.2137 16.8302 55.1593 16.9482 54.7517 16.9482C54.3531 16.9482 53.9636 16.8393 53.2298 16.5032C52.641 16.2399 51.9435 15.5588 51.6899 14.9776C51.255 14.0059 51.2007 13.9605 50.1952 13.6609C49.8691 13.57 49.7785 13.4883 49.7151 13.2704C49.5611 12.7346 49.7694 11.8628 50.2133 11.1999C50.3039 11.0636 50.3492 10.9456 50.3039 10.9456C50.2677 10.9365 48.6009 10.9365 46.608 10.9456C44.6151 10.9547 42.8305 10.9183 42.6403 10.8729C42.4591 10.8275 42.287 10.8185 42.2689 10.8548C42.2417 10.8911 41.7888 10.9002 41.2634 10.882C40.0223 10.8366 39.4969 10.9638 39.1346 11.3815C38.8175 11.7447 38.4008 12.5439 38.2197 13.1705C38.1563 13.4066 38.0204 13.6699 37.9298 13.7517C37.7758 13.8879 37.7486 13.8879 37.5222 13.7517C37.1236 13.5156 36.7159 12.8708 36.4623 12.0898C36.1724 11.2362 36.1996 10.7549 36.5529 9.98299C36.6797 9.71055 36.7794 9.4472 36.7794 9.40179C36.7794 9.35639 36.5438 9.22017 36.2539 9.08395C34.6687 8.35746 33.6813 7.78535 32.2047 6.73194C30.7191 5.66036 31.0452 5.73301 27.449 5.73301C24.7676 5.73301 24.215 5.76025 23.5628 5.89647C22.4939 6.13258 20.0028 6.14166 18.5262 5.92372C17.6294 5.7875 17.1131 5.76934 15.5369 5.81474C13.082 5.88739 12.7287 5.94188 12.6381 6.23247C12.5837 6.39594 12.6562 6.82275 12.7649 7.00437C12.8917 7.22232 13.1182 8.0033 13.091 8.13951C13.0729 8.22124 13.0004 8.43919 12.9189 8.62082L12.783 8.95682L11.6688 8.94774C10.3734 8.93866 10.0654 8.83876 9.67593 8.27573C9.34076 7.78535 9.05994 7.03161 9.05994 6.6048C9.05994 6.4141 9.03276 6.13258 9.00559 5.9782L8.95123 5.70577L8.07255 5.75117C6.58693 5.81474 5.69919 6.16891 4.81144 7.0407C3.70629 8.12135 3.44359 8.21216 2.46526 7.84892C1.79492 7.59465 1.17893 6.95897 1.17893 6.52307C1.17893 6.42318 1.11552 6.29604 1.04305 6.23247C0.807526 6.03269 0.889053 5.80566 1.33293 5.43333C2.25691 4.67052 3.84217 4.11657 5.69919 3.91678C5.86224 3.89862 6.01624 3.8623 6.04341 3.83505C6.07059 3.80781 6.09777 3.47181 6.10682 3.08132C6.12494 2.21861 6.35141 1.70098 6.94022 1.14703L7.3388 0.765625L8.55266 0.80195C9.51287 0.820112 9.80275 0.856436 9.92957 0.974491C10.0292 1.05622 10.464 1.31957 10.917 1.55568C11.3608 1.80088 11.8319 2.04607 11.9587 2.11872C12.0855 2.18228 12.2123 2.23677 12.2576 2.23677C12.2939 2.23677 12.5203 2.32758 12.7559 2.42747C12.9914 2.53645 13.2994 2.67267 13.4534 2.73623C14.5585 3.21753 16.0079 3.18121 17.1674 2.64542C17.8378 2.33666 18.037 2.08239 18.0008 1.59201C17.9827 1.37406 18.0099 1.10163 18.0552 0.983572C18.1457 0.792868 18.2001 0.783787 19.106 0.783787H20.0662L20.4738 1.15611C21.1985 1.80996 22.204 2.81796 22.3852 3.07224C22.5573 3.30835 22.5573 3.31743 22.4033 3.40824C22.2765 3.47181 22.1044 3.4264 21.7058 3.2357C21.4159 3.0904 21.1079 2.90878 21.0264 2.83613C20.9358 2.7544 20.8362 2.69083 20.809 2.69083C20.7456 2.69083 20.664 2.62726 19.568 1.65558L18.8886 1.05622L18.8614 1.41947C18.8251 1.91893 18.9338 2.07331 19.6314 2.49104C20.3923 2.9451 20.9539 3.50813 20.8724 3.717C20.7909 3.94403 20.6459 3.9077 19.9484 3.50813C19.1603 3.04499 18.644 2.96326 18.1548 3.21753C17.7834 3.40824 16.8685 3.69883 16.5152 3.74424C16.4065 3.75332 16.2706 3.78965 16.2163 3.82597C16.1619 3.8623 15.6999 3.88046 15.1926 3.88046C13.9154 3.8623 12.8464 3.56262 10.9623 2.66358C10.6361 2.5092 10.2285 2.30034 10.0564 2.19136C9.04182 1.56477 8.75195 1.45579 8.34431 1.52844C7.83702 1.61925 7.29351 1.97342 7.11233 2.32758C7.03081 2.48196 6.94022 2.7998 6.91304 3.03591C6.87681 3.39008 6.89493 3.48997 7.05798 3.63527C7.43844 3.98035 8.40772 3.96219 9.99298 3.58986C10.4821 3.47181 10.8988 3.58986 11.0619 3.88046C11.1797 4.10749 11.0257 4.39808 10.7539 4.45257C10.0202 4.58879 8.69759 4.725 7.90949 4.74317C4.85673 4.79765 3.95087 4.97019 2.51055 5.75117C1.79492 6.13258 2.1935 6.95897 3.09936 6.95897C3.29865 6.95897 3.51606 6.84091 3.85123 6.5594C4.4491 6.04177 5.33684 5.56047 6.0253 5.36977C6.32423 5.28803 6.64128 5.18814 6.73187 5.13366C6.82246 5.08825 7.04892 5.04284 7.23009 5.04284C8.55266 5.02468 9.2864 4.97019 9.48569 4.86122C9.69404 4.75225 9.73028 4.76133 9.89333 4.96111C10.0202 5.11549 10.0564 5.25171 10.0111 5.41517C9.97486 5.54231 9.92957 5.96004 9.90239 6.35961C9.84804 7.29497 10.0111 7.69454 10.5999 7.96697C10.9713 8.13951 11.0438 8.1486 11.4877 8.03962C11.7504 7.97605 11.9859 7.89432 12.0131 7.84892C12.0402 7.81259 12.004 7.64913 11.9315 7.48567C11.4061 6.29604 11.388 5.99636 11.8138 5.52414L12.1218 5.18814L13.4715 5.17906C14.2052 5.16998 14.9118 5.14274 15.0386 5.10641C15.3647 5.02468 16.9138 4.91571 17.3486 4.94295C18.5443 5.0156 23.128 5.02468 23.9614 4.96111C24.5049 4.91571 25.3655 4.85214 25.8637 4.8249C26.3619 4.79765 27.0776 4.76133 27.449 4.73409C28.2642 4.68868 28.1193 4.68868 29.2063 4.73409C30.1847 4.77949 30.8731 4.94295 31.5706 5.28803C32.3225 5.66944 32.4403 5.74209 33.5635 6.54123C34.1614 6.96805 34.7955 7.38578 34.9676 7.47659C35.1397 7.5674 35.2937 7.66729 35.3119 7.70362C35.33 7.74903 35.3934 7.77627 35.4477 7.77627C35.5111 7.77627 35.6742 7.83984 35.8282 7.92157C36.3989 8.23033 37.7758 8.46644 37.7758 8.25757C37.7758 8.22124 37.2957 7.87616 36.7159 7.50383C36.1362 7.13151 35.33 6.6048 34.9223 6.33237C34.0074 5.72393 32.9204 5.05193 32.8298 5.05193C32.7936 5.05193 32.549 4.95203 32.2863 4.8249C32.0145 4.69776 31.3623 4.45257 30.8278 4.27095C30.2843 4.09841 29.777 3.91678 29.6955 3.87138C29.6049 3.81689 29.469 3.78057 29.3966 3.78057C29.3241 3.78057 29.1882 3.74424 29.0976 3.69883C28.8802 3.58986 28.5632 3.46273 28.0378 3.2811C27.7841 3.19029 27.458 3.07224 27.3131 3.00867C27.1591 2.9451 26.8149 2.80888 26.5431 2.70899C26.1083 2.54553 25.1209 2.11872 24.369 1.76455C24.2422 1.70098 23.8527 1.46487 23.5085 1.23784L22.8744 0.829193L23.6534 0.80195C24.3781 0.774706 24.4777 0.792868 24.8763 1.03806C25.1209 1.18336 25.8093 1.49212 26.4072 1.72823C27.0051 1.97342 27.612 2.21861 27.766 2.29126C27.9109 2.35483 28.69 2.62726 29.4872 2.89969C30.2843 3.17213 30.9999 3.41732 31.0724 3.44456C31.8515 3.72608 33.3824 4.18922 34.6053 4.50706C34.8317 4.57062 35.0582 4.65236 35.1216 4.70684C35.2756 4.83398 35.4206 4.71592 35.4206 4.45257C35.4206 4.32543 35.5202 4.08932 35.647 3.92586C35.7738 3.7624 35.8735 3.58986 35.8735 3.54446C35.8735 3.41732 36.4079 2.92694 36.7341 2.7544C37.5856 2.30034 38.4643 1.95526 39.0259 1.85536C39.6056 1.75547 39.6872 1.76455 39.8412 1.90077C39.9952 2.03699 40.2669 2.56369 41.0641 4.21646C41.1637 4.43441 41.3268 4.64327 41.4083 4.69776C41.7435 4.8703 43.4465 4.9702 46.5808 4.98836L49.8691 5.00652L50.3673 4.77041C50.784 4.57062 51.1282 4.42533 51.3637 4.37084C51.8167 4.25278 51.9707 4.1983 52.0613 4.12565C52.2424 3.98035 53.6375 3.79873 54.2353 3.83505C54.8876 3.87138 55.6304 4.13473 56.7355 4.725C57.1703 4.95203 57.6142 5.14274 57.7138 5.14274C57.9494 5.14274 58.2483 4.63419 58.2483 4.20738C58.2483 3.93494 58.1758 3.79873 57.886 3.50813C57.6957 3.31743 57.3243 3.04499 57.0707 2.91786C56.8261 2.79072 56.6178 2.6545 56.6178 2.6091C56.6178 2.52737 56.9348 2.29126 57.3062 2.09147C57.7863 1.82812 59.5437 1.66466 60.4224 1.79179C60.7938 1.84628 61.1652 1.91893 61.2377 1.94617C61.3101 1.97342 61.4369 2.00066 61.5185 2.01882C61.7359 2.06423 62.4425 2.39115 62.6055 2.52737C62.678 2.59094 62.7686 2.71807 62.8048 2.7998C62.8954 3.04499 63.7831 3.65343 64.2723 3.80781C64.7705 3.97127 66.9265 4.18014 67.2979 4.10749C67.4247 4.08024 67.8595 4.03484 68.2581 3.99851C68.6567 3.97127 69.019 3.92586 69.0643 3.89862C69.1096 3.8623 69.2545 3.83505 69.3904 3.82597C69.8071 3.78965 70.6315 3.51721 70.8489 3.33559L71.0663 3.15397L70.8489 2.73623C70.6768 2.41839 70.6133 2.1278 70.5862 1.5466L70.5409 0.783787H71.6098L71.5917 1.39222C71.5735 2.09147 71.7275 2.51829 72.1624 2.97234C72.416 3.24478 73.2856 3.75332 73.2856 3.63527C73.2856 3.59894 73.349 3.62619 73.4215 3.68975C73.5574 3.80781 74.735 3.94403 74.735 3.84413C74.735 3.80781 74.581 3.5717 74.3817 3.31743C73.9741 2.77256 73.8291 2.35483 73.7657 1.44671L73.7114 0.783787H74.6444V1.13795ZM79.6357 2.22769C79.3549 2.61818 79.4002 2.89969 79.8984 3.81689C80.4238 4.77041 80.4872 4.85214 80.8496 5.11549C81.1123 5.29712 81.1395 5.29712 81.3206 5.1609C81.5743 4.96111 81.6286 4.725 81.6377 3.93494C81.6377 2.82704 81.2935 2.11872 80.7137 2.03699C79.9347 1.93709 79.826 1.95525 79.6357 2.22769ZM110.979 2.22769C110.589 2.33666 110.671 2.50012 111.232 2.7544C111.649 2.9451 111.803 3.07224 111.875 3.27202C111.939 3.45364 111.939 3.5717 111.866 3.65343C111.74 3.80781 111.83 4.18922 112.066 4.52522C112.238 4.76133 112.283 4.77041 112.944 4.77041C113.787 4.77041 115.209 5.09733 116.242 5.54231C116.74 5.75117 116.821 5.72393 117.03 5.29712C117.283 4.77949 117.7 4.389 118.407 4.01667C118.724 3.85321 118.995 3.65343 119.014 3.5717C119.041 3.41732 118.715 3.29018 118.035 3.19029C117.809 3.15397 117.302 3.05407 116.903 2.95418C116.504 2.86337 116.079 2.77256 115.952 2.74531C114.883 2.53645 114.548 2.4638 113.914 2.32758C113.18 2.15504 111.422 2.10055 110.979 2.22769ZM104.574 2.57277C103.578 3.02683 102.201 5.06101 101.721 6.77734C101.558 7.35854 101.53 7.70362 101.53 9.06579C101.53 10.1555 101.494 10.7004 101.431 10.7458C101.376 10.7821 101.15 10.8003 100.933 10.7821C100.235 10.7367 100.262 10.9093 101.222 12.4077C101.53 12.8799 101.847 13.452 101.929 13.6699C102.074 14.0241 102.074 14.0967 101.947 14.3964C101.793 14.7506 100.733 18.601 100.706 18.9007C100.697 19.0006 100.661 19.1186 100.634 19.1731C100.597 19.2185 100.552 19.382 100.516 19.5364C100.398 20.0449 99.8818 20.9621 99.5828 21.1891C99.148 21.5251 98.9669 21.4434 98.9669 20.9076C98.9578 20.499 98.9306 20.4445 98.4143 19.9632C97.7621 19.3456 97.4541 19.0823 96.9649 18.7009C96.5573 18.374 92.97 16.0401 92.8885 16.0401C92.8613 16.0401 92.4084 15.7495 91.8921 15.4044C91.3757 15.0503 90.9137 14.7688 90.8684 14.7688C90.8231 14.7688 90.7688 14.7052 90.7326 14.6325C90.7054 14.5599 90.6329 14.4963 90.5604 14.4963C90.3974 14.4963 89.1564 13.2794 88.7215 12.6801C88.5132 12.4077 88.1327 11.7992 87.87 11.3361C87.5439 10.7458 87.3265 10.4643 87.1635 10.4007C87.0366 10.3553 86.5928 9.96482 86.1851 9.53801L85.4333 8.7752L84.8173 8.78428C84.3281 8.79336 84.0654 8.74795 83.5672 8.53908C83.0146 8.32114 82.8153 8.16676 81.9819 7.31313C81.1938 6.50491 80.9583 6.32329 80.6231 6.23247C80.4057 6.16891 80.143 6.06901 80.0434 5.99636C79.9437 5.92372 79.7173 5.86923 79.5542 5.86923H79.2462L79.5451 6.25064C79.7082 6.45042 80.0887 6.77734 80.3967 6.96805C81.1576 7.44935 81.5743 7.77627 81.8098 8.08503C82.0634 8.43011 81.9185 8.52092 81.3659 8.35746C81.1395 8.28481 80.8677 8.23033 80.7681 8.23033C80.4601 8.23033 79.8894 7.9034 79.4183 7.44935C78.9292 6.98621 77.824 6.14166 77.4073 5.90555C76.0213 5.13366 75.3872 4.91571 74.3546 4.8249C74.0737 4.80673 73.648 4.74317 73.4034 4.6796C72.0265 4.37084 70.7402 4.31635 69.8524 4.55246C69.5354 4.63419 69.164 4.71592 69.0371 4.73409C68.5208 4.81582 66.8721 5.04284 66.4011 5.08825C66.1293 5.11549 65.1691 5.22447 64.2723 5.32436C63.3755 5.42425 62.4787 5.52415 62.2794 5.54231C61.3826 5.63312 61.1471 5.71485 60.7394 6.07809C60.3409 6.42318 60.3318 6.44134 60.4767 6.6048C60.5673 6.70469 60.9115 6.85907 61.2467 6.95897C61.7812 7.12243 62.0076 7.14059 63.0222 7.0861C64.1092 7.03162 64.2451 7.00437 65.314 6.6048C66.7091 6.07809 66.8902 6.02361 68.3034 5.74209C71.329 5.14274 72.9958 5.29712 75.3238 6.36869C75.9217 6.65021 76.5014 6.78642 77.6338 6.92264C78.2045 6.98621 78.8114 7.24048 79.2643 7.59465C79.7716 7.99422 80.6865 8.44827 81.9276 8.90233C83.8389 9.61974 85.08 10.437 85.9768 11.5813C87.6707 13.7607 89.3828 15.4862 91.8558 17.5113C92.3269 17.9017 92.816 18.2832 92.9338 18.374C93.0516 18.4648 93.2961 18.6646 93.4773 18.8189C93.6585 18.9733 94.1114 19.3366 94.4828 19.6362C96.2221 21.0075 98.6317 23.1416 99.5375 24.1132C100.842 25.4936 101.549 26.7014 102.137 28.5721C102.273 28.9989 102.418 29.4166 102.463 29.4984C102.509 29.5892 102.545 29.7072 102.545 29.7708C102.545 29.907 103.415 32.4043 103.641 32.8947C103.732 33.0945 103.886 33.485 103.994 33.7574C104.094 34.0299 104.239 34.3659 104.311 34.5202C104.384 34.6655 104.628 35.2195 104.846 35.7462C105.87 38.2072 107.446 41.322 108.406 42.7932C108.913 43.5741 109.158 43.8193 109.901 44.2189C110.544 44.5731 111.586 45.3177 112.464 46.0442C114.33 47.588 116.178 49.8311 116.06 50.4122C115.988 50.8027 115.734 50.6665 114.928 49.7947C113.379 48.1238 112.827 47.5517 112.754 47.5517C112.709 47.5517 112.89 47.7969 113.162 48.1056C113.424 48.4053 113.705 48.7504 113.778 48.8594C113.85 48.9774 114.303 49.5314 114.774 50.0944C116.885 52.6099 118.343 55.1526 118.851 57.1777C119.086 58.1494 119.43 59.1755 119.512 59.1755C119.566 59.1755 119.575 58.9394 119.53 58.5126C119.439 57.6499 119.421 57.55 119.213 56.542C119.113 56.0698 119.014 55.5522 118.986 55.4069C118.959 55.2525 118.878 54.8257 118.805 54.4534C118.733 54.081 118.57 53.1366 118.434 52.3647C118.307 51.5928 118.162 50.8845 118.117 50.8027C118.072 50.721 118.035 50.5757 118.035 50.494C118.035 50.276 117.274 48.7141 116.867 48.0965C116.686 47.8241 116.042 46.9251 115.426 46.1169C114.819 45.2996 114.149 44.337 113.941 43.9828C113.479 43.1746 113.125 42.8295 112.772 42.8295C111.812 42.8295 109.022 40.6591 107.699 38.8792C107.482 38.5795 107.12 38.1073 106.902 37.8349C105.389 35.9641 103.985 33.1308 103.768 31.5235C103.759 31.4236 103.695 31.1511 103.65 30.9241C103.596 30.6971 103.514 30.2067 103.478 29.8344C103.397 28.9898 103.387 25.3029 103.469 24.758C103.496 24.531 103.578 23.9589 103.632 23.4866C103.777 22.3424 104.167 20.9076 104.628 19.9087C104.728 19.6817 104.81 19.4637 104.819 19.4274C104.828 19.2276 105.453 18.5193 105.743 18.3558L106.069 18.1742L106.295 18.3921C106.422 18.5193 106.531 18.6736 106.531 18.7463C106.531 18.8189 106.332 19.1459 106.087 19.4819C105.498 20.2719 105.036 21.171 104.846 21.8702C104.764 22.188 104.656 22.4786 104.619 22.5331C104.583 22.5785 104.538 22.8056 104.511 23.0326C104.438 23.7137 104.348 24.3403 104.293 24.4856C104.194 24.7943 104.266 28.3269 104.402 29.1805C104.71 31.2601 105.172 32.9401 105.779 34.2024C106.495 35.6826 108.252 38.0891 109.747 39.6148C110.381 40.2686 111.857 41.4673 112.02 41.4673C112.256 41.4673 112.229 41.2766 111.93 40.8589C111.54 40.3049 110.752 38.7793 110.562 38.1981C110.372 37.6169 110.408 37.063 110.643 37.063C110.743 37.063 110.879 37.1901 110.988 37.3808C111.087 37.5533 111.268 37.8984 111.404 38.1436C111.767 38.8065 111.975 39.1789 112.328 39.7691C112.799 40.5592 112.79 40.541 113.424 41.5127C113.751 42.0122 114.113 42.5843 114.24 42.7841C114.937 43.9555 116.015 45.1724 116.233 45.0453C116.423 44.9363 116.486 33.3306 116.305 31.9775C116.205 31.2329 116.196 31.0785 116.042 29.344C115.997 28.79 115.916 27.9909 115.861 27.5641C115.816 27.1282 115.771 26.2292 115.771 25.5662C115.771 24.8942 115.707 23.9407 115.635 23.4412C115.553 22.9418 115.472 22.188 115.445 21.7612C115.417 21.3344 115.363 20.7441 115.318 20.4445C115.272 20.1448 115.209 19.0823 115.173 18.0743C115.082 15.468 115.263 14.7143 116.224 13.6881C116.477 13.4247 116.676 13.1341 116.658 13.0615C116.64 12.9798 116.495 12.8799 116.332 12.8254C116.097 12.7618 115.961 12.78 115.653 12.9434C115.444 13.0524 115.209 13.234 115.137 13.3521C115.064 13.4701 114.892 13.7335 114.747 13.9424C114.611 14.1422 114.439 14.5326 114.376 14.796C114.24 15.3227 114.149 18.1015 114.258 18.2832C114.294 18.3467 114.267 18.5374 114.194 18.71C114.077 18.9824 114.086 19.0641 114.213 19.4274C114.348 19.7997 114.348 19.8451 114.203 20.0721C114.113 20.1993 113.977 20.3082 113.895 20.3082C113.778 20.3082 113.76 20.39 113.805 20.8168C113.832 21.0892 113.895 21.3707 113.941 21.4252C113.986 21.4888 114.077 21.734 114.131 21.9883C114.194 22.2335 114.285 22.6239 114.339 22.8328C114.403 23.1234 114.403 23.2596 114.33 23.3323C114.203 23.4594 114.131 23.3868 113.769 22.7148C113.279 21.8066 112.374 20.4626 111.984 20.0994C111.259 19.3911 109.946 19.4183 109.276 20.1448C108.986 20.4626 108.768 21.3253 108.832 21.9338C108.959 23.1961 109.004 23.4866 109.067 23.4866C109.149 23.4866 109.248 23.1597 109.248 22.8691C109.248 22.524 109.575 22.1517 110.118 21.8884C111.06 21.4252 111.894 21.6977 112.917 22.7783C113.225 23.0962 113.542 23.5139 113.633 23.7046C113.95 24.3857 114.312 25.9295 114.466 27.3007C114.484 27.5278 114.521 27.8547 114.539 28.0272C114.656 29.0897 114.765 30.579 114.729 30.6789C114.711 30.7425 114.665 31.3418 114.647 32.0048C114.629 32.6768 114.584 33.2398 114.557 33.2761C114.53 33.3034 114.502 33.6939 114.493 34.1479C114.493 35.6735 114.013 37.9348 113.705 37.9257C113.542 37.9166 112.229 36.8632 111.549 36.2003C110.643 35.3103 109.901 34.3386 109.529 33.594C109.375 33.2852 109.212 33.0128 109.167 32.9855C109.122 32.9583 109.103 32.8039 109.122 32.6404C109.131 32.477 109.149 32.3135 109.149 32.2772C109.167 32.1591 109.511 32.1047 109.683 32.1955C109.783 32.25 109.991 32.5042 110.163 32.7676C110.58 33.4396 111.422 34.4839 112.283 35.3739C112.682 35.7916 113.062 36.1912 113.135 36.2638C113.252 36.3819 113.279 36.3819 113.388 36.2366C113.452 36.1458 113.515 35.9914 113.515 35.8915C113.524 35.7825 113.551 35.4919 113.578 35.2467C113.615 34.9925 113.633 33.2216 113.642 31.2964C113.642 28.2906 113.615 27.664 113.47 26.8013C113.379 26.2473 113.298 25.7569 113.289 25.7115C113.279 25.657 113.243 25.5662 113.207 25.5027C113.162 25.4482 113.153 25.3574 113.189 25.312C113.216 25.2666 113.198 25.203 113.153 25.1757C113.116 25.1485 113.053 24.9941 113.017 24.8307C112.854 23.9861 112.265 23.2142 111.522 22.8601C111.042 22.633 110.698 22.6149 110.326 22.8146C109.955 22.9963 110.018 23.1961 110.517 23.4594C111.069 23.7409 111.721 24.4583 111.857 24.9306C111.975 25.3029 111.993 26.4471 111.884 26.6196C111.857 26.6651 111.83 26.7468 111.812 26.8013C111.45 28.4268 110.797 29.3077 109.882 29.4166C109.221 29.4984 108.868 29.7436 108.614 30.3157C108.497 30.579 108.252 31.0785 108.053 31.4145C107.862 31.7596 107.708 32.141 107.708 32.259C107.708 32.4134 107.654 32.477 107.536 32.477C107.337 32.477 107.274 32.4043 106.92 31.7505C106.431 30.8515 106.313 30.3611 106.304 29.1533V28.0545L105.743 27.11C105.118 26.0475 105 25.5844 105.172 24.8307C105.326 24.1405 105.507 23.7591 105.888 23.3686C106.178 23.0598 107.02 22.5785 107.265 22.5785C107.319 22.5785 107.482 22.4968 107.618 22.3969C107.844 22.2335 107.881 22.1517 107.935 21.4706C108.007 20.6352 108.225 19.9178 108.533 19.4819C108.832 19.0551 109.756 18.6646 110.652 18.5828L111.377 18.5193L110.526 17.6929C109.946 17.1389 109.475 16.7666 109.076 16.5668C108.542 16.2944 108.397 16.2671 107.708 16.2671C107.02 16.2671 106.884 16.2944 106.44 16.5396C105.716 16.9301 104.42 18.3195 104.203 18.9188C104.112 19.1913 103.541 19.8542 103.406 19.8542C103.188 19.8542 103.179 19.7089 103.324 19.0732C103.478 18.4103 103.759 17.7383 103.967 17.5748C104.031 17.5203 104.085 17.4204 104.085 17.366C104.085 17.1026 105.235 16.0492 106.005 15.6133C106.35 15.4135 107.228 15.1956 107.5 15.241C107.591 15.2501 107.699 15.241 107.754 15.2046C107.899 15.1229 108.832 15.2773 109.212 15.4589C110.399 16.0038 112.066 17.6566 112.618 18.828C113.017 19.6817 113.216 19.4455 113.107 18.2287C113.062 17.6656 112.981 17.3841 112.654 16.7212C111.866 15.0866 111.178 14.3238 110.308 14.0967C109.665 13.9242 109.267 13.8697 107.98 13.7698C107.409 13.7153 106.775 13.6699 106.576 13.6518C105.951 13.5882 105.244 13.1977 104.728 12.6165C104.248 12.0898 103.442 10.8185 103.315 10.4007C103.279 10.2827 103.206 10.1374 103.161 10.0738C103.061 9.94666 103.034 8.63898 103.116 8.08503C103.197 7.57648 103.261 7.41302 104.076 5.73301C104.465 4.93387 104.855 4.09841 104.955 3.87138C105.045 3.64435 105.235 3.27202 105.38 3.02683C105.716 2.48196 105.661 2.30034 105.199 2.38207C105.009 2.40931 104.728 2.50012 104.574 2.57277ZM75.4416 2.63634C75.2876 2.7544 75.3057 3.14488 75.4688 3.14488C75.5141 3.14488 75.5503 3.19937 75.5503 3.27202C75.5503 3.40824 76.275 3.9077 76.6373 4.00759C76.8729 4.07116 76.9634 4.10749 78.0595 4.57971C78.6483 4.83398 79.0832 4.87938 79.0832 4.68868C79.0832 4.52522 78.0958 3.35375 77.7515 3.11764C77.0903 2.64542 75.7768 2.37299 75.4416 2.63634ZM121.233 2.82704C121.043 2.89969 120.708 3.17213 120.49 3.4264C120.137 3.84413 120.092 3.93494 120.11 4.29819C120.11 4.52522 120.146 4.74317 120.173 4.78857C120.264 4.94295 120.499 4.8703 120.735 4.61603C121.088 4.25278 121.478 3.98943 121.813 3.92586C122.039 3.87138 122.22 3.92586 122.719 4.18014C123.054 4.36176 123.443 4.59787 123.579 4.69776C124.222 5.22447 124.123 4.09841 123.443 3.29018C123.271 3.08132 122.99 2.86337 122.818 2.80888C122.374 2.66358 121.613 2.67267 121.233 2.82704ZM58.6106 2.82704C58.6106 2.90878 58.665 2.99051 58.7375 3.01775C58.8824 3.07224 59.3625 3.75332 59.3897 3.95311C59.4169 4.08932 58.7465 5.51506 58.4204 6.03269C58.3117 6.19615 58.2574 6.38685 58.2845 6.4595C58.3932 6.7501 58.7012 6.56848 59.4803 5.77842C59.9242 5.32436 60.3137 4.96111 60.3499 4.96111C60.3861 4.96111 60.522 4.91571 60.667 4.85214C60.8028 4.79765 61.0202 4.73409 61.1471 4.71592C61.2739 4.69776 61.6362 4.64327 61.9623 4.59787C62.2885 4.55246 62.6417 4.5343 62.7504 4.56154C62.8682 4.59787 63.0313 4.58879 63.1128 4.55246C63.2034 4.50706 63.303 4.48889 63.3393 4.48889C63.3845 4.49798 63.4117 4.46165 63.4117 4.41625C63.4117 4.36176 63.3574 4.32543 63.294 4.32543C63.1037 4.32543 62.4968 3.97127 61.8265 3.46272C60.9568 2.80888 60.6488 2.70899 59.5346 2.69991C58.7646 2.69083 58.6106 2.70899 58.6106 2.82704ZM39.1437 3.70792C39.1799 5.12457 39.4154 5.75117 40.0586 6.14166C40.3032 6.29604 40.5115 6.4141 40.5296 6.4141C40.5477 6.4141 40.9826 6.69561 41.4989 7.0407C42.5044 7.70362 43.3922 8.57541 43.3922 8.90233C43.3922 8.95682 43.0026 9.02947 42.2598 9.10212C41.2271 9.20201 40.9282 9.20201 40.3122 9.12028C38.6454 8.88417 37.9932 9.12028 37.4225 10.1374C37.2957 10.3735 37.196 11.663 37.2866 11.9082C37.3863 12.1715 37.5765 12.0444 37.7758 11.5631C37.8845 11.3088 38.0747 10.9728 38.2016 10.8275C38.4461 10.5279 38.9987 10.1374 39.1618 10.1374C39.2252 10.1374 39.3158 10.101 39.3701 10.0466C39.4154 10.0011 41.8069 9.95574 45.4756 9.9285L51.4996 9.90126L52.179 9.66515C52.5504 9.53801 53.1211 9.32006 53.4472 9.16568C54.5343 8.6753 54.5886 8.65714 55.259 8.72071C55.7119 8.76611 55.8931 8.75703 55.8931 8.68438C55.8931 8.44827 56.2916 8.03962 56.6812 7.858C56.9076 7.75811 57.1069 7.69454 57.1432 7.72178C57.1703 7.74903 57.2428 7.73086 57.3062 7.67638C57.3968 7.60373 57.4602 7.61281 57.5689 7.7127C57.7591 7.91249 57.741 7.97605 57.3787 8.33022C56.8261 8.86601 56.7717 9.04763 56.8261 10.1737C56.8623 10.7276 56.8805 11.1999 56.8895 11.218C56.8895 11.3088 57.3424 10.8275 57.3424 10.7367C57.3424 10.6822 57.7048 10.2736 58.1487 9.82861L58.9549 9.02947L59.3263 9.09303C59.5256 9.12936 59.7158 9.19293 59.752 9.23833C59.7792 9.28374 59.9966 9.32006 60.2503 9.32006C61.2286 9.32006 61.5638 8.72071 60.9115 8.13951C60.513 7.78535 60.3409 7.72178 59.6524 7.64913C58.4567 7.51292 58.049 7.40394 57.6957 7.12243C57.4964 6.96805 57.3424 6.75918 57.3424 6.66837C57.3424 6.47767 56.5543 5.6422 56.2373 5.50598C56.1195 5.4515 55.8659 5.31528 55.6666 5.20631C55.1503 4.91571 54.027 4.76133 53.1755 4.86122C51.862 5.0156 51.4 5.33344 51.9978 5.66944C52.1518 5.75117 52.3964 5.91463 52.5233 6.02361C52.6591 6.14166 52.795 6.23247 52.8312 6.23247C52.8584 6.23247 53.0124 6.40502 53.1664 6.61388C53.4472 7.00437 53.4563 7.00437 54.0632 7.01345C55.0053 7.03161 55.0415 7.0407 55.259 7.21324C55.422 7.34037 55.4582 7.44027 55.4039 7.62189C55.3495 7.86708 55.3405 7.86708 54.5524 7.86708C53.9183 7.86708 53.5922 7.92157 52.949 8.13043C52.4961 8.27573 51.9526 8.41195 51.7261 8.43919C49.8962 8.66622 49.3799 8.69346 48.1026 8.64806C46.0916 8.56633 45.0318 8.40287 44.1168 8.03962C43.374 7.74903 42.2961 7.14059 42.0152 6.86815C41.9428 6.79551 41.7163 6.58664 41.5261 6.40502C40.9282 5.86923 40.3575 5.05193 40.0495 4.28003C39.6147 3.19029 39.4245 2.88153 39.198 2.87245C39.1527 2.87245 39.1346 3.25386 39.1437 3.70792ZM37.3591 3.40824C36.8065 3.66251 36.5166 4.08932 36.4895 4.69776C36.4804 4.97928 36.5257 5.3062 36.6072 5.46058C36.7341 5.73301 36.7431 5.73301 37.4587 5.73301C38.1381 5.73301 38.1834 5.72393 38.2831 5.50598C38.4371 5.1609 38.3012 3.64435 38.0928 3.41732C37.8936 3.19937 37.8302 3.19937 37.3591 3.40824ZM110.607 4.54338C110.444 4.75225 110.245 5.59679 110.236 6.14166C110.227 7.00437 110.607 7.73994 111.595 8.75703C112.464 9.6379 113.769 10.4643 113.914 10.2191C113.941 10.1737 113.85 9.96482 113.705 9.75596C113.47 9.40179 113.316 9.1112 112.645 7.64005C111.803 5.80566 110.997 4.41625 110.788 4.41625C110.752 4.41625 110.671 4.47073 110.607 4.54338ZM118.479 5.19722C118.289 5.32436 118.072 5.57863 117.981 5.76025C117.582 6.64113 117.03 6.79551 115.752 6.40502C115.037 6.18707 114.955 6.18707 114.955 6.42318C114.955 6.69561 115.309 7.4221 115.535 7.60373C115.807 7.83076 116.359 7.81259 116.903 7.55832C117.664 7.20416 118.941 5.66036 118.941 5.10641C118.941 4.90663 118.869 4.92479 118.479 5.19722ZM82.2899 5.6422C82.2809 5.84199 82.308 6.04177 82.3352 6.09626C82.3624 6.14166 82.3896 6.21431 82.3896 6.25064C82.3896 6.47767 83.232 7.34945 83.6396 7.5674C84.156 7.83076 84.9441 7.89432 85.1796 7.70362C85.2974 7.60373 85.2974 7.54924 85.1615 7.19508C84.8354 6.32329 84.6361 6.14166 83.4313 5.62404C83.2592 5.54231 82.9874 5.43333 82.8425 5.36068C82.4258 5.16998 82.299 5.23355 82.2899 5.6422ZM107.871 5.72393C106.966 5.9782 106.893 6.01453 106.893 6.19615C106.893 6.49583 107.527 6.92264 108.207 7.0861C108.805 7.2314 108.886 7.27681 109.149 7.64005C109.303 7.858 109.43 8.05778 109.43 8.07595C109.43 8.10319 109.475 8.23941 109.529 8.38471C109.593 8.52092 109.647 8.70255 109.656 8.7752C109.674 8.84784 109.756 9.19293 109.837 9.54709C110.027 10.3553 110.127 12.1806 109.991 12.3441C109.81 12.562 110.064 12.8799 110.517 12.9888C111.024 13.1251 111.142 13.1886 111.576 13.5973C112.093 14.0877 112.346 14.3964 112.691 14.9685C112.863 15.2591 113.053 15.4952 113.107 15.4952C113.162 15.4952 113.261 15.3045 113.316 15.0593C113.56 14.1058 113.624 13.8879 113.796 13.5246C113.895 13.3158 114.222 12.8799 114.521 12.553C114.838 12.1988 115.046 11.89 115.028 11.7992C115.01 11.6902 114.738 11.5631 114.14 11.3633C113.144 11.0455 112.736 10.8639 112.084 10.4461C111.087 9.81044 109.837 8.27573 109.475 7.24956C109.393 7.01345 109.294 6.75918 109.248 6.68653C109.212 6.6048 109.149 6.35961 109.122 6.14166C109.013 5.48782 108.977 5.39701 108.814 5.4515C108.723 5.47874 108.306 5.59679 107.871 5.72393ZM119.258 6.51399C118.733 7.43119 118.298 7.91249 117.628 8.31206C117.202 8.56633 117.012 8.6299 116.441 8.66622C116.06 8.69346 115.535 8.65714 115.218 8.59357C114.774 8.49368 114.638 8.49368 114.457 8.59357C114.33 8.65714 114.231 8.74795 114.231 8.79336C114.231 8.83876 114.575 9.24741 114.992 9.71055C115.408 10.1737 115.78 10.655 115.816 10.773C115.897 11.0364 116.106 11.2543 116.205 11.1908C116.251 11.1635 116.459 11.1363 116.686 11.1272C117.193 11.1 118.099 10.764 118.706 10.3735C119.521 9.85585 120.019 8.88417 119.892 8.06687C119.856 7.83984 119.838 7.24048 119.838 6.72286C119.847 6.20523 119.811 5.77842 119.765 5.77842C119.72 5.77842 119.494 6.11442 119.258 6.51399ZM42.9573 5.99636C42.8124 6.14166 42.8215 6.16891 43.0751 6.37777C43.22 6.50491 43.5824 6.72286 43.8632 6.86815C44.452 7.17691 46.1369 7.67638 46.6351 7.69454C46.8163 7.70362 47.3327 7.74903 47.7856 7.79443C49.0176 7.93065 51.7986 7.66729 52.2062 7.36762C52.4327 7.20416 52.3511 6.88632 52.016 6.68653C51.8529 6.58664 51.7261 6.52307 51.7261 6.55031C51.7261 6.57756 51.5359 6.45042 51.3094 6.27788C51.0829 6.10534 50.8112 5.94188 50.7025 5.91463C50.5938 5.89647 50.4216 5.86015 50.322 5.8329C50.2224 5.80566 48.5556 5.79658 46.6261 5.81474C43.4465 5.84199 43.0932 5.86015 42.9573 5.99636ZM112.962 5.92372C112.962 6.10534 113.406 6.97713 113.66 7.29497C114.185 7.94881 114.421 7.79443 114.14 6.98621C114.04 6.70469 113.959 6.36869 113.959 6.25972C113.959 6.1235 113.886 6.01453 113.751 5.96004C113.524 5.86923 112.962 5.84198 112.962 5.92372ZM104.891 6.11442C104.755 6.27788 104.366 7.05886 104.185 7.55832C103.994 8.05778 103.922 9.14752 104.058 9.48352C104.212 9.86493 104.321 9.79228 104.402 9.2565C104.438 9.0113 104.52 8.68438 104.592 8.51184C104.665 8.34838 104.719 8.12135 104.719 8.0033C104.719 7.89432 104.746 7.77627 104.782 7.73994C104.819 7.7127 104.855 7.61281 104.864 7.54016C104.873 7.45843 104.991 7.17691 105.118 6.91356C105.308 6.49583 105.326 6.39594 105.235 6.19615C105.109 5.91463 105.063 5.90555 104.891 6.11442ZM86.013 6.05993C85.8952 6.18707 85.9315 6.87724 86.0583 6.95897C86.1398 7.01345 89.1201 7.04978 93.3596 7.04978H100.534L100.697 6.79551C100.914 6.47766 100.942 6.06901 100.742 6.01453C100.516 5.95096 86.0855 5.99636 86.013 6.05993ZM68.7563 6.65929C68.1313 6.78642 67.5606 6.92264 67.479 6.96805C67.3975 7.00437 67.3069 7.02253 67.2798 6.98621C67.2435 6.95897 67.1711 6.97713 67.1076 7.02253C67.0442 7.07702 66.7091 7.18599 66.3739 7.27681C66.0387 7.36762 65.776 7.48567 65.7941 7.53108C65.8213 7.63097 66.7997 8.01238 67.0442 8.02146C67.1076 8.03054 67.479 8.09411 67.8505 8.16676C68.2219 8.24849 68.557 8.28481 68.5933 8.26665C68.6295 8.23941 68.7382 8.25757 68.8197 8.30298C69.0009 8.40287 70.405 8.53 70.9757 8.50276C71.8725 8.46644 72.4613 8.41195 72.9686 8.32114C73.2675 8.26665 73.5936 8.21216 73.6933 8.194C74.273 8.09411 75.1336 7.82167 75.2966 7.68546C75.4869 7.54016 75.4688 7.522 74.6354 7.20416C73.7023 6.84091 72.3345 6.45042 71.8363 6.38685C71.1931 6.3142 69.8524 6.43226 68.7563 6.65929ZM37.9298 6.77734C37.7939 6.77734 37.8754 7.02253 38.0657 7.19508C38.3737 7.45843 38.6454 7.58556 39.4426 7.88524C40.892 8.43011 41.7616 8.58449 41.7616 8.29389C41.7525 8.17584 40.4209 7.34037 39.6419 6.96805C39.0531 6.68653 38.7088 6.61388 38.3193 6.70469C38.1472 6.74102 37.9751 6.77734 37.9298 6.77734ZM106.214 7.19508C105.978 7.28589 105.525 8.30298 105.389 9.04763C105.326 9.41996 105.272 10.1101 105.263 10.5642C105.263 11.3452 105.281 11.436 105.534 11.8355C105.679 12.0807 105.951 12.3713 106.141 12.4985C106.332 12.6256 106.513 12.7618 106.549 12.8163C106.694 13.0161 106.884 12.553 106.83 12.108C106.766 11.5994 106.875 11.3361 107.337 10.8366C107.871 10.2736 108.333 10.4098 108.578 11.218C108.723 11.7175 108.678 11.89 108.315 12.2987C108.044 12.5893 108.225 12.7437 108.605 12.5439C109.031 12.3259 109.094 12.0626 109.031 10.773C108.94 8.85693 108.533 7.95789 107.754 7.95789C107.355 7.95789 106.721 7.63097 106.603 7.36762C106.495 7.12243 106.449 7.10426 106.214 7.19508ZM86.6381 8.05778C86.5656 8.11227 86.5112 8.23941 86.5112 8.3393C86.5112 8.54817 86.9823 9.02947 87.2631 9.09303C88.3954 9.34731 89.6093 9.40179 94.4104 9.40179C98.4958 9.40179 99.6553 9.42904 100.389 9.54709C100.643 9.58342 100.643 9.58342 100.643 9.1112C100.643 8.50276 100.489 8.21216 100.099 8.07595C99.6553 7.93065 86.8192 7.91249 86.6381 8.05778ZM75.7496 8.55725C74.6444 8.92957 74.6716 8.92049 73.648 9.09303C72.6515 9.2565 69.9521 9.32914 68.8469 9.22017C67.3885 9.07487 66.0568 8.78428 65.3322 8.44827C64.7615 8.18492 64.7705 8.18492 64.7705 8.39379C64.7705 8.6753 65.2778 9.37455 65.6401 9.60158C66.0116 9.82861 66.0568 9.83769 66.6275 9.91034C66.8268 9.93758 67.3341 10.0375 67.7599 10.1374C68.9284 10.4007 69.019 10.4189 69.8434 10.4643C70.8942 10.5369 70.9938 10.5279 71.2474 10.3553C71.4286 10.2373 71.5011 10.2282 71.6007 10.319C71.8634 10.5279 71.4739 11.0546 70.8851 11.2816C70.3959 11.4632 69.2545 11.4087 68.3034 11.1545C67.932 11.0455 67.5153 10.9456 67.3703 10.9183C67.2345 10.9002 67.0533 10.8548 66.9627 10.8275C66.8812 10.8003 66.6638 10.7549 66.4917 10.7367C66.3195 10.7095 65.9844 10.6641 65.7579 10.6368C65.0332 10.5279 63.8647 10.882 63.303 11.3815C63.0675 11.5903 62.687 12.2714 62.687 12.4894C62.687 12.7527 63.3664 13.1705 64.0277 13.3248C64.1002 13.343 64.1908 13.3703 64.5169 13.4883C64.8158 13.5973 65.0151 13.9969 65.2687 15.0321C65.3956 15.5225 65.5133 15.8131 65.5858 15.8131C65.7488 15.8131 66.0387 15.2137 66.4464 14.0423C66.7634 13.116 67.1529 12.3168 67.2888 12.3168C67.3251 12.3168 67.4519 12.3804 67.5606 12.4621C67.7508 12.5893 67.8052 12.5893 68.2219 12.444C68.6657 12.2805 68.6839 12.2805 68.8016 12.4349C68.9194 12.5984 68.8741 12.9616 68.702 13.2431C68.6295 13.3612 68.6476 14.687 68.7201 14.7597C68.7744 14.8232 69.2002 14.2965 69.2093 14.1603C69.2093 13.9787 71.0391 12.3168 71.8 11.7992C72.3979 11.3996 72.7512 11.2453 73.7023 10.9547C74.6354 10.6732 76.3384 10.0829 77.2714 9.71055C77.3439 9.68331 77.7515 9.64698 78.1773 9.6379C78.6031 9.62882 78.9654 9.61066 78.9926 9.60158C79.0197 9.5925 79.1556 9.56526 79.3006 9.54709C79.6448 9.50169 79.8894 9.27466 79.7444 9.12936C79.681 9.06579 79.2824 8.84784 78.8386 8.6299C77.7515 8.10319 77.1356 8.08503 75.7496 8.55725ZM53.4925 9.95574C51.871 10.6005 51.563 10.8094 51.1192 11.5631C50.8746 11.9899 50.6572 12.7255 50.7115 12.9707C50.7749 13.2976 51.3547 13.0615 51.3728 12.6982C51.3728 12.6165 51.5087 12.2987 51.6627 11.999C52.179 11.0364 53.2298 10.6187 53.7915 11.1635C54.036 11.3996 54.1538 11.7629 54.3984 13.0161C54.4799 13.4157 54.5796 13.452 54.8966 13.225C55.2137 12.9979 55.8387 11.7538 55.9474 11.1363C56.0561 10.4915 56.0018 10.3008 55.6122 9.91942C55.259 9.58342 55.2318 9.57434 54.7336 9.61974C54.4527 9.64699 53.8911 9.79228 53.4925 9.95574ZM80.7862 9.96482C80.5959 10.0102 80.3332 10.1555 80.1974 10.2736C79.9528 10.4824 79.9528 10.4915 80.1158 10.6641C80.3061 10.8911 80.9945 11.1363 81.384 11.1363C81.7464 11.1272 82.8425 10.5823 82.8425 10.4098C82.8425 10.2282 81.9457 9.87401 81.4837 9.86493C81.2844 9.86493 80.9674 9.91034 80.7862 9.96482ZM90.4789 10.3644C88.9389 10.428 88.785 10.4461 88.7487 10.6005C88.7215 10.7004 88.7397 10.8003 88.785 10.8275C88.8302 10.8548 88.8665 10.9365 88.8665 11.0182C88.8665 11.2362 89.7905 12.5802 90.3249 13.1432C90.8503 13.6972 91.2217 13.9878 91.8558 14.3329C92.4356 14.6507 93.2871 15.1229 93.7128 15.359C93.9121 15.468 94.2745 15.6769 94.5281 15.8131C95.4974 16.3489 97.5084 17.8927 98.4324 18.8099C98.686 19.0551 99.0031 19.3638 99.1299 19.4728L99.3564 19.6907L99.4651 19.4909C99.5194 19.3911 99.61 19.046 99.6553 18.7372C99.7368 18.2287 99.8908 17.6384 100.606 15.132C100.896 14.1058 100.905 13.5519 100.643 13.0887C100.19 12.2896 99.0121 10.6641 98.7494 10.4824C98.5502 10.3372 93.1603 10.2645 90.4789 10.3644ZM73.195 12.0172C72.6787 12.1988 72.0899 12.5984 71.8091 12.9616C71.6188 13.2068 71.6007 13.2885 71.6641 13.7517C71.7004 14.0332 71.7547 14.5145 71.7819 14.8142C71.8634 15.6496 71.9087 15.8585 72.1986 16.476C72.5519 17.2388 73.5936 18.3104 73.9741 18.3104H74.2368L73.9922 18.1469C73.7386 17.9744 73.195 17.3387 73.195 17.2116C73.195 17.1662 73.0954 16.921 72.9686 16.6576C72.7965 16.2944 72.7512 16.0674 72.7693 15.6587C72.7874 15.1592 72.7693 15.1138 72.4885 14.8959C71.9087 14.4327 72.1986 14.3692 73.1497 14.7415C73.6661 14.9504 73.9107 15.1229 74.5085 15.7132C74.9071 16.1128 75.4778 16.6122 75.7768 16.8393C76.0757 17.0572 76.3384 17.2661 76.3656 17.3024C76.4924 17.4931 77.9146 18.492 78.2951 18.6646C78.9745 18.9733 79.21 18.9915 79.5723 18.7645C79.7535 18.6555 79.8984 18.5193 79.8984 18.4557C79.8984 18.3376 79.527 18.1197 79.2372 18.0652C79.056 18.038 78.3313 17.7292 78.0233 17.5567C77.7787 17.4204 77.2443 17.0027 76.7732 16.5759C75.9036 15.7858 74.427 14.914 73.5574 14.6779C73.1226 14.5599 72.7421 14.124 72.7421 13.7517C72.7421 13.3975 73.2041 12.9525 74.0284 12.5348C74.735 12.1806 74.7984 12.108 74.5267 11.9718C74.0828 11.7538 73.9288 11.7629 73.195 12.0172ZM52.8856 11.9264C52.5867 12.2714 52.2605 13.0887 52.2424 13.5428C52.2334 14.0423 52.5233 14.796 52.949 15.3499C53.2026 15.6859 53.719 15.9856 53.8368 15.8676C53.882 15.8222 53.8458 15.5316 53.7643 15.2137C53.6646 14.8505 53.6284 14.4418 53.6556 14.1331C53.6828 13.8606 53.6646 13.4066 53.6193 13.1341C53.5741 12.8617 53.5106 12.5075 53.4835 12.3441C53.4382 12.0626 53.2389 11.772 53.0939 11.772C53.0577 11.772 52.9581 11.8446 52.8856 11.9264ZM74.0737 17.0209C74.3274 17.4295 74.5448 17.5657 74.6172 17.3478C74.6354 17.2933 74.4814 17.03 74.264 16.7575C73.965 16.3761 73.8744 16.3035 73.8473 16.4306C73.8291 16.5214 73.9288 16.7938 74.0737 17.0209ZM118.841 16.703C118.76 16.7666 118.642 17.0844 118.561 17.4114L118.434 18.0107L118.697 18.1288C118.841 18.1923 118.986 18.2105 119.032 18.1651C119.068 18.1197 119.131 17.7474 119.168 17.3296C119.231 16.5487 119.177 16.4397 118.841 16.703ZM118.253 19.2185C117.981 19.3275 117.773 19.5545 117.764 19.7452C117.764 19.8179 117.899 20.0177 118.072 20.1993C118.869 21.0438 119.231 21.6159 119.611 22.5967C119.738 22.9145 119.756 22.9236 120.255 22.9599C120.961 22.9963 121.106 22.851 121.378 21.8339C121.613 20.9621 121.595 20.6261 121.278 20.172C121.124 19.9359 120.454 19.4455 120.372 19.5C120.354 19.5182 120.246 19.4637 120.119 19.4001C119.639 19.1368 118.706 19.046 118.253 19.2185ZM116.604 20.4172C116.314 20.7078 116.522 21.1982 117.22 21.9247C117.537 22.2425 117.791 22.6058 117.863 22.8146C118.008 23.305 118.081 25.4119 117.954 25.766C117.827 26.1293 117.908 26.2655 118.135 26.0657C118.343 25.875 118.561 25.4663 118.706 24.985C118.805 24.64 118.832 23.414 118.742 23.1234C118.724 23.0508 118.642 22.8056 118.579 22.5785C118.425 22.0972 118.126 21.6613 117.419 20.8713C116.885 20.2901 116.785 20.2356 116.604 20.4172ZM116.622 23.9589C116.658 24.4765 116.704 25.0758 116.722 25.3029C116.74 25.5299 116.758 25.9113 116.758 26.1656L116.767 26.6106L116.966 26.4108C117.166 26.2201 117.175 26.1293 117.175 25.0032C117.175 23.9407 117.148 23.75 116.957 23.3232C116.649 22.633 116.55 22.8237 116.622 23.9589ZM107.31 23.4412C106.658 23.8862 106.078 24.6763 106.078 25.1213C106.078 25.4119 106.431 26.1747 106.866 26.8648C107.301 27.5368 107.292 27.5096 107.21 29.0261C107.147 30.2793 107.219 30.4973 107.591 30.0614C108.025 29.5438 108.732 28.1998 108.832 27.7094C108.977 27.0192 108.977 26.3563 108.85 25.3664C108.723 24.3584 108.696 24.2676 108.333 23.7591C108.125 23.4503 107.89 23.2142 107.799 23.2142C107.717 23.2142 107.491 23.3141 107.31 23.4412ZM109.864 24.4583C109.738 24.5945 109.719 24.9215 109.729 26.5016C109.738 28.336 109.747 28.3905 109.928 28.3905C110.39 28.3905 110.888 27.0646 110.906 25.8023C110.924 25.0486 110.906 24.9578 110.698 24.6944C110.571 24.5401 110.39 24.3948 110.29 24.3675C110.19 24.3494 110.082 24.3221 110.055 24.313C110.027 24.313 109.937 24.3766 109.864 24.4583ZM88.7306 24.7217C88.2414 24.976 88.169 25.1303 88.3773 25.4209C88.6038 25.7297 88.9027 25.8023 90.796 26.0294C92.3812 26.2201 92.8976 26.2292 93.8125 26.0385C94.4375 25.9113 94.7908 26.0112 94.8271 26.329C94.8905 26.8376 93.8125 27.1373 92.0008 27.1191C90.497 27.1009 90.6148 27.0919 90.497 27.3098C90.3612 27.555 90.2977 28.3905 90.4064 28.3905C90.4608 28.3905 90.497 28.4359 90.497 28.4994C90.497 28.5539 90.7416 28.899 91.0406 29.2713C91.3395 29.6346 91.5841 29.9706 91.5841 30.0251C91.5841 30.0705 91.6294 30.1159 91.6837 30.1159C91.7471 30.1159 91.7562 30.1795 91.7199 30.2703C91.6837 30.3611 91.6475 30.7697 91.6203 31.1875C91.5931 31.7596 91.6203 32.0138 91.729 32.2318C92.1095 32.9764 92.3903 33.0219 92.7436 32.4134C93.0969 31.7959 93.7581 31.1148 94.3288 30.7697C94.7727 30.5064 94.9267 30.461 95.6242 30.4156C96.5391 30.3702 96.7928 30.2339 97.1732 29.571C97.5084 29.008 97.5356 28.1907 97.2367 27.5732C97.0374 27.1554 96.5573 26.774 95.6333 26.3018C95.3887 26.1837 94.8723 25.648 94.5644 25.203C94.4285 25.0123 94.4013 25.0032 94.2564 25.1213C94.1477 25.2121 93.8125 25.2666 93.2146 25.2847C92.3993 25.321 92.2635 25.3029 91.5297 25.0304C91.0858 24.8761 90.642 24.7126 90.5423 24.6672C90.026 24.4402 89.2288 24.4674 88.7306 24.7217ZM87.4443 26.5016C87.3356 26.6196 87.2993 26.8194 87.3175 27.2372C87.3265 27.7457 87.3718 27.8638 87.7613 28.4268C88.1961 29.0716 88.486 29.7799 88.4951 30.2249C88.5041 30.352 88.6128 30.5972 88.7487 30.7606L88.9933 31.0512L89.7542 30.9877C90.18 30.9604 90.5514 30.9059 90.5967 30.8787C90.7779 30.7697 90.6601 30.3792 90.3612 30.0614C90.18 29.8798 90.0079 29.7526 89.9807 29.789C89.9535 29.8162 90.0169 29.9161 90.1166 30.016C90.3974 30.2521 90.3612 30.4246 90.0169 30.5518C89.5096 30.7334 89.4281 30.6971 89.1835 30.1613C89.0567 29.8798 88.9571 29.6255 88.9571 29.5892C88.9571 29.5529 88.794 29.1987 88.5947 28.7991C88.3954 28.3995 88.2052 27.9001 88.178 27.6912C88.1237 27.328 88.1327 27.3007 88.4498 27.11C88.9208 26.8376 88.8574 26.5742 88.2596 26.3926C87.8881 26.2836 87.6073 26.32 87.4443 26.5016ZM89.0929 27.7548C89.0205 27.9909 89.1382 28.3905 89.3466 28.5993L89.5278 28.781L89.4734 28.4813C89.4372 28.3178 89.41 28.0272 89.41 27.8365C89.41 27.5641 89.3828 27.5005 89.2741 27.5368C89.2016 27.5641 89.1201 27.664 89.0929 27.7548ZM117.863 30.1885C117.456 30.4882 117.528 30.5609 118.207 30.5155C118.552 30.4973 118.932 30.4428 119.041 30.4065C119.231 30.3338 119.231 30.3248 118.932 30.134C118.579 29.9161 118.207 29.9343 117.863 30.1885ZM94.7727 31.5144C94.4647 31.6778 94.2201 31.9594 93.9484 32.4588C93.7128 32.8947 93.7491 32.9764 94.3198 33.2398C94.5734 33.3669 94.6912 33.376 94.8361 33.2943C94.9448 33.2398 95.0264 33.1671 95.0354 33.1308C95.0445 33.0945 95.0535 32.9401 95.0716 32.7767C95.0807 32.6132 95.126 32.4134 95.1622 32.3226C95.1985 32.2318 95.2528 31.9866 95.2709 31.7687C95.3162 31.3418 95.2075 31.2874 94.7727 31.5144ZM104.357 44.4005C103.351 44.6639 102.346 45.127 101.594 45.69C100.733 46.3348 100.706 46.6254 101.521 46.5164C102.237 46.4165 102.735 46.4438 102.907 46.5982C102.989 46.6708 103.134 46.9887 103.224 47.2883C103.523 48.2782 103.877 48.5143 104.302 47.9967C104.538 47.7151 104.592 47.5789 104.665 47.0068C104.737 46.3984 105.072 45.8081 105.471 45.5811C105.679 45.463 106.504 45.4267 106.757 45.5175C107.111 45.6537 107.292 46.4801 107.083 47.0341C106.839 47.6697 107.373 48.3962 108.424 48.8866C109.475 49.3679 109.547 49.3952 109.81 49.4315C109.991 49.4496 110.1 49.3952 110.2 49.2499C110.317 49.0682 110.317 48.9411 110.19 48.142C110.118 47.6425 110.027 47.0885 110 46.8978C109.964 46.6254 109.982 46.5528 110.145 46.471C110.308 46.3802 110.363 46.4075 110.607 46.7525C110.761 46.9614 110.96 47.3065 111.051 47.5154C111.142 47.7242 111.368 48.1238 111.549 48.4053C111.73 48.6868 111.875 48.9411 111.875 48.9683C111.875 48.9865 112.029 49.2226 112.22 49.486C112.79 50.2488 114.557 52.8642 115.327 54.0629C116.867 56.4694 117.437 57.9314 117.628 59.9474C117.664 60.2925 117.709 60.7284 117.736 60.901C117.809 61.4095 117.782 62.7263 117.682 63.1713C117.465 64.1248 117.446 65.4415 117.655 65.4415C117.791 65.4415 118.099 64.824 118.28 64.1702C118.579 63.1077 118.678 61.9271 118.533 61.1462C118.47 60.7829 118.398 60.1472 118.37 59.7204C118.298 58.5853 118.072 57.5591 117.655 56.4512C117.347 55.6339 116.785 54.4624 116.495 54.0447C116.341 53.8268 116.224 53.627 116.224 53.5997C116.224 53.4726 114.856 51.5383 113.968 50.4304C112.854 49.0319 112.618 48.6687 112.084 47.5517C111.884 47.1249 111.622 46.689 111.504 46.58C110.589 45.7445 110.227 45.4721 109.52 45.0816C108.478 44.5095 107.464 44.2643 105.987 44.2098C105.398 44.1917 105.009 44.2371 104.357 44.4005ZM105.951 52.5736C105.761 52.7098 105.643 53.627 105.616 55.089C105.589 56.4694 105.435 56.651 104.909 55.9245C104.574 55.4704 102.835 53.854 102.762 53.9357C102.59 54.1083 102.871 55.4341 103.098 55.5249C103.143 55.5431 103.179 55.6157 103.179 55.6793C103.179 56.0426 105.018 57.5046 106.033 57.9496C106.748 58.2674 107.355 58.3855 107.663 58.2674L107.917 58.1675L107.699 58.0132C107.083 57.5863 106.73 56.9961 106.585 56.1334C106.486 55.6067 106.531 54.0356 106.64 53.5452C106.739 53.1275 106.794 53.0367 106.975 53.0185C107.092 53.0004 107.228 53.0367 107.265 53.1093C107.31 53.1729 107.346 53.8903 107.346 54.6985C107.346 55.6339 107.382 56.2605 107.455 56.424C107.573 56.6964 107.881 57.0869 107.98 57.0869C108.016 57.0869 108.053 56.8508 108.062 56.5602C108.098 55.2888 108.252 54.9256 109.058 54.1355C109.267 53.9448 109.43 53.7359 109.43 53.6815C109.43 53.4272 108.714 52.9368 107.89 52.628C107.382 52.4373 106.187 52.401 105.951 52.5736ZM109.411 55.0618C109.312 55.1526 109.248 55.3342 109.248 55.5431C109.248 55.8246 109.312 55.9427 109.611 56.2151C110.055 56.6147 110.272 56.6692 111.133 56.6056C111.812 56.5511 112.202 56.3695 112.011 56.1879C111.875 56.0607 109.729 54.9074 109.62 54.9074C109.593 54.9074 109.502 54.971 109.411 55.0618ZM115.852 57.9587C115.671 58.2584 115.472 58.6579 115.408 58.8486C115.272 59.2664 114.992 59.6205 114.702 59.7295C114.539 59.7931 114.421 59.7658 114.24 59.6387C113.732 59.2754 112.799 59.4207 112.609 59.893C112.519 60.0927 112.537 60.2108 112.673 60.5377C112.772 60.7647 112.917 61.1371 112.999 61.3732C113.08 61.6002 113.207 61.8363 113.27 61.8908C113.397 61.9998 114.113 61.7546 114.747 61.3913C115.137 61.1552 115.318 61.1643 115.318 61.4186C115.318 61.7455 114.928 62.1269 113.506 63.1713C113.261 63.3438 112.799 63.8069 112.464 64.1883C111.712 65.0692 111.558 65.1055 111.631 64.37C111.703 63.7252 112.011 62.7989 112.211 62.6536C112.346 62.5447 112.337 62.4992 112.129 62.0634C111.993 61.8 111.857 61.4822 111.83 61.355C111.794 61.2279 111.513 60.7375 111.196 60.2653C110.888 59.7931 110.462 59.112 110.254 58.7487C109.819 58.0132 109.756 57.9405 109.402 57.8588C109.167 57.7952 109.158 57.8043 109.158 58.1312C109.158 58.5762 109.339 58.9485 110.082 60.0564C110.417 60.565 110.698 61.0644 110.698 61.1643C110.698 61.2824 110.553 61.4549 110.317 61.6275C109.819 61.9907 109.421 62.4811 109.185 63.035C108.859 63.7706 108.605 64.8331 108.56 65.6777C108.497 66.6675 108.623 66.9853 109.384 67.8026C109.683 68.1296 110.064 68.5564 110.227 68.7562C110.643 69.2738 110.716 69.1194 110.553 68.0297C110.48 67.5302 110.426 66.9762 110.426 66.8037C110.435 66.6312 110.435 66.4677 110.435 66.4405C110.417 66.386 110.354 65.1237 110.335 64.3972C110.308 63.2621 110.335 62.917 110.48 62.7717C110.68 62.5628 110.77 62.5901 110.97 62.917C111.124 63.1713 111.151 63.371 111.142 64.2337C111.133 64.7877 111.151 65.2781 111.178 65.3235C111.205 65.3598 111.25 65.6595 111.278 65.9864C111.296 66.3133 111.368 66.7765 111.413 67.0126C111.468 67.2487 111.54 67.7391 111.567 68.0932C111.595 68.4565 111.649 68.9196 111.694 69.1194C111.74 69.3192 111.794 69.8459 111.83 70.2999C111.857 70.7449 111.93 71.4533 111.984 71.871C112.165 73.1878 111.74 73.0788 111.205 71.6621C111.06 71.2807 110.906 70.9538 110.87 70.9266C110.825 70.8993 110.788 70.8085 110.788 70.7177C110.788 70.5542 110.209 69.9549 109.955 69.8641C109.873 69.8368 109.674 69.6189 109.52 69.3737C109.357 69.1376 109.013 68.7198 108.759 68.4565C108.37 68.0569 108.252 67.9843 107.962 67.9843C107.781 67.9843 107.609 68.0206 107.573 68.066C107.545 68.1205 107.455 68.1477 107.364 68.1386C107.074 68.1205 106.033 68.6926 105.543 69.1285L105.063 69.5644L105.1 71.0355C105.109 71.8437 105.154 72.543 105.19 72.5793C105.299 72.6792 105.598 72.3614 105.897 71.8528C106.042 71.5986 106.322 71.2171 106.522 70.9992C106.721 70.7812 106.957 70.4997 107.047 70.3726C107.355 69.9549 108.551 68.9832 108.759 68.9832C108.995 68.9832 109.294 69.4463 109.212 69.6824C109.085 70.0003 109.892 71.0991 111.513 72.8427C112.319 73.7235 112.691 74.1594 112.691 74.2593C112.691 74.3047 112.754 74.3683 112.827 74.3955C112.899 74.4319 112.962 74.5136 112.962 74.5772C112.962 74.6498 113.017 74.7316 113.089 74.7588C113.153 74.786 113.343 75.0131 113.515 75.2764C113.678 75.5398 113.832 75.7668 113.868 75.794C113.941 75.8576 114.412 76.6023 114.412 76.6477C114.412 76.6749 114.511 76.8475 114.638 77.0382C114.829 77.3106 116.024 79.6717 116.722 81.1519C117.039 81.8058 117.764 83.7037 117.764 83.8581C117.764 83.9489 117.809 84.067 117.872 84.1305C117.936 84.1941 117.945 84.2395 117.908 84.2395C117.863 84.2395 117.872 84.294 117.927 84.3576C117.981 84.4211 118.053 84.6118 118.081 84.7844C118.108 84.9569 118.189 85.2838 118.262 85.5109C118.334 85.7379 118.561 86.5552 118.76 87.3271C118.959 88.099 119.222 89.0979 119.34 89.5429C119.467 89.9788 119.584 90.4783 119.611 90.6417C119.639 90.8052 119.702 91.0322 119.747 91.1593C119.938 91.6588 120.11 93.4841 120.173 95.5455C120.246 97.9793 120.246 97.9066 120.155 98.2426C120.092 98.506 120.209 98.5877 120.363 98.3789C120.59 98.0973 121.007 96.6262 121.079 95.8634C121.133 95.2549 120.979 93.9745 120.689 92.7304C120.608 92.3762 120.545 92.0584 120.554 92.013C120.572 91.9766 120.535 91.8858 120.472 91.8132C120.418 91.7405 120.4 91.6225 120.427 91.5407C120.463 91.459 120.445 91.341 120.4 91.2865C120.345 91.2229 120.291 91.0322 120.273 90.8597C120.255 90.678 120.209 90.4964 120.182 90.4419C120.155 90.3965 120.11 90.2512 120.083 90.1241C120.064 89.997 119.892 89.2795 119.711 88.544C119.53 87.7993 119.358 87.1182 119.34 87.0183C119.267 86.6097 118.914 85.2566 118.805 84.966C118.651 84.521 118.37 83.5857 118.352 83.4222C118.343 83.3496 118.28 83.1044 118.216 82.8773C118.144 82.6503 118.099 82.4233 118.117 82.3597C118.126 82.3052 118.09 82.2326 118.035 82.1963C117.99 82.169 117.945 82.0509 117.945 81.9511C117.945 81.8421 117.863 81.5242 117.773 81.2518C117.591 80.7251 117.474 80.2983 117.446 80.0622C117.437 79.9895 117.383 79.7807 117.329 79.6081C117.274 79.4356 117.211 79.1904 117.184 79.0633C117.157 78.9361 117.093 78.6092 117.039 78.3368C116.984 78.0643 116.921 77.7465 116.903 77.6284C116.876 77.5195 116.83 77.3197 116.803 77.1744C116.767 77.0382 116.731 74.8405 116.731 72.2978C116.722 69.746 116.686 67.6119 116.649 67.5484C116.604 67.4848 116.577 66.6039 116.586 65.5959C116.613 63.0804 116.604 62.7172 116.486 62.7172C116.35 62.7172 115.019 64.0975 114.693 64.5879C114.43 64.9784 114.394 65.1237 114.294 66.2588C114.294 66.2861 114.312 66.3678 114.339 66.4405C114.457 66.7401 114.611 69.9912 114.548 70.7358C114.484 71.5895 114.321 71.9255 114.086 71.6894C113.959 71.5622 113.705 69.855 113.642 68.7107C113.587 67.7391 113.506 66.9944 113.406 66.613C113.334 66.3315 113.279 66.2679 113.008 66.2225C112.836 66.1862 112.691 66.1226 112.691 66.0772C112.691 65.9682 113.76 64.5516 114.267 63.9795C114.475 63.7434 114.756 63.3892 114.901 63.1803C115.055 62.9805 115.2 62.808 115.245 62.808C115.281 62.808 115.318 62.7626 115.318 62.7172C115.318 62.6627 115.399 62.5356 115.499 62.4266C115.752 62.1451 116.169 61.3096 116.341 60.7193C116.695 59.5116 116.658 57.2594 116.287 57.3866C116.233 57.4047 116.033 57.659 115.852 57.9587ZM108.107 70.7631C107.871 71.1173 107.935 71.8892 108.243 72.5612C108.46 73.0243 108.768 73.4602 108.805 73.3331C108.814 73.3149 108.823 73.0425 108.841 72.7337C108.859 72.3432 108.913 72.098 109.058 71.9073C109.158 71.7529 109.248 71.5804 109.248 71.5168C109.248 71.3897 108.442 70.527 108.324 70.527C108.288 70.527 108.189 70.636 108.107 70.7631ZM109.81 72.543C109.656 72.6974 109.674 73.1151 109.837 73.4329C109.964 73.6872 110.018 73.7054 110.462 73.7054C110.725 73.7054 110.96 73.6781 110.997 73.6509C111.051 73.5964 110.073 72.434 109.964 72.434C109.937 72.434 109.873 72.4794 109.81 72.543ZM110.825 74.7134C110.761 74.7679 110.643 75.0676 110.562 75.3854C110.417 75.9121 110.308 76.0665 109.421 77.0563C108.877 77.6557 108.469 78.1642 108.515 78.2005C108.56 78.2278 108.886 78.2096 109.239 78.1551C110.236 78.0189 110.417 78.2006 110.517 79.4628C110.58 80.2438 110.607 80.3982 110.788 80.8341C110.825 80.934 110.906 81.1519 110.97 81.3063C111.033 81.4698 111.105 81.606 111.142 81.606C111.359 81.606 112.301 80.2983 112.464 79.7807C112.5 79.6626 112.582 79.5082 112.636 79.4356C112.7 79.3539 112.736 78.8726 112.745 78.1642C112.745 76.8656 112.836 76.5659 113.198 76.6386C113.325 76.6568 113.406 76.6477 113.397 76.6204C113.343 76.5024 112.464 75.3218 112.029 74.786L111.604 74.2593L111.259 74.441C111.078 74.5499 110.879 74.668 110.825 74.7134ZM113.56 77.2561C113.624 77.5104 113.705 78.0552 113.732 78.4639C113.805 79.59 114.104 82.0146 114.194 82.1599C114.276 82.2961 114.367 83.8309 114.367 85.0114C114.357 86.8276 114.231 94.0562 114.185 94.8644C114.158 95.2368 114.104 95.8634 114.059 96.2448C114.004 96.6534 113.959 99.5503 113.959 103.101C113.959 106.488 113.932 109.585 113.895 109.985C113.868 110.384 113.832 117.186 113.823 125.105C113.814 136.365 113.787 139.689 113.687 140.361C113.597 141.051 113.587 143.212 113.633 151.077C113.66 156.498 113.696 163.291 113.696 166.17C113.696 169.493 113.732 171.437 113.787 171.473C113.841 171.509 113.841 171.573 113.769 171.655C113.687 171.755 113.687 171.809 113.769 171.909C113.841 171.991 113.841 172.054 113.787 172.09C113.741 172.127 113.696 172.545 113.687 173.035C113.687 173.516 113.651 174.197 113.606 174.551C113.56 174.897 113.542 176.649 113.569 178.429C113.597 180.218 113.587 181.78 113.56 181.907C113.506 182.107 113.452 182.134 113.098 182.134C112.872 182.134 112.691 182.098 112.691 182.062C112.691 181.862 110.263 181.489 108.977 181.48C107.536 181.48 106.25 181.962 105.426 182.806C105.009 183.242 104.864 183.533 104.946 183.842L105 184.069L105.244 183.832C105.543 183.542 106.295 183.16 106.712 183.088C107.283 182.979 108.234 183.024 108.723 183.179C109.52 183.442 109.71 183.696 110.009 184.904C110.154 185.494 110.354 185.858 110.526 185.858C110.562 185.858 110.77 185.503 110.979 185.077C111.35 184.296 111.821 183.733 112.274 183.515C112.401 183.46 112.618 183.351 112.745 183.297C113.252 183.051 115.001 183.251 115.635 183.633C116.042 183.869 116.468 184.559 116.532 185.086C116.577 185.503 116.686 185.767 116.803 185.767C116.975 185.758 117.347 184.84 117.383 184.314C117.41 183.896 117.374 183.723 117.148 183.269C116.994 182.97 116.803 182.407 116.722 182.016C116.55 181.244 116.568 182.852 116.459 160.294C116.432 155.445 116.368 149.397 116.314 146.854C116.26 144.302 116.178 139.998 116.133 137.273C116.088 134.495 116.006 131.988 115.952 131.552C115.798 130.444 115.934 120.174 116.133 117.885C116.178 117.331 116.287 116.151 116.359 115.252C116.441 114.353 116.541 113.354 116.595 113.027C116.74 112.064 116.667 94.6465 116.495 89.6882C116.45 88.217 116.405 86.1738 116.414 85.1476C116.414 84.1215 116.378 83.068 116.323 82.7956C116.269 82.5232 116.042 81.9329 115.825 81.4788C115.463 80.7251 114.874 79.4719 114.122 77.8827C113.868 77.3469 113.533 76.793 113.47 76.793C113.452 76.793 113.497 77.0018 113.56 77.2561ZM117.356 88.6983C117.311 89.6428 117.32 90.1423 117.383 90.1786C117.446 90.2149 117.446 90.333 117.401 90.4964C117.365 90.6417 117.338 90.7779 117.356 90.7961C117.383 90.8233 117.483 92.3671 117.646 95.0915C117.673 95.6363 117.691 96.4173 117.691 96.8169C117.682 97.2165 117.655 99.3687 117.619 101.603C117.582 104.472 117.6 105.807 117.664 106.143C117.818 106.824 118.035 109.213 118.035 110.121C118.035 110.548 117.99 111.074 117.936 111.301C117.845 111.683 117.591 113.036 117.537 113.435C117.519 113.535 117.501 113.617 117.492 113.617C117.474 113.617 117.456 113.699 117.437 113.799C117.419 113.899 117.392 114.08 117.374 114.207C117.129 115.624 116.984 116.768 116.894 117.976C116.867 118.376 116.83 118.848 116.812 119.02C116.749 119.629 116.758 122.707 116.821 123.179C116.903 123.842 117.021 123.661 117.048 122.807C117.066 122.426 117.102 122.108 117.129 122.108C117.166 122.108 117.202 121.763 117.211 121.336C117.22 120.909 117.265 120.237 117.32 119.856C117.374 119.474 117.437 118.911 117.465 118.612C117.492 118.312 117.546 118.021 117.591 117.967C117.637 117.912 117.655 117.849 117.628 117.831C117.61 117.803 117.646 117.422 117.718 116.977C117.791 116.523 117.872 115.978 117.89 115.751C117.918 115.524 118.035 114.87 118.162 114.298C118.28 113.726 118.407 112.963 118.443 112.618C118.47 112.264 118.533 111.719 118.588 111.392C118.642 111.074 118.651 110.702 118.615 110.575C118.579 110.448 118.533 110.202 118.533 110.03C118.524 109.857 118.461 108.913 118.398 107.941C118.271 105.989 118.361 103.083 118.561 102.583C118.615 102.447 118.624 102.384 118.697 101.948C118.724 101.821 118.787 101.539 118.841 101.312C119.032 100.576 119.05 100.458 119.068 99.632C119.086 99.178 119.14 98.4878 119.204 98.0883C119.412 96.7624 119.276 93.8746 118.932 92.1855C118.805 91.5862 118.407 90.0696 118.289 89.7518C118.235 89.6155 118.18 89.4248 118.171 89.3431C118.162 89.2614 118.135 89.1252 118.108 89.0525C118.081 88.9799 117.963 88.6257 117.854 88.2806C117.664 87.6449 117.483 87.2181 117.437 87.2635C117.419 87.2726 117.383 87.9265 117.356 88.6983ZM120.11 100.422C120.11 100.486 120.092 100.604 120.073 100.676C119.412 103.219 119.322 103.628 119.367 103.909C119.43 104.282 119.539 104.309 119.602 103.964C119.621 103.828 119.738 103.328 119.847 102.856C119.956 102.384 120.055 101.902 120.073 101.793C120.092 101.684 120.128 101.485 120.155 101.339C120.264 100.849 120.291 100.313 120.2 100.313C120.155 100.313 120.119 100.368 120.11 100.422ZM119.005 121.581C118.896 121.645 118.633 121.872 118.416 122.081L118.035 122.453L118.044 124.033C118.053 124.896 118.09 125.668 118.135 125.74C118.171 125.822 118.207 126.085 118.226 126.331C118.235 126.585 118.28 126.821 118.316 126.875C118.352 126.921 118.379 126.984 118.379 127.012C118.389 127.139 118.606 127.611 118.769 127.838C118.869 127.983 119.131 128.229 119.358 128.383C120.164 128.937 121.079 128.81 122.175 128.002C122.655 127.647 123.389 126.703 123.516 126.285C123.552 126.158 123.624 126.004 123.67 125.94C123.724 125.886 123.824 125.577 123.887 125.259C124.095 124.306 123.887 123.334 123.434 123.125C123.162 122.998 123.018 123.143 122.972 123.579C122.8 125.086 122.682 125.468 122.284 125.758C121.967 126.004 120.843 126.158 120.4 126.031C119.947 125.895 119.503 125.468 119.43 125.123C119.349 124.741 119.72 124.197 120.209 123.96C120.816 123.661 120.753 123.17 120.01 122.453C119.811 122.271 119.765 122.153 119.802 121.99C119.91 121.572 119.448 121.336 119.005 121.581ZM116.858 124.06C116.858 124.133 116.894 124.197 116.948 124.197C116.994 124.197 117.039 124.133 117.039 124.06C117.039 123.988 116.994 123.924 116.948 123.924C116.894 123.924 116.858 123.988 116.858 124.06ZM116.858 124.878C116.858 125.15 116.812 125.395 116.767 125.423C116.713 125.459 116.676 126.149 116.676 127.202C116.676 129 116.722 129.164 117.021 128.474C117.093 128.292 117.175 128.083 117.202 128.011C117.274 127.765 117.374 126.421 117.338 126.349C117.311 126.303 117.283 126.022 117.265 125.713C117.238 125.15 117.138 124.487 117.066 124.351C116.966 124.169 116.858 124.433 116.858 124.878Z" fill="#504C4C"/>
</svg>
